<svg width="62" height="36" viewBox="0 0 62 36" fill="none" xmlns="http://www.w3.org/2000/svg">
<g id="logo-v2">
<path id="Vector" d="M12.6575 7.22623L29.7399 24.8258L28.0848 29.8388L18.792 20.3033L15.0567 16.4707L13.3712 21.5757L9.71176 32.6749L4.79203 32.629L12.6575 7.22623ZM11.1695 0.986816L0.343018 35.8791L12.0501 35.9864L16.4688 22.6029L29.497 35.9864L33.4753 23.952L11.1695 0.986816Z" fill="white"/>
<path id="Vector_2" d="M52.3035 4.29816L57.2232 4.34412L49.3425 29.7469L32.2601 12.1474L33.9152 7.13431L43.2081 16.6699L46.9434 20.5026L48.6289 15.3975L52.3035 4.29816ZM49.9499 0.986816L45.5313 14.3704L32.5031 0.986816L28.5248 13.0213L50.8306 35.9864L61.657 1.09401L49.9499 0.986816Z" fill="white"/>
</g>
</svg>
