<svg width="105" height="18" viewBox="0 0 105 18" fill="none" xmlns="http://www.w3.org/2000/svg">
<path d="M37.1993 8.59231L40.3722 0.227434H42.0028L45.1757 8.59309H43.42L42.6923 6.47315H39.5819L38.8542 8.59309L37.1993 8.59231ZM40.0212 5.1685H42.2412L41.1375 1.92058L40.0212 5.1685Z" fill="#4F4F4F"/>
<path d="M46.0535 10.6373L46.718 9.54604C47.1612 9.84699 47.7342 9.99786 48.4361 9.99786C48.8207 9.99786 49.1428 9.87904 49.4015 9.64062C49.6603 9.40221 49.79 9.0778 49.79 8.66898V8.02956C49.5891 8.18824 49.3695 8.32269 49.1318 8.43056C48.8934 8.53922 48.5776 8.59394 48.1852 8.59394C47.6247 8.59394 47.1424 8.47043 46.7367 8.2242C46.331 7.97797 46.0215 7.63871 45.8089 7.208C45.5955 6.77729 45.4892 6.28639 45.4892 5.73451C45.4892 5.14903 45.6252 4.61826 45.8964 4.14143C46.1677 3.66459 46.553 3.28626 47.0502 3.00641C47.5473 2.72657 48.1352 2.58586 48.8121 2.58586C49.3218 2.58586 49.7947 2.62807 50.2293 2.71093C50.6639 2.79457 51.011 2.88212 51.2705 2.97436V8.69321C51.2705 9.23649 51.1494 9.70081 50.9071 10.0854C50.6647 10.47 50.3317 10.7608 49.9096 10.957C49.4875 11.1532 49.0044 11.2517 48.4611 11.2517C47.8506 11.2517 47.366 11.197 47.0064 11.0883C46.6476 10.9797 46.3295 10.8296 46.0535 10.6373ZM49.7916 6.09644V3.98978C49.6743 3.94835 49.5532 3.9163 49.4281 3.89598C49.303 3.87487 49.106 3.86471 48.8387 3.86471C48.4377 3.86471 48.1008 3.95069 47.8288 4.12188C47.5567 4.29307 47.3504 4.51664 47.2081 4.79257C47.0658 5.06851 46.9947 5.36946 46.9947 5.69543C46.9947 6.14725 47.1072 6.52715 47.3332 6.8367C47.5591 7.14625 47.9226 7.30102 48.4244 7.30102C49.3359 7.30102 49.7916 6.89923 49.7916 6.09644Z" fill="#4F4F4F"/>
<path d="M57.4545 6.83672L58.2573 7.73958C58.2322 7.76459 58.1635 7.83338 58.0501 7.94672C57.9375 8.05929 57.7742 8.18123 57.5608 8.31021C57.3474 8.43997 57.0761 8.55254 56.7455 8.64868C56.4148 8.74483 56.0201 8.7933 55.5604 8.7933C54.9335 8.7933 54.3879 8.65728 53.9236 8.38603C53.4592 8.11479 53.0981 7.73567 52.8386 7.25102C52.5791 6.76637 52.4501 6.20981 52.4501 5.58289C52.4501 5.006 52.5775 4.4854 52.8323 4.02107C53.0872 3.55675 53.4381 3.18935 53.886 2.91732C54.3332 2.64608 54.8499 2.51006 55.4346 2.51006C55.9778 2.51006 56.4336 2.60621 56.8017 2.79851C57.1699 2.9908 57.4662 3.24798 57.6921 3.57004C57.918 3.89209 58.0806 4.25323 58.1814 4.65502C58.2815 5.05603 58.3323 5.46642 58.3323 5.88384V6.09724H53.9423C53.9423 6.38178 54.0236 6.63036 54.187 6.84376C54.3504 7.05716 54.5567 7.22444 54.8077 7.3456C55.0586 7.46677 55.3134 7.52774 55.5729 7.52774C55.9575 7.52774 56.2749 7.48396 56.5258 7.39641C56.7767 7.30887 56.9776 7.21037 57.1277 7.10172C57.2786 6.9915 57.3872 6.90395 57.4545 6.83672ZM53.3904 1.81983L54.6951 0.0391379H56.0873L57.3919 1.81983H56.0873L55.3853 0.866949L54.6959 1.81983H53.3904ZM53.9298 5.03102H56.8143C56.8143 4.83012 56.7619 4.63157 56.6571 4.43537C56.5524 4.23916 56.4 4.07579 56.1991 3.94603C55.9982 3.81627 55.7433 3.75139 55.4338 3.75139C55.1078 3.75139 54.8335 3.81627 54.6122 3.94603C54.3902 4.07579 54.2214 4.23916 54.1041 4.43537C53.9884 4.63157 53.9298 4.83012 53.9298 5.03102Z" fill="#4F4F4F"/>
<path d="M59.4736 8.59236V2.71014H60.8908L60.9283 3.37457C61.0792 3.20729 61.2965 3.03376 61.5803 2.85397C61.8648 2.67418 62.2369 2.58428 62.6965 2.58428C63.4243 2.58428 63.9824 2.80394 64.3709 3.24247C64.7594 3.68178 64.954 4.27274 64.954 5.01691V8.59158H63.4743V5.03098C63.4743 4.6628 63.3719 4.37436 63.1671 4.16565C62.9623 3.95693 62.6965 3.85219 62.3705 3.85219C61.9609 3.85219 61.6225 4.00305 61.3544 4.304C61.087 4.60496 60.9533 4.97313 60.9533 5.40775V8.59314L59.4736 8.59236Z" fill="#4F4F4F"/>
<path d="M70.6862 6.86171L71.564 7.81459C71.2881 8.10773 70.9598 8.34145 70.5791 8.51655C70.1984 8.69243 69.7614 8.77998 69.2682 8.77998C68.5991 8.77998 68.0284 8.64865 67.5563 8.38523C67.0842 8.1218 66.7246 7.7544 66.4776 7.28148C66.2305 6.80934 66.1078 6.26372 66.1078 5.64462C66.1078 5.07633 66.2415 4.55338 66.5088 4.07655C66.7762 3.59971 67.1467 3.21981 67.6188 2.93528C68.091 2.65074 68.6413 2.50847 69.2682 2.50847C69.745 2.50847 70.1796 2.59446 70.5728 2.76565C70.966 2.93684 71.3006 3.169 71.5765 3.46135L70.6362 4.41424C70.4775 4.22194 70.2828 4.07185 70.053 3.96242C69.8232 3.85376 69.5621 3.79904 69.269 3.79904C68.893 3.79904 68.5811 3.88659 68.3349 4.06247C68.0878 4.23836 67.9041 4.46583 67.783 4.74567C67.6618 5.02552 67.6009 5.32491 67.6009 5.64227C67.6009 5.93541 67.661 6.22385 67.783 6.5076C67.9041 6.79214 68.0878 7.02587 68.3349 7.21034C68.5811 7.39404 68.893 7.48628 69.269 7.48628C69.5613 7.48628 69.831 7.43 70.078 7.31665C70.3243 7.20644 70.5267 7.05401 70.6862 6.86171Z" fill="#4F4F4F"/>
<path d="M72.567 1.78222V0.227434H74.1475V1.783L72.567 1.78222ZM72.6178 8.59231V2.71008H74.0975V8.59231H72.6178Z" fill="#4F4F4F"/>
<path d="M79.1261 8.59239L79.0886 8.04051C78.9299 8.23281 78.6853 8.404 78.3546 8.55487C78.0239 8.70573 77.6628 8.78078 77.2696 8.78078C76.9515 8.78078 76.6364 8.71355 76.323 8.57988C76.0095 8.44621 75.75 8.2375 75.5452 7.95297C75.3404 7.66843 75.238 7.30885 75.238 6.87423C75.238 6.2051 75.4764 5.68684 75.9532 5.31867C76.4301 4.95049 77.0523 4.76679 77.8223 4.76679C77.9645 4.76679 78.1334 4.77148 78.3304 4.7793C78.5266 4.7879 78.7798 4.80041 79.0894 4.81682V4.67924C79.0894 4.38689 78.9721 4.15707 78.7384 3.98979C78.5039 3.82251 78.199 3.73887 77.823 3.73887C77.4048 3.73887 77.0703 3.79359 76.8194 3.90224C76.5684 4.0109 76.3472 4.12815 76.1549 4.25322L75.478 3.24953C75.6367 3.13228 75.825 3.01737 76.0424 2.9048C76.2597 2.79224 76.527 2.69766 76.8452 2.62261C77.1625 2.54757 77.5557 2.51005 78.0239 2.51005C78.7767 2.51005 79.3786 2.7086 79.8297 3.1057C80.2815 3.5028 80.5066 4.01481 80.5066 4.64172V8.59239H79.1261ZM79.0886 6.51075V5.93386C78.8963 5.91744 78.6876 5.90493 78.4617 5.89634C78.2358 5.88852 78.0646 5.88383 77.9473 5.88383C77.4705 5.88383 77.1359 5.97763 76.9436 6.16602C76.7513 6.35441 76.6552 6.56937 76.6552 6.8117C76.6552 7.06262 76.7451 7.25882 76.9249 7.40109C77.1047 7.54336 77.3704 7.61449 77.7214 7.61449C77.9552 7.61449 78.1748 7.56447 78.3796 7.46363C78.5844 7.36357 78.7541 7.2299 78.8877 7.06262C79.0222 6.89534 79.0886 6.71164 79.0886 6.51075Z" fill="#4F4F4F"/>
<path d="M83.566 8.59231L81.3968 0.227434H83.1275L84.4947 6.48565L86.1128 0.465849H87.5425L89.1731 6.48565L90.5278 0.227434H92.1834L89.9884 8.59309H88.3328L86.7772 3.06185L85.1966 8.59309L83.566 8.59231Z" fill="#4F4F4F"/>
<path d="M97.1995 6.83671L98.0023 7.73956C97.9773 7.76458 97.9085 7.83337 97.7952 7.94671C97.6826 8.05928 97.5192 8.18122 97.3058 8.3102C97.0924 8.43996 96.8212 8.55252 96.4905 8.64867C96.1599 8.74482 95.7651 8.79328 95.3055 8.79328C94.6786 8.79328 94.133 8.65727 93.6686 8.38602C93.2043 8.11478 92.8432 7.73566 92.5836 7.25101C92.3241 6.76636 92.1952 6.20979 92.1952 5.58288C92.1952 5.00599 92.3226 4.48538 92.5774 4.02106C92.8322 3.55673 93.1832 3.18934 93.6311 2.91731C94.0782 2.64606 94.5949 2.51005 95.1804 2.51005C95.7237 2.51005 96.1794 2.6062 96.5476 2.79849C96.9158 2.99079 97.212 3.24797 97.438 3.57002C97.6639 3.89208 97.8265 4.25322 97.9273 4.65501C98.0274 5.05602 98.0782 5.46641 98.0782 5.88383V6.09723H93.6882C93.6882 6.38177 93.7695 6.63034 93.9329 6.84375C94.0962 7.05715 94.3026 7.22443 94.5535 7.34559C94.8044 7.46675 95.0593 7.52773 95.3188 7.52773C95.7034 7.52773 96.0208 7.48395 96.2717 7.3964C96.5226 7.30885 96.7235 7.21036 96.8736 7.1017C97.0237 6.99149 97.1323 6.90394 97.1995 6.83671ZM93.6749 5.031H96.5593C96.5593 4.83011 96.507 4.63156 96.4022 4.43536C96.2975 4.23915 96.145 4.07578 95.9441 3.94602C95.7432 3.81626 95.4884 3.75138 95.1789 3.75138C94.8529 3.75138 94.5785 3.81626 94.3573 3.94602C94.1353 4.07578 93.9665 4.23915 93.8492 4.43536C93.7335 4.63156 93.6749 4.83011 93.6749 5.031Z" fill="#4F4F4F"/>
<path d="M99.2187 8.4047V0.227434H100.698V3.11187C100.798 3.01182 100.993 2.89847 101.282 2.7734C101.57 2.64833 101.911 2.58501 102.304 2.58501C102.872 2.58501 103.358 2.72103 103.759 2.99228C104.16 3.2643 104.468 3.62544 104.68 4.07726C104.893 4.52908 105 5.03014 105 5.58202C105 6.1675 104.864 6.70218 104.593 7.18761C104.321 7.67304 103.939 8.06154 103.445 8.35389C102.952 8.64625 102.363 8.7932 101.677 8.7932C101.167 8.7932 100.697 8.75099 100.266 8.66813C99.8354 8.58449 99.486 8.49616 99.2187 8.4047ZM100.698 5.1685V7.38851C100.816 7.42212 100.937 7.45104 101.062 7.47606C101.187 7.50107 101.384 7.51358 101.651 7.51358C102.052 7.51358 102.389 7.42368 102.661 7.24389C102.933 7.0641 103.14 6.83038 103.282 6.54193C103.424 6.25349 103.495 5.94629 103.495 5.62032C103.495 5.31937 103.445 5.03483 103.344 4.7675C103.244 4.50016 103.09 4.28441 102.88 4.12182C102.671 3.95845 102.399 3.87715 102.065 3.87715C101.622 3.87715 101.283 3.99206 101.049 4.22188C100.816 4.45169 100.698 4.7675 100.698 5.1685Z" fill="#4F4F4F"/>
<path d="M37.0851 17.9047V13.3607H39.9461V13.9399H37.7386V15.2618H39.4005V15.8473H37.7386V17.3184H40.1095V17.9039L37.0851 17.9047Z" fill="#4F4F4F"/>
<path d="M40.5597 17.5161L40.9342 17.1073C41.0475 17.2206 41.1835 17.3113 41.343 17.3801C41.5017 17.4481 41.6862 17.4825 41.8949 17.4825C42.0989 17.4825 42.2693 17.4497 42.4061 17.384C42.5421 17.3184 42.6101 17.2152 42.6101 17.0737C42.6101 16.9736 42.5828 16.8947 42.528 16.8353C42.4733 16.7766 42.3803 16.7227 42.249 16.675C42.1169 16.6273 41.9355 16.5765 41.7041 16.5218C41.5408 16.4812 41.3813 16.4257 41.2273 16.3545C41.0725 16.2842 40.9459 16.1865 40.8458 16.0614C40.7458 15.9363 40.6958 15.7745 40.6958 15.5744C40.6958 15.3704 40.756 15.1976 40.8763 15.0569C40.9967 14.9162 41.1523 14.8107 41.343 14.7403C41.5337 14.67 41.7338 14.6348 41.9426 14.6348C42.2107 14.6348 42.4421 14.67 42.6375 14.7403C42.8329 14.8107 43.001 14.91 43.1417 15.0366L42.8079 15.4587C42.7125 15.3727 42.5929 15.3 42.4499 15.2406C42.3068 15.182 42.1395 15.1523 41.9488 15.1523C41.7534 15.1523 41.597 15.1843 41.479 15.2477C41.361 15.311 41.3016 15.4157 41.3016 15.5611C41.3016 15.6971 41.3813 15.7987 41.54 15.8644C41.6987 15.9301 41.9035 15.9926 42.1528 16.052C42.353 16.0974 42.5335 16.1575 42.6945 16.2326C42.8556 16.3076 42.9853 16.4085 43.083 16.5359C43.1808 16.6633 43.2292 16.829 43.2292 17.033C43.2292 17.2418 43.1667 17.4176 43.0416 17.5607C42.9165 17.7037 42.754 17.8124 42.5546 17.8874C42.3545 17.9625 42.1388 18 41.9074 18C41.3086 18 40.8591 17.839 40.5597 17.5161Z" fill="#4F4F4F"/>
<path d="M46.3224 17.0737L46.6968 17.4684C46.5561 17.6271 46.381 17.7561 46.1723 17.853C45.9636 17.9507 45.7252 17.9992 45.4571 17.9992C45.1162 17.9992 44.8223 17.9265 44.5745 17.7811C44.3267 17.6357 44.1352 17.4372 43.9992 17.1847C43.8632 16.933 43.7952 16.643 43.7952 16.3162C43.7952 16.0074 43.8655 15.726 44.0062 15.4712C44.1469 15.2172 44.3431 15.0139 44.5956 14.8615C44.8473 14.7091 45.135 14.6332 45.4571 14.6332C45.7252 14.6332 45.9612 14.6809 46.1653 14.7763C46.3693 14.8717 46.5444 15.0014 46.6898 15.1648L46.288 15.5533C46.1926 15.4353 46.0769 15.3422 45.9409 15.2742C45.8049 15.2062 45.6431 15.1718 45.4571 15.1718C45.239 15.1718 45.0514 15.225 44.895 15.3321C44.7387 15.4392 44.6191 15.5783 44.537 15.7511C44.4549 15.9238 44.4143 16.1122 44.4143 16.3162C44.4143 16.5116 44.4565 16.6969 44.5401 16.8712C44.6238 17.0463 44.7434 17.1878 44.8981 17.2972C45.0521 17.4059 45.239 17.4606 45.4571 17.4606C45.6431 17.4606 45.8104 17.4254 45.9581 17.3551C46.1059 17.2855 46.227 17.1917 46.3224 17.0737Z" fill="#4F4F4F"/>
<path d="M48.6385 18C48.3157 18 48.028 17.9242 47.7732 17.7717C47.5191 17.6193 47.3198 17.4153 47.1768 17.1589C47.0337 16.9025 46.9618 16.6219 46.9618 16.3178C46.9618 16.009 47.0337 15.7276 47.1768 15.4728C47.3198 15.2187 47.5184 15.0155 47.7732 14.8631C48.0272 14.7106 48.3157 14.6348 48.6385 14.6348C48.9606 14.6348 49.2482 14.7106 49.5 14.8631C49.7517 15.0155 49.951 15.2187 50.0964 15.4728C50.2418 15.7268 50.3145 16.009 50.3145 16.3178C50.3145 16.6219 50.2418 16.9025 50.0964 17.1589C49.951 17.4153 49.7524 17.6201 49.5 17.7717C49.2482 17.9242 48.9614 18 48.6385 18ZM48.6385 17.4684C48.8613 17.4684 49.0505 17.4129 49.2076 17.3012C49.3639 17.1902 49.4843 17.0455 49.5687 16.8689C49.6524 16.6914 49.6946 16.5077 49.6946 16.317C49.6946 16.1263 49.6524 15.9426 49.5687 15.7651C49.4843 15.5877 49.3632 15.4439 49.2045 15.3329C49.0458 15.2219 48.8574 15.1656 48.6393 15.1656C48.4212 15.1656 48.2328 15.2211 48.0742 15.3329C47.9155 15.4439 47.7935 15.5869 47.7099 15.762C47.6255 15.9371 47.584 16.1224 47.584 16.317C47.584 16.5077 47.627 16.6907 47.7138 16.8658C47.7998 17.0409 47.9217 17.1847 48.0781 17.298C48.2336 17.4122 48.4212 17.4684 48.6385 17.4684Z" fill="#4F4F4F"/>
<path d="M51.0024 17.9047V13.3607H51.6152V17.9047H51.0024Z" fill="#4F4F4F"/>
<path d="M54.4496 17.9047L54.4363 17.5232C54.323 17.678 54.1674 17.7945 53.9696 17.8742C53.7719 17.9539 53.5733 17.993 53.3732 17.993C53.2005 17.993 53.0293 17.961 52.8589 17.8976C52.6885 17.8343 52.5478 17.7296 52.4368 17.5842C52.3258 17.4388 52.2695 17.2457 52.2695 17.0049C52.2695 16.6641 52.3899 16.3921 52.6306 16.1873C52.8714 15.9833 53.2137 15.8809 53.6593 15.8809C53.7594 15.8809 53.8626 15.884 53.9696 15.891C54.076 15.8981 54.1729 15.9043 54.2589 15.9114C54.3449 15.9184 54.4019 15.9239 54.4293 15.9286V15.8129C54.4293 15.5768 54.3574 15.4072 54.2143 15.3056C54.0713 15.2032 53.8774 15.1523 53.632 15.1523C53.3959 15.1523 53.2059 15.1852 53.0629 15.2508C52.9198 15.3165 52.8002 15.3837 52.7049 15.4517L52.4188 15.0359C52.5321 14.9452 52.6892 14.8569 52.8886 14.7701C53.0887 14.6841 53.3584 14.6403 53.6992 14.6403C54.1033 14.6403 54.4238 14.7388 54.6599 14.9366C54.896 15.1344 55.014 15.415 55.014 15.7777V17.624C55.014 17.6561 55.014 17.6944 55.014 17.7397C55.014 17.7851 55.0163 17.8398 55.021 17.9031H54.4496V17.9047ZM54.4293 16.7673V16.4062C54.4066 16.3968 54.3542 16.389 54.2729 16.3827C54.1909 16.3757 54.0994 16.3694 53.997 16.3624C53.8946 16.3554 53.7961 16.3522 53.7007 16.3522C53.4733 16.3522 53.2997 16.3851 53.1794 16.4507C53.059 16.5164 52.9769 16.5985 52.9339 16.6962C52.8909 16.7939 52.869 16.89 52.869 16.9854C52.869 17.1535 52.9277 17.2832 53.0465 17.3739C53.1645 17.4646 53.3279 17.5099 53.5366 17.5099C53.6953 17.5099 53.8422 17.4747 53.9759 17.4044C54.1096 17.334 54.219 17.2418 54.3026 17.1285C54.3871 17.0143 54.4293 16.8939 54.4293 16.7673Z" fill="#4F4F4F"/>
<path d="M56.4664 17.9046H55.8535V15.0436C55.8535 15.0116 55.8535 14.9756 55.8535 14.935C55.8535 14.8943 55.8512 14.8287 55.8465 14.7372H56.432L56.4523 15.2484C56.5023 15.1757 56.5719 15.096 56.6602 15.01C56.7486 14.924 56.8611 14.849 56.9971 14.7849C57.1332 14.7216 57.2965 14.6895 57.4873 14.6895C57.5553 14.6895 57.6178 14.6942 57.6749 14.7028C57.7319 14.7122 57.7851 14.7255 57.8351 14.7435L57.6991 15.3157C57.617 15.2836 57.5131 15.268 57.3856 15.268C57.2129 15.268 57.0573 15.3125 56.919 15.4009C56.7806 15.4892 56.6704 15.6065 56.5883 15.7518C56.5062 15.8972 56.4656 16.0583 56.4656 16.2357L56.4664 17.9046Z" fill="#4F4F4F"/>
<path d="M6.3483 3.18071L15.1454 12.1522L14.2918 14.7122L7.58493 7.89118L4.82947 16.1568L2.29289 16.1349L6.3483 3.18071ZM5.58302 7.3825e-06L0.0126953 17.7952L6.03797 17.8484L8.31191 11.0273L15.0188 17.8484L17.0653 11.7097L5.58302 7.3825e-06Z" fill="#4F4F4F"/>
<path d="M26.7598 1.69158L29.2964 1.71347L25.2418 14.6669L16.4446 5.6954L17.2982 3.13536L24.0051 9.9564L26.7598 1.69158ZM25.5521 0L23.2781 6.82104L16.5712 0L14.5248 6.13862L26.0062 17.8476L31.5766 0.053155L25.5521 0Z" fill="#4F4F4F"/>
</svg>
