<svg width="20" height="17" viewBox="0 0 20 17" fill="none" xmlns="http://www.w3.org/2000/svg">
<path fill-rule="evenodd" clip-rule="evenodd" d="M13.3145 0.587322C13.4663 0.525311 13.6426 0.544842 13.7803 0.637615C13.89 0.712225 13.9648 0.826209 13.9903 0.953818L14 1.05168V13.0517C14 13.2177 13.9175 13.3725 13.7803 13.4657C13.6963 13.5224 13.5986 13.5517 13.5 13.5517C13.458 13.5517 13.416 13.5465 13.375 13.5359L13.3145 13.516L9 11.7903V14.5517C9 15.6547 8.10303 16.5517 7 16.5517C5.94711 16.5517 5.08197 15.7344 5.0055 14.7007L5 14.5517V10.1902L3.40356 9.55168H0.5C0.25434 9.55168 0.0503472 9.37498 0.00804827 9.14161L0 9.05168V5.05168C0 4.80602 0.176698 4.60202 0.410065 4.55973L0.5 4.55168H3.40356L13.3145 0.587322ZM6 10.5903V14.5517C6 15.1029 6.44873 15.5517 7 15.5517C7.51189 15.5517 7.93537 15.1648 7.99326 14.6681L8 14.5517V11.3902L6 10.5903ZM15.7455 9.11608C15.5389 8.99941 15.272 9.04348 15.1157 9.23185C14.939 9.44426 14.9678 9.75968 15.1802 9.93596L18.1802 12.4316L18.2536 12.4824C18.3302 12.5259 18.4153 12.5473 18.4995 12.5473C18.6431 12.5473 18.7856 12.4858 18.8843 12.3671C19.061 12.1547 19.0322 11.8393 18.8198 11.663L15.8198 9.1674L15.7455 9.11608ZM13 1.78996L4 5.39024V8.71312L13 12.3134V1.78996ZM1 5.55168H3V8.55168H1V5.55168ZM19.5 6.55754C19.7764 6.55754 20 6.78117 20 7.05754C20 7.3032 19.8233 7.50719 19.5899 7.54949L19.5 7.55754H15.5C15.2236 7.55754 15 7.3339 15 7.05754C15 6.81188 15.1767 6.60788 15.4101 6.56559L15.5 6.55754H19.5ZM18.8838 1.72697C18.7075 1.51554 18.3916 1.48576 18.1797 1.66349L15.1797 4.16789L15.1159 4.23161C14.9639 4.41346 14.9587 4.68362 15.1162 4.87199C15.2148 4.99064 15.3569 5.05168 15.5005 5.05168C15.6133 5.05168 15.7271 5.01359 15.8203 4.93547L18.8203 2.43107L18.8841 2.36735C19.0361 2.1855 19.0413 1.91534 18.8838 1.72697Z" fill="#0F315C"/>
</svg>
