<svg width="21" height="21" viewBox="0 0 21 21" fill="none" xmlns="http://www.w3.org/2000/svg">
<path d="M18.5 8.04813C18.5 7.77198 18.2761 7.54813 18 7.54813C17.7239 7.54813 17.5 7.77198 17.5 8.04813H18.5ZM17.5 11.8088C17.5 12.0849 17.7239 12.3088 18 12.3088C18.2761 12.3088 18.5 12.0849 18.5 11.8088H17.5ZM10.8863 17.5481C11.1625 17.5481 11.3863 17.3243 11.3863 17.0481C11.3863 16.772 11.1625 16.5481 10.8863 16.5481V17.5481ZM3.5 8.07336C3.5 7.79722 3.27614 7.57336 3 7.57336C2.72386 7.57336 2.5 7.79722 2.5 8.07336H3.5ZM2.28667 2.35914L2.77435 2.46944L2.77435 2.46942L2.28667 2.35914ZM1 8.04813L0.512317 7.93783C0.478789 8.08607 0.514511 8.24152 0.609392 8.36026C0.704273 8.47899 0.848011 8.54813 1 8.54813V8.04813ZM20 8.04813V8.54813C20.152 8.54813 20.2957 8.47899 20.3906 8.36025C20.4855 8.24151 20.5212 8.08606 20.4877 7.93781L20 8.04813ZM18.7131 2.35914L18.2254 2.46942L18.2254 2.46946L18.7131 2.35914ZM15.0034 18.201C15.0034 18.4772 15.2272 18.701 15.5034 18.701C15.7795 18.701 16.0034 18.4772 16.0034 18.201H15.0034ZM16.0034 17.2565C16.0034 16.9804 15.7795 16.7565 15.5034 16.7565C15.2272 16.7565 15.0034 16.9804 15.0034 17.2565H16.0034ZM15.9637 14.5097C16.188 14.6707 16.5004 14.6194 16.6615 14.3951C16.8225 14.1708 16.7712 13.8584 16.5468 13.6973L15.9637 14.5097ZM15.5544 15.5761L15.3317 16.0238L15.3319 16.0239L15.5544 15.5761ZM14.7359 16.5521C14.4875 16.4315 14.1884 16.5352 14.0678 16.7836C13.9473 17.0321 14.051 17.3312 14.2994 17.4517L14.7359 16.5521ZM15.0034 13.9161C15.0034 14.1922 15.2272 14.4161 15.5034 14.4161C15.7795 14.4161 16.0034 14.1922 16.0034 13.9161H15.0034ZM16.0034 12.9716C16.0034 12.6954 15.7795 12.4716 15.5034 12.4716C15.2272 12.4716 15.0034 12.6954 15.0034 12.9716H16.0034ZM5 17.0487C5 17.3248 5.22386 17.5487 5.5 17.5487C5.77614 17.5487 6 17.3248 6 17.0487H5ZM5.5 12.0487V11.5487C5.22386 11.5487 5 11.7725 5 12.0487H5.5ZM9 12.0487H9.5C9.5 11.7725 9.27614 11.5487 9 11.5487V12.0487ZM8.5 17.0487C8.5 17.3248 8.72386 17.5487 9 17.5487C9.27614 17.5487 9.5 17.3248 9.5 17.0487H8.5ZM17.5 8.04813C17.5 8.05139 17.5 8.05465 17.5 8.05791C17.5 8.06118 17.5 8.06444 17.5 8.06769C17.5 8.07095 17.5 8.07421 17.5 8.07746C17.5 8.08072 17.5 8.08397 17.5 8.08722C17.5 8.09048 17.5 8.09373 17.5 8.09697C17.5 8.10022 17.5 8.10347 17.5 8.10671C17.5 8.10996 17.5 8.1132 17.5 8.11645C17.5 8.11969 17.5 8.12293 17.5 8.12617C17.5 8.12941 17.5 8.13264 17.5 8.13588C17.5 8.13911 17.5 8.14235 17.5 8.14558C17.5 8.14881 17.5 8.15205 17.5 8.15527C17.5 8.1585 17.5 8.16173 17.5 8.16496C17.5 8.16818 17.5 8.17141 17.5 8.17463C17.5 8.17786 17.5 8.18108 17.5 8.1843C17.5 8.18752 17.5 8.19073 17.5 8.19395C17.5 8.19717 17.5 8.20038 17.5 8.2036C17.5 8.20681 17.5 8.21002 17.5 8.21323C17.5 8.21644 17.5 8.21965 17.5 8.22286C17.5 8.22606 17.5 8.22927 17.5 8.23247C17.5 8.23568 17.5 8.23888 17.5 8.24208C17.5 8.24528 17.5 8.24848 17.5 8.25168C17.5 8.25488 17.5 8.25807 17.5 8.26127C17.5 8.26446 17.5 8.26765 17.5 8.27084C17.5 8.27404 17.5 8.27723 17.5 8.28041C17.5 8.2836 17.5 8.28679 17.5 8.28997C17.5 8.29316 17.5 8.29634 17.5 8.29952C17.5 8.3027 17.5 8.30588 17.5 8.30906C17.5 8.31224 17.5 8.31542 17.5 8.31859C17.5 8.32177 17.5 8.32494 17.5 8.32811C17.5 8.33128 17.5 8.33446 17.5 8.33762C17.5 8.34079 17.5 8.34396 17.5 8.34713C17.5 8.35029 17.5 8.35346 17.5 8.35662C17.5 8.35978 17.5 8.36294 17.5 8.3661C17.5 8.36926 17.5 8.37242 17.5 8.37557C17.5 8.37873 17.5 8.38188 17.5 8.38504C17.5 8.38819 17.5 8.39134 17.5 8.39449C17.5 8.39764 17.5 8.40079 17.5 8.40393C17.5 8.40708 17.5 8.41023 17.5 8.41337C17.5 8.41651 17.5 8.41965 17.5 8.42279C17.5 8.42593 17.5 8.42907 17.5 8.43221C17.5 8.43535 17.5 8.43848 17.5 8.44162C17.5 8.44475 17.5 8.44788 17.5 8.45101C17.5 8.45414 17.5 8.45727 17.5 8.4604C17.5 8.46353 17.5 8.46665 17.5 8.46978C17.5 8.4729 17.5 8.47602 17.5 8.47914C17.5 8.48227 17.5 8.48538 17.5 8.4885C17.5 8.49162 17.5 8.49474 17.5 8.49785C17.5 8.50097 17.5 8.50408 17.5 8.50719C17.5 8.5103 17.5 8.51341 17.5 8.51652C17.5 8.51963 17.5 8.52274 17.5 8.52584C17.5 8.52895 17.5 8.53205 17.5 8.53515C17.5 8.53825 17.5 8.54135 17.5 8.54445C17.5 8.54755 17.5 8.55065 17.5 8.55374C17.5 8.55684 17.5 8.55993 17.5 8.56302C17.5 8.56612 17.5 8.56921 17.5 8.5723C17.5 8.57539 17.5 8.57847 17.5 8.58156C17.5 8.58465 17.5 8.58773 17.5 8.59081C17.5 8.59389 17.5 8.59698 17.5 8.60006C17.5 8.60314 17.5 8.60621 17.5 8.60929C17.5 8.61237 17.5 8.61544 17.5 8.61851C17.5 8.62159 17.5 8.62466 17.5 8.62773C17.5 8.6308 17.5 8.63387 17.5 8.63693C17.5 8.64 17.5 8.64307 17.5 8.64613C17.5 8.64919 17.5 8.65226 17.5 8.65532C17.5 8.65838 17.5 8.66143 17.5 8.66449C17.5 8.66755 17.5 8.6706 17.5 8.67366C17.5 8.67671 17.5 8.67977 17.5 8.68282C17.5 8.68587 17.5 8.68892 17.5 8.69196C17.5 8.69501 17.5 8.69806 17.5 8.7011C17.5 8.70415 17.5 8.70719 17.5 8.71023C17.5 8.71327 17.5 8.71631 17.5 8.71935C17.5 8.72239 17.5 8.72542 17.5 8.72846C17.5 8.73149 17.5 8.73453 17.5 8.73756C17.5 8.74059 17.5 8.74362 17.5 8.74665C17.5 8.74968 17.5 8.75271 17.5 8.75573C17.5 8.75876 17.5 8.76178 17.5 8.7648C17.5 8.76782 17.5 8.77084 17.5 8.77386C17.5 8.77688 17.5 8.7799 17.5 8.78292C17.5 8.78593 17.5 8.78895 17.5 8.79196C17.5 8.79497 17.5 8.79798 17.5 8.80099C17.5 8.804 17.5 8.80701 17.5 8.81002C17.5 8.81302 17.5 8.81603 17.5 8.81903C17.5 8.82203 17.5 8.82503 17.5 8.82803C17.5 8.83103 17.5 8.83403 17.5 8.83703C17.5 8.84002 17.5 8.84302 17.5 8.84601C17.5 8.84901 17.5 8.852 17.5 8.85499C17.5 8.85798 17.5 8.86097 17.5 8.86396C17.5 8.86694 17.5 8.86993 17.5 8.87291C17.5 8.8759 17.5 8.87888 17.5 8.88186C17.5 8.88484 17.5 8.88782 17.5 8.8908C17.5 8.89377 17.5 8.89675 17.5 8.89972C17.5 8.9027 17.5 8.90567 17.5 8.90864C17.5 8.91161 17.5 8.91458 17.5 8.91755C17.5 8.92052 17.5 8.92349 17.5 8.92645C17.5 8.92942 17.5 8.93238 17.5 8.93534C17.5 8.9383 17.5 8.94126 17.5 8.94422C17.5 8.94718 17.5 8.95014 17.5 8.95309C17.5 8.95605 17.5 8.959 17.5 8.96195C17.5 8.9649 17.5 8.96785 17.5 8.9708C17.5 8.97375 17.5 8.9767 17.5 8.97964C17.5 8.98259 17.5 8.98553 17.5 8.98848C17.5 8.99142 17.5 8.99436 17.5 8.9973C17.5 9.00024 17.5 9.00318 17.5 9.00611C17.5 9.00905 17.5 9.01198 17.5 9.01492C17.5 9.01785 17.5 9.02078 17.5 9.02371C17.5 9.02664 17.5 9.02957 17.5 9.03249C17.5 9.03542 17.5 9.03835 17.5 9.04127C17.5 9.04419 17.5 9.04711 17.5 9.05003C17.5 9.05295 17.5 9.05587 17.5 9.05879C17.5 9.06171 17.5 9.06462 17.5 9.06754C17.5 9.07045 17.5 9.07336 17.5 9.07627C17.5 9.07918 17.5 9.08209 17.5 9.085C17.5 9.08791 17.5 9.09081 17.5 9.09372C17.5 9.09662 17.5 9.09952 17.5 9.10243C17.5 9.10533 17.5 9.10823 17.5 9.11112C17.5 9.11402 17.5 9.11692 17.5 9.11981C17.5 9.12271 17.5 9.1256 17.5 9.12849C17.5 9.13138 17.5 9.13427 17.5 9.13716C17.5 9.14005 17.5 9.14294 17.5 9.14582C17.5 9.14871 17.5 9.15159 17.5 9.15447C17.5 9.15735 17.5 9.16023 17.5 9.16311C17.5 9.16599 17.5 9.16887 17.5 9.17174C17.5 9.17462 17.5 9.17749 17.5 9.18037C17.5 9.18324 17.5 9.18611 17.5 9.18898C17.5 9.19185 17.5 9.19471 17.5 9.19758C17.5 9.20045 17.5 9.20331 17.5 9.20617C17.5 9.20904 17.5 9.2119 17.5 9.21476C17.5 9.21762 17.5 9.22048 17.5 9.22333C17.5 9.22619 17.5 9.22904 17.5 9.2319C17.5 9.23475 17.5 9.2376 17.5 9.24045C17.5 9.2433 17.5 9.24615 17.5 9.249C17.5 9.25184 17.5 9.25469 17.5 9.25753C17.5 9.26038 17.5 9.26322 17.5 9.26606C17.5 9.2689 17.5 9.27174 17.5 9.27457C17.5 9.27741 17.5 9.28025 17.5 9.28308C17.5 9.28592 17.5 9.28875 17.5 9.29158C17.5 9.29441 17.5 9.29724 17.5 9.30007C17.5 9.30289 17.5 9.30572 17.5 9.30855C17.5 9.31137 17.5 9.31419 17.5 9.31701C17.5 9.31984 17.5 9.32265 17.5 9.32547C17.5 9.32829 17.5 9.33111 17.5 9.33392C17.5 9.33674 17.5 9.33955 17.5 9.34236C17.5 9.34517 17.5 9.34798 17.5 9.35079C17.5 9.3536 17.5 9.35641 17.5 9.35921C17.5 9.36202 17.5 9.36482 17.5 9.36763C17.5 9.37043 17.5 9.37323 17.5 9.37603C17.5 9.37883 17.5 9.38162 17.5 9.38442C17.5 9.38722 17.5 9.39001 17.5 9.3928C17.5 9.3956 17.5 9.39839 17.5 9.40118C17.5 9.40396 17.5 9.40675 17.5 9.40954C17.5 9.41233 17.5 9.41511 17.5 9.41789C17.5 9.42068 17.5 9.42346 17.5 9.42624C17.5 9.42902 17.5 9.4318 17.5 9.43457C17.5 9.43735 17.5 9.44012 17.5 9.4429C17.5 9.44567 17.5 9.44844 17.5 9.45121C17.5 9.45398 17.5 9.45675 17.5 9.45952C17.5 9.46229 17.5 9.46505 17.5 9.46782C17.5 9.47058 17.5 9.47334 17.5 9.4761C17.5 9.47886 17.5 9.48162 17.5 9.48438C17.5 9.48714 17.5 9.48989 17.5 9.49265C17.5 9.4954 17.5 9.49816 17.5 9.50091C17.5 9.50366 17.5 9.50641 17.5 9.50916C17.5 9.5119 17.5 9.51465 17.5 9.5174C17.5 9.52014 17.5 9.52288 17.5 9.52563C17.5 9.52837 17.5 9.53111 17.5 9.53384C17.5 9.53658 17.5 9.53932 17.5 9.54206C17.5 9.54479 17.5 9.54752 17.5 9.55026C17.5 9.55299 17.5 9.55572 17.5 9.55845C17.5 9.56118 17.5 9.5639 17.5 9.56663C17.5 9.56936 17.5 9.57208 17.5 9.5748C17.5 9.57753 17.5 9.58025 17.5 9.58296C17.5 9.58568 17.5 9.5884 17.5 9.59112C17.5 9.59383 17.5 9.59655 17.5 9.59926C17.5 9.60198 17.5 9.60469 17.5 9.6074C17.5 9.61011 17.5 9.61281 17.5 9.61552C17.5 9.61823 17.5 9.62093 17.5 9.62364C17.5 9.62634 17.5 9.62904 17.5 9.63174C17.5 9.63444 17.5 9.63714 17.5 9.63984C17.5 9.64253 17.5 9.64523 17.5 9.64792C17.5 9.65062 17.5 9.65331 17.5 9.656C17.5 9.65869 17.5 9.66138 17.5 9.66407C17.5 9.66675 17.5 9.66944 17.5 9.67212C17.5 9.67481 17.5 9.67749 17.5 9.68017C17.5 9.68285 17.5 9.68553 17.5 9.68821C17.5 9.69089 17.5 9.69356 17.5 9.69624C17.5 9.69891 17.5 9.70159 17.5 9.70426C17.5 9.70693 17.5 9.7096 17.5 9.71227C17.5 9.71494 17.5 9.7176 17.5 9.72027C17.5 9.72293 17.5 9.7256 17.5 9.72826C17.5 9.73092 17.5 9.73358 17.5 9.73624C17.5 9.7389 17.5 9.74156 17.5 9.74421C17.5 9.74687 17.5 9.74952 17.5 9.75217C17.5 9.75483 17.5 9.75748 17.5 9.76013C17.5 9.76278 17.5 9.76542 17.5 9.76807C17.5 9.77071 17.5 9.77336 17.5 9.776C17.5 9.77864 17.5 9.78129 17.5 9.78393C17.5 9.78656 17.5 9.7892 17.5 9.79184C17.5 9.79448 17.5 9.79711 17.5 9.79974C17.5 9.80238 17.5 9.80501 17.5 9.80764C17.5 9.81027 17.5 9.8129 17.5 9.81552C17.5 9.81815 17.5 9.82078 17.5 9.8234C17.5 9.82602 17.5 9.82865 17.5 9.83127C17.5 9.83389 17.5 9.83651 17.5 9.83912C17.5 9.84174 17.5 9.84436 17.5 9.84697C17.5 9.84958 17.5 9.8522 17.5 9.85481C17.5 9.85742 17.5 9.86003 17.5 9.86264C17.5 9.86524 17.5 9.86785 17.5 9.87045C17.5 9.87306 17.5 9.87566 17.5 9.87826C17.5 9.88087 17.5 9.88346 17.5 9.88606C17.5 9.88866 17.5 9.89126 17.5 9.89385C17.5 9.89645 17.5 9.89904 17.5 9.90163C17.5 9.90422 17.5 9.90681 17.5 9.9094C17.5 9.91199 17.5 9.91458 17.5 9.91716C17.5 9.91975 17.5 9.92233 17.5 9.92492C17.5 9.9275 17.5 9.93008 17.5 9.93266C17.5 9.93524 17.5 9.93781 17.5 9.94039C17.5 9.94297 17.5 9.94554 17.5 9.94811C17.5 9.95069 17.5 9.95326 17.5 9.95583C17.5 9.9584 17.5 9.96096 17.5 9.96353C17.5 9.9661 17.5 9.96866 17.5 9.97122C17.5 9.97379 17.5 9.97635 17.5 9.97891C17.5 9.98147 17.5 9.98403 17.5 9.98658C17.5 9.98914 17.5 9.9917 17.5 9.99425C17.5 9.9968 17.5 9.99935 17.5 10.0019C17.5 10.0045 17.5 10.007 17.5 10.0096C17.5 10.0121 17.5 10.0146 17.5 10.0172C17.5 10.0197 17.5 10.0223 17.5 10.0248C17.5 10.0274 17.5 10.0299 17.5 10.0324C17.5 10.035 17.5 10.0375 17.5 10.04C17.5 10.0426 17.5 10.0451 17.5 10.0476C17.5 10.0502 17.5 10.0527 17.5 10.0552C17.5 10.0578 17.5 10.0603 17.5 10.0628C17.5 10.0653 17.5 10.0679 17.5 10.0704C17.5 10.0729 17.5 10.0754 17.5 10.0779C17.5 10.0805 17.5 10.083 17.5 10.0855C17.5 10.088 17.5 10.0905 17.5 10.093C17.5 10.0955 17.5 10.0981 17.5 10.1006C17.5 10.1031 17.5 10.1056 17.5 10.1081C17.5 10.1106 17.5 10.1131 17.5 10.1156C17.5 10.1181 17.5 10.1206 17.5 10.1231C17.5 10.1256 17.5 10.1281 17.5 10.1306C17.5 10.1331 17.5 10.1356 17.5 10.1381C17.5 10.1406 17.5 10.1431 17.5 10.1455C17.5 10.148 17.5 10.1505 17.5 10.153C17.5 10.1555 17.5 10.158 17.5 10.1605C17.5 10.163 17.5 10.1654 17.5 10.1679C17.5 10.1704 17.5 10.1729 17.5 10.1754C17.5 10.1778 17.5 10.1803 17.5 10.1828C17.5 10.1853 17.5 10.1877 17.5 10.1902C17.5 10.1927 17.5 10.1951 17.5 10.1976C17.5 10.2001 17.5 10.2025 17.5 10.205C17.5 10.2075 17.5 10.2099 17.5 10.2124C17.5 10.2148 17.5 10.2173 17.5 10.2198C17.5 10.2222 17.5 10.2247 17.5 10.2271C17.5 10.2296 17.5 10.232 17.5 10.2345C17.5 10.2369 17.5 10.2394 17.5 10.2418C17.5 10.2443 17.5 10.2467 17.5 10.2492C17.5 10.2516 17.5 10.2541 17.5 10.2565C17.5 10.259 17.5 10.2614 17.5 10.2638C17.5 10.2663 17.5 10.2687 17.5 10.2711C17.5 10.2736 17.5 10.276 17.5 10.2784C17.5 10.2809 17.5 10.2833 17.5 10.2857C17.5 10.2882 17.5 10.2906 17.5 10.293C17.5 10.2954 17.5 10.2979 17.5 10.3003C17.5 10.3027 17.5 10.3051 17.5 10.3076C17.5 10.31 17.5 10.3124 17.5 10.3148C17.5 10.3172 17.5 10.3196 17.5 10.3221C17.5 10.3245 17.5 10.3269 17.5 10.3293C17.5 10.3317 17.5 10.3341 17.5 10.3365C17.5 10.3389 17.5 10.3413 17.5 10.3437C17.5 10.3461 17.5 10.3485 17.5 10.3509C17.5 10.3533 17.5 10.3557 17.5 10.3581C17.5 10.3605 17.5 10.3629 17.5 10.3653C17.5 10.3677 17.5 10.3701 17.5 10.3725C17.5 10.3749 17.5 10.3773 17.5 10.3797C17.5 10.3821 17.5 10.3844 17.5 10.3868C17.5 10.3892 17.5 10.3916 17.5 10.394C17.5 10.3964 17.5 10.3987 17.5 10.4011C17.5 10.4035 17.5 10.4059 17.5 10.4082C17.5 10.4106 17.5 10.413 17.5 10.4154C17.5 10.4177 17.5 10.4201 17.5 10.4225C17.5 10.4248 17.5 10.4272 17.5 10.4296C17.5 10.4319 17.5 10.4343 17.5 10.4367C17.5 10.439 17.5 10.4414 17.5 10.4438C17.5 10.4461 17.5 10.4485 17.5 10.4508C17.5 10.4532 17.5 10.4555 17.5 10.4579C17.5 10.4602 17.5 10.4626 17.5 10.4649C17.5 10.4673 17.5 10.4696 17.5 10.472C17.5 10.4743 17.5 10.4767 17.5 10.479C17.5 10.4814 17.5 10.4837 17.5 10.486C17.5 10.4884 17.5 10.4907 17.5 10.4931C17.5 10.4954 17.5 10.4977 17.5 10.5001C17.5 10.5024 17.5 10.5047 17.5 10.5071C17.5 10.5094 17.5 10.5117 17.5 10.514C17.5 10.5164 17.5 10.5187 17.5 10.521C17.5 10.5233 17.5 10.5257 17.5 10.528C17.5 10.5303 17.5 10.5326 17.5 10.535C17.5 10.5373 17.5 10.5396 17.5 10.5419C17.5 10.5442 17.5 10.5465 17.5 10.5488C17.5 10.5511 17.5 10.5535 17.5 10.5558C17.5 10.5581 17.5 10.5604 17.5 10.5627C17.5 10.565 17.5 10.5673 17.5 10.5696C17.5 10.5719 17.5 10.5742 17.5 10.5765C17.5 10.5788 17.5 10.5811 17.5 10.5834C17.5 10.5857 17.5 10.588 17.5 10.5903C17.5 10.5926 17.5 10.5949 17.5 10.5971C17.5 10.5994 17.5 10.6017 17.5 10.604C17.5 10.6063 17.5 10.6086 17.5 10.6109C17.5 10.6131 17.5 10.6154 17.5 10.6177C17.5 10.62 17.5 10.6223 17.5 10.6245C17.5 10.6268 17.5 10.6291 17.5 10.6314C17.5 10.6336 17.5 10.6359 17.5 10.6382C17.5 10.6404 17.5 10.6427 17.5 10.645C17.5 10.6472 17.5 10.6495 17.5 10.6518C17.5 10.654 17.5 10.6563 17.5 10.6586C17.5 10.6608 17.5 10.6631 17.5 10.6653C17.5 10.6676 17.5 10.6698 17.5 10.6721C17.5 10.6743 17.5 10.6766 17.5 10.6789C17.5 10.6811 17.5 10.6834 17.5 10.6856C17.5 10.6878 17.5 10.6901 17.5 10.6923C17.5 10.6946 17.5 10.6968 17.5 10.6991C17.5 10.7013 17.5 10.7035 17.5 10.7058C17.5 10.708 17.5 10.7103 17.5 10.7125C17.5 10.7147 17.5 10.717 17.5 10.7192C17.5 10.7214 17.5 10.7237 17.5 10.7259C17.5 10.7281 17.5 10.7303 17.5 10.7326C17.5 10.7348 17.5 10.737 17.5 10.7392C17.5 10.7415 17.5 10.7437 17.5 10.7459C17.5 10.7481 17.5 10.7503 17.5 10.7525C17.5 10.7548 17.5 10.757 17.5 10.7592C17.5 10.7614 17.5 10.7636 17.5 10.7658C17.5 10.768 17.5 10.7702 17.5 10.7724C17.5 10.7747 17.5 10.7769 17.5 10.7791C17.5 10.7813 17.5 10.7835 17.5 10.7857C17.5 10.7879 17.5 10.7901 17.5 10.7923C17.5 10.7945 17.5 10.7966 17.5 10.7988C17.5 10.801 17.5 10.8032 17.5 10.8054C17.5 10.8076 17.5 10.8098 17.5 10.812C17.5 10.8142 17.5 10.8164 17.5 10.8185C17.5 10.8207 17.5 10.8229 17.5 10.8251C17.5 10.8273 17.5 10.8294 17.5 10.8316C17.5 10.8338 17.5 10.836 17.5 10.8381C17.5 10.8403 17.5 10.8425 17.5 10.8447C17.5 10.8468 17.5 10.849 17.5 10.8512C17.5 10.8533 17.5 10.8555 17.5 10.8577C17.5 10.8598 17.5 10.862 17.5 10.8642C17.5 10.8663 17.5 10.8685 17.5 10.8706C17.5 10.8728 17.5 10.875 17.5 10.8771C17.5 10.8793 17.5 10.8814 17.5 10.8836C17.5 10.8857 17.5 10.8879 17.5 10.89C17.5 10.8922 17.5 10.8943 17.5 10.8965C17.5 10.8986 17.5 10.9008 17.5 10.9029C17.5 10.905 17.5 10.9072 17.5 10.9093C17.5 10.9115 17.5 10.9136 17.5 10.9157C17.5 10.9179 17.5 10.92 17.5 10.9221C17.5 10.9243 17.5 10.9264 17.5 10.9285C17.5 10.9307 17.5 10.9328 17.5 10.9349C17.5 10.937 17.5 10.9392 17.5 10.9413C17.5 10.9434 17.5 10.9455 17.5 10.9476C17.5 10.9498 17.5 10.9519 17.5 10.954C17.5 10.9561 17.5 10.9582 17.5 10.9604C17.5 10.9625 17.5 10.9646 17.5 10.9667C17.5 10.9688 17.5 10.9709 17.5 10.973C17.5 10.9751 17.5 10.9772 17.5 10.9793C17.5 10.9814 17.5 10.9835 17.5 10.9856C17.5 10.9877 17.5 10.9898 17.5 10.9919C17.5 10.994 17.5 10.9961 17.5 10.9982C17.5 11.0003 17.5 11.0024 17.5 11.0045C17.5 11.0066 17.5 11.0087 17.5 11.0108C17.5 11.0129 17.5 11.0149 17.5 11.017C17.5 11.0191 17.5 11.0212 17.5 11.0233C17.5 11.0254 17.5 11.0274 17.5 11.0295C17.5 11.0316 17.5 11.0337 17.5 11.0358C17.5 11.0378 17.5 11.0399 17.5 11.042C17.5 11.044 17.5 11.0461 17.5 11.0482C17.5 11.0503 17.5 11.0523 17.5 11.0544C17.5 11.0565 17.5 11.0585 17.5 11.0606C17.5 11.0626 17.5 11.0647 17.5 11.0668C17.5 11.0688 17.5 11.0709 17.5 11.0729C17.5 11.075 17.5 11.077 17.5 11.0791C17.5 11.0812 17.5 11.0832 17.5 11.0853C17.5 11.0873 17.5 11.0894 17.5 11.0914C17.5 11.0934 17.5 11.0955 17.5 11.0975C17.5 11.0996 17.5 11.1016 17.5 11.1037C17.5 11.1057 17.5 11.1077 17.5 11.1098C17.5 11.1118 17.5 11.1138 17.5 11.1159C17.5 11.1179 17.5 11.1199 17.5 11.122C17.5 11.124 17.5 11.126 17.5 11.1281C17.5 11.1301 17.5 11.1321 17.5 11.1341C17.5 11.1362 17.5 11.1382 17.5 11.1402C17.5 11.1422 17.5 11.1443 17.5 11.1463C17.5 11.1483 17.5 11.1503 17.5 11.1523C17.5 11.1543 17.5 11.1563 17.5 11.1584C17.5 11.1604 17.5 11.1624 17.5 11.1644C17.5 11.1664 17.5 11.1684 17.5 11.1704C17.5 11.1724 17.5 11.1744 17.5 11.1764C17.5 11.1784 17.5 11.1804 17.5 11.1824C17.5 11.1844 17.5 11.1864 17.5 11.1884C17.5 11.1904 17.5 11.1924 17.5 11.1944C17.5 11.1964 17.5 11.1984 17.5 11.2004C17.5 11.2024 17.5 11.2043 17.5 11.2063C17.5 11.2083 17.5 11.2103 17.5 11.2123C17.5 11.2143 17.5 11.2162 17.5 11.2182C17.5 11.2202 17.5 11.2222 17.5 11.2242C17.5 11.2261 17.5 11.2281 17.5 11.2301C17.5 11.2321 17.5 11.234 17.5 11.236C17.5 11.238 17.5 11.2399 17.5 11.2419C17.5 11.2439 17.5 11.2458 17.5 11.2478C17.5 11.2498 17.5 11.2517 17.5 11.2537C17.5 11.2557 17.5 11.2576 17.5 11.2596C17.5 11.2615 17.5 11.2635 17.5 11.2654C17.5 11.2674 17.5 11.2693 17.5 11.2713C17.5 11.2732 17.5 11.2752 17.5 11.2771C17.5 11.2791 17.5 11.281 17.5 11.283C17.5 11.2849 17.5 11.2869 17.5 11.2888C17.5 11.2908 17.5 11.2927 17.5 11.2946C17.5 11.2966 17.5 11.2985 17.5 11.3004C17.5 11.3024 17.5 11.3043 17.5 11.3062C17.5 11.3082 17.5 11.3101 17.5 11.312C17.5 11.314 17.5 11.3159 17.5 11.3178C17.5 11.3197 17.5 11.3217 17.5 11.3236C17.5 11.3255 17.5 11.3274 17.5 11.3293C17.5 11.3313 17.5 11.3332 17.5 11.3351C17.5 11.337 17.5 11.3389 17.5 11.3408C17.5 11.3428 17.5 11.3447 17.5 11.3466C17.5 11.3485 17.5 11.3504 17.5 11.3523C17.5 11.3542 17.5 11.3561 17.5 11.358C17.5 11.3599 17.5 11.3618 17.5 11.3637C17.5 11.3656 17.5 11.3675 17.5 11.3694C17.5 11.3713 17.5 11.3732 17.5 11.3751C17.5 11.377 17.5 11.3789 17.5 11.3808C17.5 11.3827 17.5 11.3846 17.5 11.3864C17.5 11.3883 17.5 11.3902 17.5 11.3921C17.5 11.394 17.5 11.3959 17.5 11.3977C17.5 11.3996 17.5 11.4015 17.5 11.4034C17.5 11.4053 17.5 11.4071 17.5 11.409C17.5 11.4109 17.5 11.4128 17.5 11.4146C17.5 11.4165 17.5 11.4184 17.5 11.4202C17.5 11.4221 17.5 11.424 17.5 11.4258C17.5 11.4277 17.5 11.4296 17.5 11.4314C17.5 11.4333 17.5 11.4352 17.5 11.437C17.5 11.4389 17.5 11.4407 17.5 11.4426C17.5 11.4444 17.5 11.4463 17.5 11.4481C17.5 11.45 17.5 11.4518 17.5 11.4537C17.5 11.4555 17.5 11.4574 17.5 11.4592C17.5 11.4611 17.5 11.4629 17.5 11.4648C17.5 11.4666 17.5 11.4685 17.5 11.4703C17.5 11.4721 17.5 11.474 17.5 11.4758C17.5 11.4776 17.5 11.4795 17.5 11.4813C17.5 11.4831 17.5 11.485 17.5 11.4868C17.5 11.4886 17.5 11.4905 17.5 11.4923C17.5 11.4941 17.5 11.4959 17.5 11.4978C17.5 11.4996 17.5 11.5014 17.5 11.5032C17.5 11.5051 17.5 11.5069 17.5 11.5087C17.5 11.5105 17.5 11.5123 17.5 11.5141C17.5 11.5159 17.5 11.5178 17.5 11.5196C17.5 11.5214 17.5 11.5232 17.5 11.525C17.5 11.5268 17.5 11.5286 17.5 11.5304C17.5 11.5322 17.5 11.534 17.5 11.5358C17.5 11.5376 17.5 11.5394 17.5 11.5412C17.5 11.543 17.5 11.5448 17.5 11.5466C17.5 11.5484 17.5 11.5502 17.5 11.552C17.5 11.5538 17.5 11.5556 17.5 11.5574C17.5 11.5592 17.5 11.5609 17.5 11.5627C17.5 11.5645 17.5 11.5663 17.5 11.5681C17.5 11.5699 17.5 11.5716 17.5 11.5734C17.5 11.5752 17.5 11.577 17.5 11.5787C17.5 11.5805 17.5 11.5823 17.5 11.5841C17.5 11.5858 17.5 11.5876 17.5 11.5894C17.5 11.5912 17.5 11.5929 17.5 11.5947C17.5 11.5965 17.5 11.5982 17.5 11.6C17.5 11.6017 17.5 11.6035 17.5 11.6053C17.5 11.607 17.5 11.6088 17.5 11.6105C17.5 11.6123 17.5 11.614 17.5 11.6158C17.5 11.6176 17.5 11.6193 17.5 11.6211C17.5 11.6228 17.5 11.6246 17.5 11.6263C17.5 11.6281 17.5 11.6298 17.5 11.6315C17.5 11.6333 17.5 11.635 17.5 11.6368C17.5 11.6385 17.5 11.6402 17.5 11.642C17.5 11.6437 17.5 11.6455 17.5 11.6472C17.5 11.6489 17.5 11.6507 17.5 11.6524C17.5 11.6541 17.5 11.6559 17.5 11.6576C17.5 11.6593 17.5 11.661 17.5 11.6628C17.5 11.6645 17.5 11.6662 17.5 11.6679C17.5 11.6696 17.5 11.6714 17.5 11.6731C17.5 11.6748 17.5 11.6765 17.5 11.6782C17.5 11.68 17.5 11.6817 17.5 11.6834C17.5 11.6851 17.5 11.6868 17.5 11.6885C17.5 11.6902 17.5 11.6919 17.5 11.6936C17.5 11.6953 17.5 11.697 17.5 11.6987C17.5 11.7004 17.5 11.7021 17.5 11.7038C17.5 11.7055 17.5 11.7072 17.5 11.7089C17.5 11.7106 17.5 11.7123 17.5 11.714C17.5 11.7157 17.5 11.7174 17.5 11.7191C17.5 11.7208 17.5 11.7225 17.5 11.7242C17.5 11.7258 17.5 11.7275 17.5 11.7292C17.5 11.7309 17.5 11.7326 17.5 11.7343C17.5 11.7359 17.5 11.7376 17.5 11.7393C17.5 11.741 17.5 11.7426 17.5 11.7443C17.5 11.746 17.5 11.7477 17.5 11.7493C17.5 11.751 17.5 11.7527 17.5 11.7543C17.5 11.756 17.5 11.7577 17.5 11.7593C17.5 11.761 17.5 11.7627 17.5 11.7643C17.5 11.766 17.5 11.7676 17.5 11.7693C17.5 11.771 17.5 11.7726 17.5 11.7743C17.5 11.7759 17.5 11.7776 17.5 11.7792C17.5 11.7809 17.5 11.7825 17.5 11.7842C17.5 11.7858 17.5 11.7875 17.5 11.7891C17.5 11.7908 17.5 11.7924 17.5 11.794C17.5 11.7957 17.5 11.7973 17.5 11.799C17.5 11.8006 17.5 11.8022 17.5 11.8039C17.5 11.8055 17.5 11.8071 17.5 11.8088H18.5C18.5 11.8071 18.5 11.8055 18.5 11.8039C18.5 11.8022 18.5 11.8006 18.5 11.799C18.5 11.7973 18.5 11.7957 18.5 11.794C18.5 11.7924 18.5 11.7908 18.5 11.7891C18.5 11.7875 18.5 11.7858 18.5 11.7842C18.5 11.7825 18.5 11.7809 18.5 11.7792C18.5 11.7776 18.5 11.7759 18.5 11.7743C18.5 11.7726 18.5 11.771 18.5 11.7693C18.5 11.7676 18.5 11.766 18.5 11.7643C18.5 11.7627 18.5 11.761 18.5 11.7593C18.5 11.7577 18.5 11.756 18.5 11.7543C18.5 11.7527 18.5 11.751 18.5 11.7493C18.5 11.7477 18.5 11.746 18.5 11.7443C18.5 11.7426 18.5 11.741 18.5 11.7393C18.5 11.7376 18.5 11.7359 18.5 11.7343C18.5 11.7326 18.5 11.7309 18.5 11.7292C18.5 11.7275 18.5 11.7258 18.5 11.7242C18.5 11.7225 18.5 11.7208 18.5 11.7191C18.5 11.7174 18.5 11.7157 18.5 11.714C18.5 11.7123 18.5 11.7106 18.5 11.7089C18.5 11.7072 18.5 11.7055 18.5 11.7038C18.5 11.7021 18.5 11.7004 18.5 11.6987C18.5 11.697 18.5 11.6953 18.5 11.6936C18.5 11.6919 18.5 11.6902 18.5 11.6885C18.5 11.6868 18.5 11.6851 18.5 11.6834C18.5 11.6817 18.5 11.68 18.5 11.6782C18.5 11.6765 18.5 11.6748 18.5 11.6731C18.5 11.6714 18.5 11.6696 18.5 11.6679C18.5 11.6662 18.5 11.6645 18.5 11.6628C18.5 11.661 18.5 11.6593 18.5 11.6576C18.5 11.6559 18.5 11.6541 18.5 11.6524C18.5 11.6507 18.5 11.6489 18.5 11.6472C18.5 11.6455 18.5 11.6437 18.5 11.642C18.5 11.6402 18.5 11.6385 18.5 11.6368C18.5 11.635 18.5 11.6333 18.5 11.6315C18.5 11.6298 18.5 11.6281 18.5 11.6263C18.5 11.6246 18.5 11.6228 18.5 11.6211C18.5 11.6193 18.5 11.6176 18.5 11.6158C18.5 11.614 18.5 11.6123 18.5 11.6105C18.5 11.6088 18.5 11.607 18.5 11.6053C18.5 11.6035 18.5 11.6017 18.5 11.6C18.5 11.5982 18.5 11.5965 18.5 11.5947C18.5 11.5929 18.5 11.5912 18.5 11.5894C18.5 11.5876 18.5 11.5858 18.5 11.5841C18.5 11.5823 18.5 11.5805 18.5 11.5787C18.5 11.577 18.5 11.5752 18.5 11.5734C18.5 11.5716 18.5 11.5699 18.5 11.5681C18.5 11.5663 18.5 11.5645 18.5 11.5627C18.5 11.5609 18.5 11.5592 18.5 11.5574C18.5 11.5556 18.5 11.5538 18.5 11.552C18.5 11.5502 18.5 11.5484 18.5 11.5466C18.5 11.5448 18.5 11.543 18.5 11.5412C18.5 11.5394 18.5 11.5376 18.5 11.5358C18.5 11.534 18.5 11.5322 18.5 11.5304C18.5 11.5286 18.5 11.5268 18.5 11.525C18.5 11.5232 18.5 11.5214 18.5 11.5196C18.5 11.5178 18.5 11.5159 18.5 11.5141C18.5 11.5123 18.5 11.5105 18.5 11.5087C18.5 11.5069 18.5 11.5051 18.5 11.5032C18.5 11.5014 18.5 11.4996 18.5 11.4978C18.5 11.4959 18.5 11.4941 18.5 11.4923C18.5 11.4905 18.5 11.4886 18.5 11.4868C18.5 11.485 18.5 11.4831 18.5 11.4813C18.5 11.4795 18.5 11.4776 18.5 11.4758C18.5 11.474 18.5 11.4721 18.5 11.4703C18.5 11.4685 18.5 11.4666 18.5 11.4648C18.5 11.4629 18.5 11.4611 18.5 11.4592C18.5 11.4574 18.5 11.4555 18.5 11.4537C18.5 11.4518 18.5 11.45 18.5 11.4481C18.5 11.4463 18.5 11.4444 18.5 11.4426C18.5 11.4407 18.5 11.4389 18.5 11.437C18.5 11.4352 18.5 11.4333 18.5 11.4314C18.5 11.4296 18.5 11.4277 18.5 11.4258C18.5 11.424 18.5 11.4221 18.5 11.4202C18.5 11.4184 18.5 11.4165 18.5 11.4146C18.5 11.4128 18.5 11.4109 18.5 11.409C18.5 11.4071 18.5 11.4053 18.5 11.4034C18.5 11.4015 18.5 11.3996 18.5 11.3977C18.5 11.3959 18.5 11.394 18.5 11.3921C18.5 11.3902 18.5 11.3883 18.5 11.3864C18.5 11.3846 18.5 11.3827 18.5 11.3808C18.5 11.3789 18.5 11.377 18.5 11.3751C18.5 11.3732 18.5 11.3713 18.5 11.3694C18.5 11.3675 18.5 11.3656 18.5 11.3637C18.5 11.3618 18.5 11.3599 18.5 11.358C18.5 11.3561 18.5 11.3542 18.5 11.3523C18.5 11.3504 18.5 11.3485 18.5 11.3466C18.5 11.3447 18.5 11.3428 18.5 11.3408C18.5 11.3389 18.5 11.337 18.5 11.3351C18.5 11.3332 18.5 11.3313 18.5 11.3293C18.5 11.3274 18.5 11.3255 18.5 11.3236C18.5 11.3217 18.5 11.3197 18.5 11.3178C18.5 11.3159 18.5 11.314 18.5 11.312C18.5 11.3101 18.5 11.3082 18.5 11.3062C18.5 11.3043 18.5 11.3024 18.5 11.3004C18.5 11.2985 18.5 11.2966 18.5 11.2946C18.5 11.2927 18.5 11.2908 18.5 11.2888C18.5 11.2869 18.5 11.2849 18.5 11.283C18.5 11.281 18.5 11.2791 18.5 11.2771C18.5 11.2752 18.5 11.2732 18.5 11.2713C18.5 11.2693 18.5 11.2674 18.5 11.2654C18.5 11.2635 18.5 11.2615 18.5 11.2596C18.5 11.2576 18.5 11.2557 18.5 11.2537C18.5 11.2517 18.5 11.2498 18.5 11.2478C18.5 11.2458 18.5 11.2439 18.5 11.2419C18.5 11.2399 18.5 11.238 18.5 11.236C18.5 11.234 18.5 11.2321 18.5 11.2301C18.5 11.2281 18.5 11.2261 18.5 11.2242C18.5 11.2222 18.5 11.2202 18.5 11.2182C18.5 11.2162 18.5 11.2143 18.5 11.2123C18.5 11.2103 18.5 11.2083 18.5 11.2063C18.5 11.2043 18.5 11.2024 18.5 11.2004C18.5 11.1984 18.5 11.1964 18.5 11.1944C18.5 11.1924 18.5 11.1904 18.5 11.1884C18.5 11.1864 18.5 11.1844 18.5 11.1824C18.5 11.1804 18.5 11.1784 18.5 11.1764C18.5 11.1744 18.5 11.1724 18.5 11.1704C18.5 11.1684 18.5 11.1664 18.5 11.1644C18.5 11.1624 18.5 11.1604 18.5 11.1584C18.5 11.1563 18.5 11.1543 18.5 11.1523C18.5 11.1503 18.5 11.1483 18.5 11.1463C18.5 11.1443 18.5 11.1422 18.5 11.1402C18.5 11.1382 18.5 11.1362 18.5 11.1341C18.5 11.1321 18.5 11.1301 18.5 11.1281C18.5 11.126 18.5 11.124 18.5 11.122C18.5 11.1199 18.5 11.1179 18.5 11.1159C18.5 11.1138 18.5 11.1118 18.5 11.1098C18.5 11.1077 18.5 11.1057 18.5 11.1037C18.5 11.1016 18.5 11.0996 18.5 11.0975C18.5 11.0955 18.5 11.0934 18.5 11.0914C18.5 11.0894 18.5 11.0873 18.5 11.0853C18.5 11.0832 18.5 11.0812 18.5 11.0791C18.5 11.077 18.5 11.075 18.5 11.0729C18.5 11.0709 18.5 11.0688 18.5 11.0668C18.5 11.0647 18.5 11.0626 18.5 11.0606C18.5 11.0585 18.5 11.0565 18.5 11.0544C18.5 11.0523 18.5 11.0503 18.5 11.0482C18.5 11.0461 18.5 11.044 18.5 11.042C18.5 11.0399 18.5 11.0378 18.5 11.0358C18.5 11.0337 18.5 11.0316 18.5 11.0295C18.5 11.0274 18.5 11.0254 18.5 11.0233C18.5 11.0212 18.5 11.0191 18.5 11.017C18.5 11.0149 18.5 11.0129 18.5 11.0108C18.5 11.0087 18.5 11.0066 18.5 11.0045C18.5 11.0024 18.5 11.0003 18.5 10.9982C18.5 10.9961 18.5 10.994 18.5 10.9919C18.5 10.9898 18.5 10.9877 18.5 10.9856C18.5 10.9835 18.5 10.9814 18.5 10.9793C18.5 10.9772 18.5 10.9751 18.5 10.973C18.5 10.9709 18.5 10.9688 18.5 10.9667C18.5 10.9646 18.5 10.9625 18.5 10.9604C18.5 10.9582 18.5 10.9561 18.5 10.954C18.5 10.9519 18.5 10.9498 18.5 10.9476C18.5 10.9455 18.5 10.9434 18.5 10.9413C18.5 10.9392 18.5 10.937 18.5 10.9349C18.5 10.9328 18.5 10.9307 18.5 10.9285C18.5 10.9264 18.5 10.9243 18.5 10.9221C18.5 10.92 18.5 10.9179 18.5 10.9157C18.5 10.9136 18.5 10.9115 18.5 10.9093C18.5 10.9072 18.5 10.905 18.5 10.9029C18.5 10.9008 18.5 10.8986 18.5 10.8965C18.5 10.8943 18.5 10.8922 18.5 10.89C18.5 10.8879 18.5 10.8857 18.5 10.8836C18.5 10.8814 18.5 10.8793 18.5 10.8771C18.5 10.875 18.5 10.8728 18.5 10.8706C18.5 10.8685 18.5 10.8663 18.5 10.8642C18.5 10.862 18.5 10.8598 18.5 10.8577C18.5 10.8555 18.5 10.8533 18.5 10.8512C18.5 10.849 18.5 10.8468 18.5 10.8447C18.5 10.8425 18.5 10.8403 18.5 10.8381C18.5 10.836 18.5 10.8338 18.5 10.8316C18.5 10.8294 18.5 10.8273 18.5 10.8251C18.5 10.8229 18.5 10.8207 18.5 10.8185C18.5 10.8164 18.5 10.8142 18.5 10.812C18.5 10.8098 18.5 10.8076 18.5 10.8054C18.5 10.8032 18.5 10.801 18.5 10.7988C18.5 10.7966 18.5 10.7945 18.5 10.7923C18.5 10.7901 18.5 10.7879 18.5 10.7857C18.5 10.7835 18.5 10.7813 18.5 10.7791C18.5 10.7769 18.5 10.7747 18.5 10.7724C18.5 10.7702 18.5 10.768 18.5 10.7658C18.5 10.7636 18.5 10.7614 18.5 10.7592C18.5 10.757 18.5 10.7548 18.5 10.7525C18.5 10.7503 18.5 10.7481 18.5 10.7459C18.5 10.7437 18.5 10.7415 18.5 10.7392C18.5 10.737 18.5 10.7348 18.5 10.7326C18.5 10.7303 18.5 10.7281 18.5 10.7259C18.5 10.7237 18.5 10.7214 18.5 10.7192C18.5 10.717 18.5 10.7147 18.5 10.7125C18.5 10.7103 18.5 10.708 18.5 10.7058C18.5 10.7035 18.5 10.7013 18.5 10.6991C18.5 10.6968 18.5 10.6946 18.5 10.6923C18.5 10.6901 18.5 10.6878 18.5 10.6856C18.5 10.6834 18.5 10.6811 18.5 10.6789C18.5 10.6766 18.5 10.6743 18.5 10.6721C18.5 10.6698 18.5 10.6676 18.5 10.6653C18.5 10.6631 18.5 10.6608 18.5 10.6586C18.5 10.6563 18.5 10.654 18.5 10.6518C18.5 10.6495 18.5 10.6472 18.5 10.645C18.5 10.6427 18.5 10.6404 18.5 10.6382C18.5 10.6359 18.5 10.6336 18.5 10.6314C18.5 10.6291 18.5 10.6268 18.5 10.6245C18.5 10.6223 18.5 10.62 18.5 10.6177C18.5 10.6154 18.5 10.6131 18.5 10.6109C18.5 10.6086 18.5 10.6063 18.5 10.604C18.5 10.6017 18.5 10.5994 18.5 10.5971C18.5 10.5949 18.5 10.5926 18.5 10.5903C18.5 10.588 18.5 10.5857 18.5 10.5834C18.5 10.5811 18.5 10.5788 18.5 10.5765C18.5 10.5742 18.5 10.5719 18.5 10.5696C18.5 10.5673 18.5 10.565 18.5 10.5627C18.5 10.5604 18.5 10.5581 18.5 10.5558C18.5 10.5535 18.5 10.5511 18.5 10.5488C18.5 10.5465 18.5 10.5442 18.5 10.5419C18.5 10.5396 18.5 10.5373 18.5 10.535C18.5 10.5326 18.5 10.5303 18.5 10.528C18.5 10.5257 18.5 10.5233 18.5 10.521C18.5 10.5187 18.5 10.5164 18.5 10.514C18.5 10.5117 18.5 10.5094 18.5 10.5071C18.5 10.5047 18.5 10.5024 18.5 10.5001C18.5 10.4977 18.5 10.4954 18.5 10.4931C18.5 10.4907 18.5 10.4884 18.5 10.486C18.5 10.4837 18.5 10.4814 18.5 10.479C18.5 10.4767 18.5 10.4743 18.5 10.472C18.5 10.4696 18.5 10.4673 18.5 10.4649C18.5 10.4626 18.5 10.4602 18.5 10.4579C18.5 10.4555 18.5 10.4532 18.5 10.4508C18.5 10.4485 18.5 10.4461 18.5 10.4438C18.5 10.4414 18.5 10.439 18.5 10.4367C18.5 10.4343 18.5 10.4319 18.5 10.4296C18.5 10.4272 18.5 10.4248 18.5 10.4225C18.5 10.4201 18.5 10.4177 18.5 10.4154C18.5 10.413 18.5 10.4106 18.5 10.4082C18.5 10.4059 18.5 10.4035 18.5 10.4011C18.5 10.3987 18.5 10.3964 18.5 10.394C18.5 10.3916 18.5 10.3892 18.5 10.3868C18.5 10.3844 18.5 10.3821 18.5 10.3797C18.5 10.3773 18.5 10.3749 18.5 10.3725C18.5 10.3701 18.5 10.3677 18.5 10.3653C18.5 10.3629 18.5 10.3605 18.5 10.3581C18.5 10.3557 18.5 10.3533 18.5 10.3509C18.5 10.3485 18.5 10.3461 18.5 10.3437C18.5 10.3413 18.5 10.3389 18.5 10.3365C18.5 10.3341 18.5 10.3317 18.5 10.3293C18.5 10.3269 18.5 10.3245 18.5 10.3221C18.5 10.3196 18.5 10.3172 18.5 10.3148C18.5 10.3124 18.5 10.31 18.5 10.3076C18.5 10.3051 18.5 10.3027 18.5 10.3003C18.5 10.2979 18.5 10.2954 18.5 10.293C18.5 10.2906 18.5 10.2882 18.5 10.2857C18.5 10.2833 18.5 10.2809 18.5 10.2784C18.5 10.276 18.5 10.2736 18.5 10.2711C18.5 10.2687 18.5 10.2663 18.5 10.2638C18.5 10.2614 18.5 10.259 18.5 10.2565C18.5 10.2541 18.5 10.2516 18.5 10.2492C18.5 10.2467 18.5 10.2443 18.5 10.2418C18.5 10.2394 18.5 10.2369 18.5 10.2345C18.5 10.232 18.5 10.2296 18.5 10.2271C18.5 10.2247 18.5 10.2222 18.5 10.2198C18.5 10.2173 18.5 10.2148 18.5 10.2124C18.5 10.2099 18.5 10.2075 18.5 10.205C18.5 10.2025 18.5 10.2001 18.5 10.1976C18.5 10.1951 18.5 10.1927 18.5 10.1902C18.5 10.1877 18.5 10.1853 18.5 10.1828C18.5 10.1803 18.5 10.1778 18.5 10.1754C18.5 10.1729 18.5 10.1704 18.5 10.1679C18.5 10.1654 18.5 10.163 18.5 10.1605C18.5 10.158 18.5 10.1555 18.5 10.153C18.5 10.1505 18.5 10.148 18.5 10.1455C18.5 10.1431 18.5 10.1406 18.5 10.1381C18.5 10.1356 18.5 10.1331 18.5 10.1306C18.5 10.1281 18.5 10.1256 18.5 10.1231C18.5 10.1206 18.5 10.1181 18.5 10.1156C18.5 10.1131 18.5 10.1106 18.5 10.1081C18.5 10.1056 18.5 10.1031 18.5 10.1006C18.5 10.0981 18.5 10.0955 18.5 10.093C18.5 10.0905 18.5 10.088 18.5 10.0855C18.5 10.083 18.5 10.0805 18.5 10.0779C18.5 10.0754 18.5 10.0729 18.5 10.0704C18.5 10.0679 18.5 10.0653 18.5 10.0628C18.5 10.0603 18.5 10.0578 18.5 10.0552C18.5 10.0527 18.5 10.0502 18.5 10.0476C18.5 10.0451 18.5 10.0426 18.5 10.04C18.5 10.0375 18.5 10.035 18.5 10.0324C18.5 10.0299 18.5 10.0274 18.5 10.0248C18.5 10.0223 18.5 10.0197 18.5 10.0172C18.5 10.0146 18.5 10.0121 18.5 10.0096C18.5 10.007 18.5 10.0045 18.5 10.0019C18.5 9.99935 18.5 9.9968 18.5 9.99425C18.5 9.9917 18.5 9.98914 18.5 9.98658C18.5 9.98403 18.5 9.98147 18.5 9.97891C18.5 9.97635 18.5 9.97379 18.5 9.97122C18.5 9.96866 18.5 9.9661 18.5 9.96353C18.5 9.96096 18.5 9.9584 18.5 9.95583C18.5 9.95326 18.5 9.95069 18.5 9.94811C18.5 9.94554 18.5 9.94297 18.5 9.94039C18.5 9.93781 18.5 9.93524 18.5 9.93266C18.5 9.93008 18.5 9.9275 18.5 9.92492C18.5 9.92233 18.5 9.91975 18.5 9.91716C18.5 9.91458 18.5 9.91199 18.5 9.9094C18.5 9.90681 18.5 9.90422 18.5 9.90163C18.5 9.89904 18.5 9.89645 18.5 9.89385C18.5 9.89126 18.5 9.88866 18.5 9.88606C18.5 9.88346 18.5 9.88087 18.5 9.87826C18.5 9.87566 18.5 9.87306 18.5 9.87045C18.5 9.86785 18.5 9.86524 18.5 9.86264C18.5 9.86003 18.5 9.85742 18.5 9.85481C18.5 9.8522 18.5 9.84958 18.5 9.84697C18.5 9.84436 18.5 9.84174 18.5 9.83912C18.5 9.83651 18.5 9.83389 18.5 9.83127C18.5 9.82865 18.5 9.82602 18.5 9.8234C18.5 9.82078 18.5 9.81815 18.5 9.81552C18.5 9.8129 18.5 9.81027 18.5 9.80764C18.5 9.80501 18.5 9.80238 18.5 9.79974C18.5 9.79711 18.5 9.79448 18.5 9.79184C18.5 9.7892 18.5 9.78656 18.5 9.78393C18.5 9.78129 18.5 9.77864 18.5 9.776C18.5 9.77336 18.5 9.77071 18.5 9.76807C18.5 9.76542 18.5 9.76278 18.5 9.76013C18.5 9.75748 18.5 9.75483 18.5 9.75217C18.5 9.74952 18.5 9.74687 18.5 9.74421C18.5 9.74156 18.5 9.7389 18.5 9.73624C18.5 9.73358 18.5 9.73092 18.5 9.72826C18.5 9.7256 18.5 9.72293 18.5 9.72027C18.5 9.7176 18.5 9.71494 18.5 9.71227C18.5 9.7096 18.5 9.70693 18.5 9.70426C18.5 9.70159 18.5 9.69891 18.5 9.69624C18.5 9.69356 18.5 9.69089 18.5 9.68821C18.5 9.68553 18.5 9.68285 18.5 9.68017C18.5 9.67749 18.5 9.67481 18.5 9.67212C18.5 9.66944 18.5 9.66675 18.5 9.66407C18.5 9.66138 18.5 9.65869 18.5 9.656C18.5 9.65331 18.5 9.65062 18.5 9.64792C18.5 9.64523 18.5 9.64253 18.5 9.63984C18.5 9.63714 18.5 9.63444 18.5 9.63174C18.5 9.62904 18.5 9.62634 18.5 9.62364C18.5 9.62093 18.5 9.61823 18.5 9.61552C18.5 9.61281 18.5 9.61011 18.5 9.6074C18.5 9.60469 18.5 9.60198 18.5 9.59926C18.5 9.59655 18.5 9.59383 18.5 9.59112C18.5 9.5884 18.5 9.58568 18.5 9.58296C18.5 9.58025 18.5 9.57753 18.5 9.5748C18.5 9.57208 18.5 9.56936 18.5 9.56663C18.5 9.5639 18.5 9.56118 18.5 9.55845C18.5 9.55572 18.5 9.55299 18.5 9.55026C18.5 9.54752 18.5 9.54479 18.5 9.54206C18.5 9.53932 18.5 9.53658 18.5 9.53384C18.5 9.53111 18.5 9.52837 18.5 9.52563C18.5 9.52288 18.5 9.52014 18.5 9.5174C18.5 9.51465 18.5 9.5119 18.5 9.50916C18.5 9.50641 18.5 9.50366 18.5 9.50091C18.5 9.49816 18.5 9.4954 18.5 9.49265C18.5 9.48989 18.5 9.48714 18.5 9.48438C18.5 9.48162 18.5 9.47886 18.5 9.4761C18.5 9.47334 18.5 9.47058 18.5 9.46782C18.5 9.46505 18.5 9.46229 18.5 9.45952C18.5 9.45675 18.5 9.45398 18.5 9.45121C18.5 9.44844 18.5 9.44567 18.5 9.4429C18.5 9.44012 18.5 9.43735 18.5 9.43457C18.5 9.4318 18.5 9.42902 18.5 9.42624C18.5 9.42346 18.5 9.42068 18.5 9.41789C18.5 9.41511 18.5 9.41233 18.5 9.40954C18.5 9.40675 18.5 9.40396 18.5 9.40118C18.5 9.39839 18.5 9.3956 18.5 9.3928C18.5 9.39001 18.5 9.38722 18.5 9.38442C18.5 9.38162 18.5 9.37883 18.5 9.37603C18.5 9.37323 18.5 9.37043 18.5 9.36763C18.5 9.36482 18.5 9.36202 18.5 9.35921C18.5 9.35641 18.5 9.3536 18.5 9.35079C18.5 9.34798 18.5 9.34517 18.5 9.34236C18.5 9.33955 18.5 9.33674 18.5 9.33392C18.5 9.33111 18.5 9.32829 18.5 9.32547C18.5 9.32265 18.5 9.31984 18.5 9.31701C18.5 9.31419 18.5 9.31137 18.5 9.30855C18.5 9.30572 18.5 9.30289 18.5 9.30007C18.5 9.29724 18.5 9.29441 18.5 9.29158C18.5 9.28875 18.5 9.28592 18.5 9.28308C18.5 9.28025 18.5 9.27741 18.5 9.27457C18.5 9.27174 18.5 9.2689 18.5 9.26606C18.5 9.26322 18.5 9.26038 18.5 9.25753C18.5 9.25469 18.5 9.25184 18.5 9.249C18.5 9.24615 18.5 9.2433 18.5 9.24045C18.5 9.2376 18.5 9.23475 18.5 9.2319C18.5 9.22904 18.5 9.22619 18.5 9.22333C18.5 9.22048 18.5 9.21762 18.5 9.21476C18.5 9.2119 18.5 9.20904 18.5 9.20617C18.5 9.20331 18.5 9.20045 18.5 9.19758C18.5 9.19471 18.5 9.19185 18.5 9.18898C18.5 9.18611 18.5 9.18324 18.5 9.18037C18.5 9.17749 18.5 9.17462 18.5 9.17174C18.5 9.16887 18.5 9.16599 18.5 9.16311C18.5 9.16023 18.5 9.15735 18.5 9.15447C18.5 9.15159 18.5 9.14871 18.5 9.14582C18.5 9.14294 18.5 9.14005 18.5 9.13716C18.5 9.13427 18.5 9.13138 18.5 9.12849C18.5 9.1256 18.5 9.12271 18.5 9.11981C18.5 9.11692 18.5 9.11402 18.5 9.11112C18.5 9.10823 18.5 9.10533 18.5 9.10243C18.5 9.09952 18.5 9.09662 18.5 9.09372C18.5 9.09081 18.5 9.08791 18.5 9.085C18.5 9.08209 18.5 9.07918 18.5 9.07627C18.5 9.07336 18.5 9.07045 18.5 9.06754C18.5 9.06462 18.5 9.06171 18.5 9.05879C18.5 9.05587 18.5 9.05295 18.5 9.05003C18.5 9.04711 18.5 9.04419 18.5 9.04127C18.5 9.03835 18.5 9.03542 18.5 9.03249C18.5 9.02957 18.5 9.02664 18.5 9.02371C18.5 9.02078 18.5 9.01785 18.5 9.01492C18.5 9.01198 18.5 9.00905 18.5 9.00611C18.5 9.00318 18.5 9.00024 18.5 8.9973C18.5 8.99436 18.5 8.99142 18.5 8.98848C18.5 8.98553 18.5 8.98259 18.5 8.97964C18.5 8.9767 18.5 8.97375 18.5 8.9708C18.5 8.96785 18.5 8.9649 18.5 8.96195C18.5 8.959 18.5 8.95605 18.5 8.95309C18.5 8.95014 18.5 8.94718 18.5 8.94422C18.5 8.94126 18.5 8.9383 18.5 8.93534C18.5 8.93238 18.5 8.92942 18.5 8.92645C18.5 8.92349 18.5 8.92052 18.5 8.91755C18.5 8.91458 18.5 8.91161 18.5 8.90864C18.5 8.90567 18.5 8.9027 18.5 8.89972C18.5 8.89675 18.5 8.89377 18.5 8.8908C18.5 8.88782 18.5 8.88484 18.5 8.88186C18.5 8.87888 18.5 8.8759 18.5 8.87291C18.5 8.86993 18.5 8.86694 18.5 8.86396C18.5 8.86097 18.5 8.85798 18.5 8.85499C18.5 8.852 18.5 8.84901 18.5 8.84601C18.5 8.84302 18.5 8.84002 18.5 8.83703C18.5 8.83403 18.5 8.83103 18.5 8.82803C18.5 8.82503 18.5 8.82203 18.5 8.81903C18.5 8.81603 18.5 8.81302 18.5 8.81002C18.5 8.80701 18.5 8.804 18.5 8.80099C18.5 8.79798 18.5 8.79497 18.5 8.79196C18.5 8.78895 18.5 8.78593 18.5 8.78292C18.5 8.7799 18.5 8.77688 18.5 8.77386C18.5 8.77084 18.5 8.76782 18.5 8.7648C18.5 8.76178 18.5 8.75876 18.5 8.75573C18.5 8.75271 18.5 8.74968 18.5 8.74665C18.5 8.74362 18.5 8.74059 18.5 8.73756C18.5 8.73453 18.5 8.73149 18.5 8.72846C18.5 8.72542 18.5 8.72239 18.5 8.71935C18.5 8.71631 18.5 8.71327 18.5 8.71023C18.5 8.70719 18.5 8.70415 18.5 8.7011C18.5 8.69806 18.5 8.69501 18.5 8.69196C18.5 8.68892 18.5 8.68587 18.5 8.68282C18.5 8.67977 18.5 8.67671 18.5 8.67366C18.5 8.6706 18.5 8.66755 18.5 8.66449C18.5 8.66143 18.5 8.65838 18.5 8.65532C18.5 8.65226 18.5 8.64919 18.5 8.64613C18.5 8.64307 18.5 8.64 18.5 8.63693C18.5 8.63387 18.5 8.6308 18.5 8.62773C18.5 8.62466 18.5 8.62159 18.5 8.61851C18.5 8.61544 18.5 8.61237 18.5 8.60929C18.5 8.60621 18.5 8.60314 18.5 8.60006C18.5 8.59698 18.5 8.59389 18.5 8.59081C18.5 8.58773 18.5 8.58465 18.5 8.58156C18.5 8.57847 18.5 8.57539 18.5 8.5723C18.5 8.56921 18.5 8.56612 18.5 8.56302C18.5 8.55993 18.5 8.55684 18.5 8.55374C18.5 8.55065 18.5 8.54755 18.5 8.54445C18.5 8.54135 18.5 8.53825 18.5 8.53515C18.5 8.53205 18.5 8.52895 18.5 8.52584C18.5 8.52274 18.5 8.51963 18.5 8.51652C18.5 8.51341 18.5 8.5103 18.5 8.50719C18.5 8.50408 18.5 8.50097 18.5 8.49785C18.5 8.49474 18.5 8.49162 18.5 8.4885C18.5 8.48538 18.5 8.48227 18.5 8.47914C18.5 8.47602 18.5 8.4729 18.5 8.46978C18.5 8.46665 18.5 8.46353 18.5 8.4604C18.5 8.45727 18.5 8.45414 18.5 8.45101C18.5 8.44788 18.5 8.44475 18.5 8.44162C18.5 8.43848 18.5 8.43535 18.5 8.43221C18.5 8.42907 18.5 8.42593 18.5 8.42279C18.5 8.41965 18.5 8.41651 18.5 8.41337C18.5 8.41023 18.5 8.40708 18.5 8.40393C18.5 8.40079 18.5 8.39764 18.5 8.39449C18.5 8.39134 18.5 8.38819 18.5 8.38504C18.5 8.38188 18.5 8.37873 18.5 8.37557C18.5 8.37242 18.5 8.36926 18.5 8.3661C18.5 8.36294 18.5 8.35978 18.5 8.35662C18.5 8.35346 18.5 8.35029 18.5 8.34713C18.5 8.34396 18.5 8.34079 18.5 8.33762C18.5 8.33446 18.5 8.33128 18.5 8.32811C18.5 8.32494 18.5 8.32177 18.5 8.31859C18.5 8.31542 18.5 8.31224 18.5 8.30906C18.5 8.30588 18.5 8.3027 18.5 8.29952C18.5 8.29634 18.5 8.29316 18.5 8.28997C18.5 8.28679 18.5 8.2836 18.5 8.28041C18.5 8.27723 18.5 8.27404 18.5 8.27084C18.5 8.26765 18.5 8.26446 18.5 8.26127C18.5 8.25807 18.5 8.25488 18.5 8.25168C18.5 8.24848 18.5 8.24528 18.5 8.24208C18.5 8.23888 18.5 8.23568 18.5 8.23247C18.5 8.22927 18.5 8.22606 18.5 8.22286C18.5 8.21965 18.5 8.21644 18.5 8.21323C18.5 8.21002 18.5 8.20681 18.5 8.2036C18.5 8.20038 18.5 8.19717 18.5 8.19395C18.5 8.19073 18.5 8.18752 18.5 8.1843C18.5 8.18108 18.5 8.17786 18.5 8.17463C18.5 8.17141 18.5 8.16818 18.5 8.16496C18.5 8.16173 18.5 8.1585 18.5 8.15527C18.5 8.15205 18.5 8.14881 18.5 8.14558C18.5 8.14235 18.5 8.13911 18.5 8.13588C18.5 8.13264 18.5 8.12941 18.5 8.12617C18.5 8.12293 18.5 8.11969 18.5 8.11645C18.5 8.1132 18.5 8.10996 18.5 8.10671C18.5 8.10347 18.5 8.10022 18.5 8.09697C18.5 8.09373 18.5 8.09048 18.5 8.08722C18.5 8.08397 18.5 8.08072 18.5 8.07746C18.5 8.07421 18.5 8.07095 18.5 8.06769C18.5 8.06444 18.5 8.06118 18.5 8.05791C18.5 8.05465 18.5 8.05139 18.5 8.04813H17.5ZM10.8863 16.5481C10.8833 16.5481 10.8803 16.5481 10.8772 16.5481C10.8742 16.5481 10.8712 16.5481 10.8681 16.5481C10.8651 16.5481 10.8621 16.5481 10.859 16.5481C10.856 16.5481 10.8529 16.5481 10.8499 16.5481C10.8468 16.5481 10.8438 16.5481 10.8407 16.5481C10.8377 16.5481 10.8346 16.5481 10.8316 16.5481C10.8285 16.5481 10.8255 16.5481 10.8224 16.5481C10.8193 16.5481 10.8163 16.5481 10.8132 16.5481C10.8101 16.5481 10.807 16.5481 10.804 16.5481C10.8009 16.5481 10.7978 16.5481 10.7947 16.5481C10.7916 16.5481 10.7886 16.5481 10.7855 16.5481C10.7824 16.5481 10.7793 16.5481 10.7762 16.5481C10.7731 16.5481 10.77 16.5481 10.7669 16.5481C10.7638 16.5481 10.7607 16.5481 10.7576 16.5481C10.7545 16.5481 10.7514 16.5481 10.7483 16.5481C10.7451 16.5481 10.742 16.5481 10.7389 16.5481C10.7358 16.5481 10.7327 16.5481 10.7295 16.5481C10.7264 16.5481 10.7233 16.5481 10.7202 16.5481C10.717 16.5481 10.7139 16.5481 10.7108 16.5481C10.7076 16.5481 10.7045 16.5481 10.7013 16.5481C10.6982 16.5481 10.6951 16.5481 10.6919 16.5481C10.6888 16.5481 10.6856 16.5481 10.6825 16.5481C10.6793 16.5481 10.6762 16.5481 10.673 16.5481C10.6698 16.5481 10.6667 16.5481 10.6635 16.5481C10.6603 16.5481 10.6572 16.5481 10.654 16.5481C10.6508 16.5481 10.6477 16.5481 10.6445 16.5481C10.6413 16.5481 10.6381 16.5481 10.6349 16.5481C10.6318 16.5481 10.6286 16.5481 10.6254 16.5481C10.6222 16.5481 10.619 16.5481 10.6158 16.5481C10.6126 16.5481 10.6094 16.5481 10.6062 16.5481C10.603 16.5481 10.5998 16.5481 10.5966 16.5481C10.5934 16.5481 10.5902 16.5481 10.587 16.5481C10.5838 16.5481 10.5805 16.5481 10.5773 16.5481C10.5741 16.5481 10.5709 16.5481 10.5677 16.5481C10.5644 16.5481 10.5612 16.5481 10.558 16.5481C10.5547 16.5481 10.5515 16.5481 10.5483 16.5481C10.545 16.5481 10.5418 16.5481 10.5386 16.5481C10.5353 16.5481 10.5321 16.5481 10.5288 16.5481C10.5256 16.5481 10.5223 16.5481 10.5191 16.5481C10.5158 16.5481 10.5126 16.5481 10.5093 16.5481C10.506 16.5481 10.5028 16.5481 10.4995 16.5481C10.4962 16.5481 10.493 16.5481 10.4897 16.5481C10.4864 16.5481 10.4831 16.5481 10.4799 16.5481C10.4766 16.5481 10.4733 16.5481 10.47 16.5481C10.4667 16.5481 10.4635 16.5481 10.4602 16.5481C10.4569 16.5481 10.4536 16.5481 10.4503 16.5481C10.447 16.5481 10.4437 16.5481 10.4404 16.5481C10.4371 16.5481 10.4338 16.5481 10.4305 16.5481C10.4272 16.5481 10.4239 16.5481 10.4206 16.5481C10.4172 16.5481 10.4139 16.5481 10.4106 16.5481C10.4073 16.5481 10.404 16.5481 10.4006 16.5481C10.3973 16.5481 10.394 16.5481 10.3907 16.5481C10.3873 16.5481 10.384 16.5481 10.3807 16.5481C10.3773 16.5481 10.374 16.5481 10.3706 16.5481C10.3673 16.5481 10.3639 16.5481 10.3606 16.5481C10.3572 16.5481 10.3539 16.5481 10.3505 16.5481C10.3472 16.5481 10.3438 16.5481 10.3405 16.5481C10.3371 16.5481 10.3337 16.5481 10.3304 16.5481C10.327 16.5481 10.3236 16.5481 10.3203 16.5481C10.3169 16.5481 10.3135 16.5481 10.3101 16.5481C10.3068 16.5481 10.3034 16.5481 10.3 16.5481C10.2966 16.5481 10.2932 16.5481 10.2898 16.5481C10.2865 16.5481 10.2831 16.5481 10.2797 16.5481C10.2763 16.5481 10.2729 16.5481 10.2695 16.5481C10.2661 16.5481 10.2627 16.5481 10.2593 16.5481C10.2558 16.5481 10.2524 16.5481 10.249 16.5481C10.2456 16.5481 10.2422 16.5481 10.2388 16.5481C10.2354 16.5481 10.2319 16.5481 10.2285 16.5481C10.2251 16.5481 10.2216 16.5481 10.2182 16.5481C10.2148 16.5481 10.2114 16.5481 10.2079 16.5481C10.2045 16.5481 10.201 16.5481 10.1976 16.5481C10.1942 16.5481 10.1907 16.5481 10.1873 16.5481C10.1838 16.5481 10.1804 16.5481 10.1769 16.5481C10.1734 16.5481 10.17 16.5481 10.1665 16.5481C10.1631 16.5481 10.1596 16.5481 10.1561 16.5481C10.1527 16.5481 10.1492 16.5481 10.1457 16.5481C10.1423 16.5481 10.1388 16.5481 10.1353 16.5481C10.1318 16.5481 10.1283 16.5481 10.1249 16.5481C10.1214 16.5481 10.1179 16.5481 10.1144 16.5481C10.1109 16.5481 10.1074 16.5481 10.1039 16.5481C10.1004 16.5481 10.0969 16.5481 10.0934 16.5481C10.0899 16.5481 10.0864 16.5481 10.0829 16.5481C10.0794 16.5481 10.0759 16.5481 10.0724 16.5481C10.0689 16.5481 10.0653 16.5481 10.0618 16.5481C10.0583 16.5481 10.0548 16.5481 10.0512 16.5481C10.0477 16.5481 10.0442 16.5481 10.0407 16.5481C10.0371 16.5481 10.0336 16.5481 10.0301 16.5481C10.0265 16.5481 10.023 16.5481 10.0194 16.5481C10.0159 16.5481 10.0123 16.5481 10.0088 16.5481C10.0052 16.5481 10.0017 16.5481 9.99814 16.5481C9.99458 16.5481 9.99103 16.5481 9.98746 16.5481C9.9839 16.5481 9.98034 16.5481 9.97677 16.5481C9.97321 16.5481 9.96964 16.5481 9.96606 16.5481C9.96249 16.5481 9.95891 16.5481 9.95533 16.5481C9.95176 16.5481 9.94817 16.5481 9.94459 16.5481C9.941 16.5481 9.93742 16.5481 9.93383 16.5481C9.93023 16.5481 9.92664 16.5481 9.92304 16.5481C9.91945 16.5481 9.91585 16.5481 9.91224 16.5481C9.90864 16.5481 9.90504 16.5481 9.90143 16.5481C9.89782 16.5481 9.89421 16.5481 9.89059 16.5481C9.88698 16.5481 9.88336 16.5481 9.87974 16.5481C9.87612 16.5481 9.8725 16.5481 9.86887 16.5481C9.86525 16.5481 9.86162 16.5481 9.85799 16.5481C9.85435 16.5481 9.85072 16.5481 9.84708 16.5481C9.84344 16.5481 9.8398 16.5481 9.83616 16.5481C9.83251 16.5481 9.82887 16.5481 9.82522 16.5481C9.82157 16.5481 9.81791 16.5481 9.81426 16.5481C9.8106 16.5481 9.80694 16.5481 9.80328 16.5481C9.79962 16.5481 9.79596 16.5481 9.79229 16.5481C9.78862 16.5481 9.78495 16.5481 9.78128 16.5481C9.7776 16.5481 9.77393 16.5481 9.77025 16.5481C9.76657 16.5481 9.76289 16.5481 9.7592 16.5481C9.75552 16.5481 9.75183 16.5481 9.74814 16.5481C9.74444 16.5481 9.74075 16.5481 9.73705 16.5481C9.73336 16.5481 9.72966 16.5481 9.72595 16.5481C9.72225 16.5481 9.71854 16.5481 9.71484 16.5481C9.71113 16.5481 9.70742 16.5481 9.7037 16.5481C9.69999 16.5481 9.69627 16.5481 9.69255 16.5481C9.68883 16.5481 9.6851 16.5481 9.68138 16.5481C9.67765 16.5481 9.67392 16.5481 9.67019 16.5481C9.66646 16.5481 9.66272 16.5481 9.65898 16.5481C9.65524 16.5481 9.6515 16.5481 9.64776 16.5481C9.64401 16.5481 9.64027 16.5481 9.63652 16.5481C9.63277 16.5481 9.62901 16.5481 9.62526 16.5481C9.6215 16.5481 9.61774 16.5481 9.61398 16.5481C9.61022 16.5481 9.60645 16.5481 9.60268 16.5481C9.59892 16.5481 9.59515 16.5481 9.59137 16.5481C9.5876 16.5481 9.58382 16.5481 9.58004 16.5481C9.57626 16.5481 9.57248 16.5481 9.56869 16.5481C9.56491 16.5481 9.56112 16.5481 9.55733 16.5481C9.55354 16.5481 9.54974 16.5481 9.54594 16.5481C9.54215 16.5481 9.53835 16.5481 9.53454 16.5481C9.53074 16.5481 9.52693 16.5481 9.52312 16.5481C9.51931 16.5481 9.5155 16.5481 9.51169 16.5481C9.50787 16.5481 9.50405 16.5481 9.50023 16.5481C9.49641 16.5481 9.49259 16.5481 9.48876 16.5481C9.48493 16.5481 9.4811 16.5481 9.47727 16.5481C9.47344 16.5481 9.4696 16.5481 9.46576 16.5481C9.46192 16.5481 9.45808 16.5481 9.45424 16.5481C9.45039 16.5481 9.44655 16.5481 9.44269 16.5481C9.43884 16.5481 9.43499 16.5481 9.43113 16.5481C9.42728 16.5481 9.42342 16.5481 9.41956 16.5481C9.41569 16.5481 9.41183 16.5481 9.40796 16.5481C9.40409 16.5481 9.40022 16.5481 9.39635 16.5481C9.39247 16.5481 9.38859 16.5481 9.38471 16.5481C9.38083 16.5481 9.37695 16.5481 9.37306 16.5481C9.36918 16.5481 9.36529 16.5481 9.3614 16.5481C9.35751 16.5481 9.35361 16.5481 9.34971 16.5481C9.34582 16.5481 9.34191 16.5481 9.33801 16.5481C9.33411 16.5481 9.3302 16.5481 9.32629 16.5481C9.32238 16.5481 9.31847 16.5481 9.31455 16.5481C9.31064 16.5481 9.30672 16.5481 9.3028 16.5481C9.29888 16.5481 9.29495 16.5481 9.29102 16.5481C9.2871 16.5481 9.28317 16.5481 9.27923 16.5481C9.2753 16.5481 9.27136 16.5481 9.26742 16.5481C9.26348 16.5481 9.25954 16.5481 9.2556 16.5481C9.25165 16.5481 9.2477 16.5481 9.24375 16.5481C9.2398 16.5481 9.23585 16.5481 9.23189 16.5481C9.22793 16.5481 9.22397 16.5481 9.22001 16.5481C9.21605 16.5481 9.21208 16.5481 9.20811 16.5481C9.20415 16.5481 9.20017 16.5481 9.1962 16.5481C9.19222 16.5481 9.18825 16.5481 9.18427 16.5481C9.18029 16.5481 9.1763 16.5481 9.17232 16.5481C9.16833 16.5481 9.16434 16.5481 9.16035 16.5481C9.15636 16.5481 9.15236 16.5481 9.14836 16.5481C9.14436 16.5481 9.14036 16.5481 9.13636 16.5481C9.13235 16.5481 9.12835 16.5481 9.12434 16.5481C9.12033 16.5481 9.11631 16.5481 9.1123 16.5481C9.10828 16.5481 9.10426 16.5481 9.10024 16.5481C9.09622 16.5481 9.09219 16.5481 9.08817 16.5481C9.08414 16.5481 9.08011 16.5481 9.07607 16.5481C9.07204 16.5481 9.068 16.5481 9.06396 16.5481C9.05993 16.5481 9.05588 16.5481 9.05184 16.5481C9.04779 16.5481 9.04374 16.5481 9.03969 16.5481C9.03564 16.5481 9.03159 16.5481 9.02753 16.5481C9.02347 16.5481 9.01941 16.5481 9.01535 16.5481C9.01128 16.5481 9.00722 16.5481 9.00315 16.5481C8.99908 16.5481 8.99501 16.5481 8.99093 16.5481C8.98686 16.5481 8.98278 16.5481 8.9787 16.5481C8.97462 16.5481 8.97053 16.5481 8.96645 16.5481C8.96236 16.5481 8.95827 16.5481 8.95418 16.5481C8.95009 16.5481 8.94599 16.5481 8.94189 16.5481C8.93779 16.5481 8.93369 16.5481 8.92959 16.5481C8.92548 16.5481 8.92137 16.5481 8.91726 16.5481C8.91315 16.5481 8.90904 16.5481 8.90492 16.5481C8.90081 16.5481 8.89669 16.5481 8.89257 16.5481C8.88844 16.5481 8.88432 16.5481 8.88019 16.5481C8.87606 16.5481 8.87193 16.5481 8.8678 16.5481C8.86366 16.5481 8.85952 16.5481 8.85538 16.5481C8.85124 16.5481 8.8471 16.5481 8.84296 16.5481C8.83881 16.5481 8.83466 16.5481 8.83051 16.5481C8.82636 16.5481 8.8222 16.5481 8.81805 16.5481C8.81389 16.5481 8.80973 16.5481 8.80556 16.5481C8.8014 16.5481 8.79723 16.5481 8.79306 16.5481C8.78889 16.5481 8.78472 16.5481 8.78055 16.5481C8.77637 16.5481 8.77219 16.5481 8.76801 16.5481C8.76383 16.5481 8.75964 16.5481 8.75546 16.5481C8.75127 16.5481 8.74708 16.5481 8.74289 16.5481C8.73869 16.5481 8.7345 16.5481 8.7303 16.5481C8.7261 16.5481 8.7219 16.5481 8.71769 16.5481C8.71349 16.5481 8.70928 16.5481 8.70507 16.5481C8.70086 16.5481 8.69664 16.5481 8.69243 16.5481C8.68821 16.5481 8.68399 16.5481 8.67977 16.5481C8.67555 16.5481 8.67132 16.5481 8.66709 16.5481C8.66286 16.5481 8.65863 16.5481 8.6544 16.5481C8.65016 16.5481 8.64593 16.5481 8.64168 16.5481C8.63744 16.5481 8.6332 16.5481 8.62895 16.5481C8.62471 16.5481 8.62046 16.5481 8.61621 16.5481C8.61195 16.5481 8.6077 16.5481 8.60344 16.5481C8.59918 16.5481 8.59492 16.5481 8.59066 16.5481C8.58639 16.5481 8.58213 16.5481 8.57786 16.5481C8.57359 16.5481 8.56931 16.5481 8.56504 16.5481C8.56076 16.5481 8.55648 16.5481 8.5522 16.5481C8.54792 16.5481 8.54364 16.5481 8.53935 16.5481C8.53506 16.5481 8.53077 16.5481 8.52648 16.5481C8.52218 16.5481 8.51789 16.5481 8.51359 16.5481C8.50929 16.5481 8.50498 16.5481 8.50068 16.5481C8.49637 16.5481 8.49207 16.5481 8.48775 16.5481C8.48344 16.5481 8.47913 16.5481 8.47481 16.5481C8.47049 16.5481 8.46617 16.5481 8.46185 16.5481C8.45753 16.5481 8.4532 16.5481 8.44887 16.5481C8.44454 16.5481 8.44021 16.5481 8.43588 16.5481C8.43154 16.5481 8.42721 16.5481 8.42286 16.5481C8.41852 16.5481 8.41418 16.5481 8.40983 16.5481C8.40549 16.5481 8.40114 16.5481 8.39678 16.5481C8.39243 16.5481 8.38808 16.5481 8.38372 16.5481C8.37936 16.5481 8.375 16.5481 8.37063 16.5481C8.36627 16.5481 8.3619 16.5481 8.35753 16.5481C8.35316 16.5481 8.34879 16.5481 8.34441 16.5481C8.34003 16.5481 8.33566 16.5481 8.33127 16.5481C8.32689 16.5481 8.32251 16.5481 8.31812 16.5481C8.31373 16.5481 8.30934 16.5481 8.30494 16.5481C8.30055 16.5481 8.29615 16.5481 8.29175 16.5481C8.28735 16.5481 8.28295 16.5481 8.27855 16.5481C8.27414 16.5481 8.26973 16.5481 8.26532 16.5481C8.26091 16.5481 8.25649 16.5481 8.25208 16.5481C8.24766 16.5481 8.24324 16.5481 8.23881 16.5481C8.23439 16.5481 8.22996 16.5481 8.22553 16.5481C8.22111 16.5481 8.21667 16.5481 8.21224 16.5481C8.2078 16.5481 8.20336 16.5481 8.19892 16.5481C8.19448 16.5481 8.19004 16.5481 8.18559 16.5481C8.18114 16.5481 8.17669 16.5481 8.17224 16.5481C8.16779 16.5481 8.16333 16.5481 8.15887 16.5481C8.15441 16.5481 8.14995 16.5481 8.14549 16.5481C8.14102 16.5481 8.13655 16.5481 8.13208 16.5481C8.12761 16.5481 8.12314 16.5481 8.11866 16.5481C8.11419 16.5481 8.10971 16.5481 8.10522 16.5481C8.10074 16.5481 8.09626 16.5481 8.09177 16.5481C8.08728 16.5481 8.08279 16.5481 8.07829 16.5481C8.0738 16.5481 8.0693 16.5481 8.0648 16.5481C8.0603 16.5481 8.0558 16.5481 8.05129 16.5481C8.04679 16.5481 8.04228 16.5481 8.03776 16.5481C8.03325 16.5481 8.02874 16.5481 8.02422 16.5481C8.0197 16.5481 8.01518 16.5481 8.01066 16.5481C8.00613 16.5481 8.00161 16.5481 7.99708 16.5481C7.99255 16.5481 7.98801 16.5481 7.98348 16.5481C7.97894 16.5481 7.9744 16.5481 7.96986 16.5481C7.96532 16.5481 7.96078 16.5481 7.95623 16.5481C7.95168 16.5481 7.94713 16.5481 7.94258 16.5481C7.93802 16.5481 7.93347 16.5481 7.92891 16.5481C7.92435 16.5481 7.91979 16.5481 7.91522 16.5481C7.91066 16.5481 7.90609 16.5481 7.90152 16.5481C7.89695 16.5481 7.89237 16.5481 7.88779 16.5481C7.88322 16.5481 7.87864 16.5481 7.87405 16.5481C7.86947 16.5481 7.86489 16.5481 7.8603 16.5481C7.85571 16.5481 7.85112 16.5481 7.84652 16.5481C7.84193 16.5481 7.83733 16.5481 7.83273 16.5481C7.82813 16.5481 7.82352 16.5481 7.81892 16.5481C7.81431 16.5481 7.8097 16.5481 7.80509 16.5481C7.80048 16.5481 7.79586 16.5481 7.79124 16.5481C7.78662 16.5481 7.782 16.5481 7.77738 16.5481C7.77275 16.5481 7.76813 16.5481 7.7635 16.5481C7.75887 16.5481 7.75423 16.5481 7.7496 16.5481C7.74496 16.5481 7.74032 16.5481 7.73568 16.5481C7.73104 16.5481 7.72639 16.5481 7.72175 16.5481C7.7171 16.5481 7.71245 16.5481 7.70779 16.5481C7.70314 16.5481 7.69848 16.5481 7.69382 16.5481C7.68916 16.5481 7.6845 16.5481 7.67983 16.5481C7.67517 16.5481 7.6705 16.5481 7.66583 16.5481C7.66116 16.5481 7.65648 16.5481 7.65181 16.5481C7.64713 16.5481 7.64245 16.5481 7.63776 16.5481C7.63308 16.5481 7.62839 16.5481 7.62371 16.5481C7.61902 16.5481 7.61432 16.5481 7.60963 16.5481C7.60493 16.5481 7.60024 16.5481 7.59553 16.5481C7.59083 16.5481 7.58613 16.5481 7.58142 16.5481C7.57672 16.5481 7.57201 16.5481 7.56729 16.5481C7.56258 16.5481 7.55786 16.5481 7.55315 16.5481C7.54843 16.5481 7.5437 16.5481 7.53898 16.5481C7.53426 16.5481 7.52953 16.5481 7.5248 16.5481C7.52007 16.5481 7.51533 16.5481 7.5106 16.5481C7.50586 16.5481 7.50112 16.5481 7.49638 16.5481C7.49164 16.5481 7.48689 16.5481 7.48214 16.5481C7.47739 16.5481 7.47264 16.5481 7.46789 16.5481C7.46313 16.5481 7.45838 16.5481 7.45362 16.5481C7.44886 16.5481 7.44409 16.5481 7.43933 16.5481C7.43456 16.5481 7.42979 16.5481 7.42502 16.5481C7.42025 16.5481 7.41547 16.5481 7.4107 16.5481C7.40592 16.5481 7.40114 16.5481 7.39635 16.5481C7.39157 16.5481 7.38678 16.5481 7.38199 16.5481C7.3772 16.5481 7.37241 16.5481 7.36762 16.5481C7.36282 16.5481 7.35802 16.5481 7.35322 16.5481C7.34842 16.5481 7.34361 16.5481 7.33881 16.5481C7.334 16.5481 7.32919 16.5481 7.32438 16.5481C7.31956 16.5481 7.31475 16.5481 7.30993 16.5481C7.30511 16.5481 7.30029 16.5481 7.29546 16.5481C7.29064 16.5481 7.28581 16.5481 7.28098 16.5481C7.27615 16.5481 7.27131 16.5481 7.26648 16.5481C7.26164 16.5481 7.2568 16.5481 7.25196 16.5481C7.24711 16.5481 7.24227 16.5481 7.23742 16.5481C7.23257 16.5481 7.22772 16.5481 7.22286 16.5481C7.21801 16.5481 7.21315 16.5481 7.20829 16.5481C7.20343 16.5481 7.19857 16.5481 7.1937 16.5481C7.18883 16.5481 7.18397 16.5481 7.17909 16.5481C7.17422 16.5481 7.16934 16.5481 7.16447 16.5481C7.15959 16.5481 7.15471 16.5481 7.14982 16.5481C7.14494 16.5481 7.14005 16.5481 7.13516 16.5481C7.13027 16.5481 7.12538 16.5481 7.12048 16.5481C7.11559 16.5481 7.11069 16.5481 7.10579 16.5481C7.10088 16.5481 7.09598 16.5481 7.09107 16.5481C7.08616 16.5481 7.08125 16.5481 7.07634 16.5481C7.07143 16.5481 7.06651 16.5481 7.06159 16.5481C7.05667 16.5481 7.05175 16.5481 7.04682 16.5481C7.0419 16.5481 7.03697 16.5481 7.03204 16.5481C7.02711 16.5481 7.02217 16.5481 7.01723 16.5481C7.0123 16.5481 7.00736 16.5481 7.00241 16.5481C6.99747 16.5481 6.99252 16.5481 6.98758 16.5481C6.98263 16.5481 6.97767 16.5481 6.97272 16.5481C6.96776 16.5481 6.96281 16.5481 6.95784 16.5481C6.95288 16.5481 6.94792 16.5481 6.94295 16.5481C6.93799 16.5481 6.93302 16.5481 6.92804 16.5481C6.92307 16.5481 6.9181 16.5481 6.91312 16.5481C6.90814 16.5481 6.90316 16.5481 6.89817 16.5481C6.89319 16.5481 6.8882 16.5481 6.88321 16.5481C6.87822 16.5481 6.87323 16.5481 6.86823 16.5481C6.86323 16.5481 6.85823 16.5481 6.85323 16.5481C6.84823 16.5481 6.84322 16.5481 6.83822 16.5481C6.83321 16.5481 6.8282 16.5481 6.82318 16.5481C6.81817 16.5481 6.81315 16.5481 6.80813 16.5481C6.80311 16.5481 6.79809 16.5481 6.79306 16.5481C6.78804 16.5481 6.78301 16.5481 6.77798 16.5481C6.77294 16.5481 6.76791 16.5481 6.76287 16.5481C6.75783 16.5481 6.75279 16.5481 6.74775 16.5481C6.74271 16.5481 6.73766 16.5481 6.73261 16.5481C6.72756 16.5481 6.72251 16.5481 6.71745 16.5481C6.7124 16.5481 6.70734 16.5481 6.70228 16.5481C6.69722 16.5481 6.69215 16.5481 6.68709 16.5481C6.68202 16.5481 6.67695 16.5481 6.67188 16.5481C6.6668 16.5481 6.66173 16.5481 6.65665 16.5481C6.65157 16.5481 6.64649 16.5481 6.6414 16.5481C6.63632 16.5481 6.63123 16.5481 6.62614 16.5481C6.62105 16.5481 6.61595 16.5481 6.61086 16.5481C6.60576 16.5481 6.60066 16.5481 6.59556 16.5481C6.59045 16.5481 6.58535 16.5481 6.58024 16.5481C6.57513 16.5481 6.57002 16.5481 6.56491 16.5481C6.55979 16.5481 6.55467 16.5481 6.54955 16.5481C6.54443 16.5481 6.53931 16.5481 6.53418 16.5481C6.52906 16.5481 6.52393 16.5481 6.5188 16.5481C6.51366 16.5481 6.50853 16.5481 6.50339 16.5481C6.49825 16.5481 6.49311 16.5481 6.48797 16.5481C6.48282 16.5481 6.47768 16.5481 6.47253 16.5481C6.46738 16.5481 6.46222 16.5481 6.45707 16.5481C6.45191 16.5481 6.44675 16.5481 6.44159 16.5481C6.43643 16.5481 6.43126 16.5481 6.4261 16.5481C6.42093 16.5481 6.41576 16.5481 6.41059 16.5481C6.40541 16.5481 6.40024 16.5481 6.39506 16.5481C6.38988 16.5481 6.38469 16.5481 6.37951 16.5481C6.37432 16.5481 6.36914 16.5481 6.36394 16.5481C6.35875 16.5481 6.35356 16.5481 6.34836 16.5481C6.34316 16.5481 6.33796 16.5481 6.33276 16.5481C6.32756 16.5481 6.32235 16.5481 6.31714 16.5481C6.31193 16.5481 6.30672 16.5481 6.30151 16.5481C6.29629 16.5481 6.29107 16.5481 6.28585 16.5481C6.28063 16.5481 6.27541 16.5481 6.27018 16.5481C6.26496 16.5481 6.25973 16.5481 6.25449 16.5481C6.24926 16.5481 6.24403 16.5481 6.23879 16.5481C6.23355 16.5481 6.22831 16.5481 6.22306 16.5481C6.21782 16.5481 6.21257 16.5481 6.20732 16.5481C6.20207 16.5481 6.19682 16.5481 6.19156 16.5481C6.18631 16.5481 6.18105 16.5481 6.17578 16.5481C6.17052 16.5481 6.16526 16.5481 6.15999 16.5481C6.15472 16.5481 6.14945 16.5481 6.14418 16.5481C6.1389 16.5481 6.13362 16.5481 6.12835 16.5481C6.12306 16.5481 6.11778 16.5481 6.1125 16.5481C6.10721 16.5481 6.10192 16.5481 6.09663 16.5481C6.09134 16.5481 6.08604 16.5481 6.08075 16.5481C6.07545 16.5481 6.07015 16.5481 6.06485 16.5481C6.05954 16.5481 6.05424 16.5481 6.04893 16.5481C6.04362 16.5481 6.0383 16.5481 6.03299 16.5481C6.02767 16.5481 6.02236 16.5481 6.01703 16.5481C6.01171 16.5481 6.00639 16.5481 6.00106 16.5481C5.99574 16.5481 5.99041 16.5481 5.98507 16.5481C5.97974 16.5481 5.9744 16.5481 5.96906 16.5481C5.96373 16.5481 5.95838 16.5481 5.95304 16.5481C5.94769 16.5481 5.94235 16.5481 5.937 16.5481C5.93164 16.5481 5.92629 16.5481 5.92093 16.5481C5.91558 16.5481 5.91022 16.5481 5.90486 16.5481C5.89949 16.5481 5.89413 16.5481 5.88876 16.5481C5.88339 16.5481 5.87802 16.5481 5.87265 16.5481C5.86727 16.5481 5.86189 16.5481 5.85651 16.5481C5.85113 16.5481 5.84575 16.5481 5.84036 16.5481C5.83498 16.5481 5.82959 16.5481 5.8242 16.5481C5.8188 16.5481 5.81341 16.5481 5.80801 16.5481C5.80261 16.5481 5.79721 16.5481 5.79181 16.5481C5.78641 16.5481 5.781 16.5481 5.77559 16.5481C5.77018 16.5481 5.76477 16.5481 5.75935 16.5481C5.75393 16.5481 5.74852 16.5481 5.74309 16.5481C5.73767 16.5481 5.73225 16.5481 5.72682 16.5481C5.72139 16.5481 5.71596 16.5481 5.71053 16.5481C5.7051 16.5481 5.69966 16.5481 5.69422 16.5481C5.68878 16.5481 5.68334 16.5481 5.67789 16.5481C5.67245 16.5481 5.667 16.5481 5.66155 16.5481C5.6561 16.5481 5.65064 16.5481 5.64519 16.5481C5.63973 16.5481 5.63427 16.5481 5.62881 16.5481C5.62334 16.5481 5.61788 16.5481 5.61241 16.5481C5.60694 16.5481 5.60147 16.5481 5.59599 16.5481C5.59052 16.5481 5.58504 16.5481 5.57956 16.5481C5.57408 16.5481 5.5686 16.5481 5.56311 16.5481C5.55762 16.5481 5.55213 16.5481 5.54664 16.5481C5.54115 16.5481 5.53565 16.5481 5.53016 16.5481C5.52466 16.5481 5.51916 16.5481 5.51365 16.5481C5.50815 16.5481 5.50264 16.5481 5.49713 16.5481C5.49162 16.5481 5.48611 16.5481 5.48059 16.5481C5.47508 16.5481 5.46956 16.5481 5.46403 16.5481C5.45851 16.5481 5.45299 16.5481 5.44746 16.5481C5.44193 16.5481 5.4364 16.5481 5.43087 16.5481C5.42533 16.5481 5.4198 16.5481 5.41426 16.5481C5.40872 16.5481 5.40317 16.5481 5.39763 16.5481C5.39208 16.5481 5.38654 16.5481 5.38098 16.5481C5.37543 16.5481 5.36988 16.5481 5.36432 16.5481C5.35876 16.5481 5.3532 16.5481 5.34764 16.5481C5.34208 16.5481 5.33651 16.5481 5.33094 16.5481C5.32537 16.5481 5.3198 16.5481 5.31422 16.5481C5.30865 16.5481 5.30307 16.5481 5.29749 16.5481C5.29191 16.5481 5.28632 16.5481 5.28074 16.5481C5.27515 16.5481 5.26956 16.5481 5.26397 16.5481C5.25838 16.5481 5.25278 16.5481 5.24718 16.5481C5.24158 16.5481 5.23598 16.5481 5.23038 16.5481C5.22477 16.5481 5.21916 16.5481 5.21355 16.5481C5.20794 16.5481 5.20233 16.5481 5.19671 16.5481C5.1911 16.5481 5.18548 16.5481 5.17985 16.5481C5.17423 16.5481 5.16861 16.5481 5.16298 16.5481C5.15735 16.5481 5.15172 16.5481 5.14608 16.5481C5.14045 16.5481 5.13481 16.5481 5.12917 16.5481C5.12353 16.5481 5.11789 16.5481 5.11224 16.5481C5.1066 16.5481 5.10095 16.5481 5.0953 16.5481C5.08965 16.5481 5.08399 16.5481 5.07833 16.5481C5.07267 16.5481 5.06701 16.5481 5.06135 16.5481C5.05569 16.5481 5.05002 16.5481 5.04435 16.5481C5.03868 16.5481 5.03301 16.5481 5.02733 16.5481C5.02166 16.5481 5.01598 16.5481 5.0103 16.5481C5.00462 16.5481 4.99893 16.5481 4.99324 16.5481C4.98756 16.5481 4.98187 16.5481 4.97617 16.5481C4.97048 16.5481 4.96478 16.5481 4.95908 16.5481C4.95339 16.5481 4.94768 16.5481 4.94198 16.5481C4.93627 16.5481 4.93057 16.5481 4.92485 16.5481C4.91914 16.5481 4.91343 16.5481 4.90771 16.5481C4.902 16.5481 4.89628 16.5481 4.89055 16.5481C4.88483 16.5481 4.8791 16.5481 4.87338 16.5481C4.86765 16.5481 4.86192 16.5481 4.85618 16.5481C4.85045 16.5481 4.84471 16.5481 4.83897 16.5481C4.83323 16.5481 4.82748 16.5481 4.82174 16.5481C4.81599 16.5481 4.81024 16.5481 4.80449 16.5481C4.79874 16.5481 4.79298 16.5481 4.78722 16.5481C4.78147 16.5481 4.77571 16.5481 4.76994 16.5481C4.76418 16.5481 4.75841 16.5481 4.75264 16.5481C4.74687 16.5481 4.7411 16.5481 4.73532 16.5481C4.72954 16.5481 4.72377 16.5481 4.71798 16.5481C4.7122 16.5481 4.70642 16.5481 4.70063 16.5481C4.69484 16.5481 4.68905 16.5481 4.68326 16.5481C4.67746 16.5481 4.67167 16.5481 4.66587 16.5481C4.66007 16.5481 4.65427 16.5481 4.64846 16.5481C4.64266 16.5481 4.63685 16.5481 4.63104 16.5481C4.62522 16.5481 4.61941 16.5481 4.61359 16.5481C4.60778 16.5481 4.60195 16.5481 4.59613 16.5481C4.59031 16.5481 4.58448 16.5481 4.57865 16.5481C4.57282 16.5481 4.56699 16.5481 4.56116 16.5481C4.55532 16.5481 4.54948 16.5481 4.54364 16.5481C4.5378 16.5481 4.53196 16.5481 4.52611 16.5481C4.52027 16.5481 4.51442 16.5481 4.50856 16.5481C4.50271 16.5481 4.49685 16.5481 4.491 16.5481C4.48514 16.5481 4.47928 16.5481 4.47341 16.5481C4.46755 16.5481 4.46168 16.5481 4.45581 16.5481C4.44994 16.5481 4.44407 16.5481 4.43819 16.5481C4.43231 16.5481 4.42643 16.5481 4.42055 16.5481C4.41467 16.5481 4.40878 16.5481 4.4029 16.5481C4.39701 16.5481 4.39112 16.5481 4.38522 16.5481C4.37933 16.5481 4.37343 16.5481 4.36753 16.5481C4.36163 16.5481 4.35573 16.5481 4.34982 16.5481C4.34392 16.5481 4.33801 16.5481 4.3321 16.5481C4.32618 16.5481 4.32027 16.5481 4.31435 16.5481C4.30843 16.5481 4.30251 16.5481 4.29659 16.5481C4.29067 16.5481 4.28474 16.5481 4.27881 16.5481C4.27288 16.5481 4.26695 16.5481 4.26101 16.5481C4.25508 16.5481 4.24914 16.5481 4.2432 16.5481C4.23726 16.5481 4.23131 16.5481 4.22537 16.5481C4.21942 16.5481 4.21347 16.5481 4.20752 16.5481C4.20156 16.5481 4.19561 16.5481 4.18965 16.5481C4.18369 16.5481 4.17773 16.5481 4.17176 16.5481C4.1658 16.5481 4.15983 16.5481 4.15386 16.5481C4.14789 16.5481 4.14191 16.5481 4.13594 16.5481C4.12996 16.5481 4.12398 16.5481 4.118 16.5481C4.11201 16.5481 4.10603 16.5481 4.10004 16.5481C4.09405 16.5481 4.08806 16.5481 4.08207 16.5481C4.07607 16.5481 4.07007 16.5481 4.06407 16.5481C4.05807 16.5481 4.05207 16.5481 4.04606 16.5481C4.04006 16.5481 4.03405 16.5481 4.02804 16.5481C4.02202 16.5481 4.01601 16.5481 4.00999 16.5481C4.00397 16.5481 3.99795 16.5481 3.99193 16.5481C3.9859 16.5481 3.97988 16.5481 3.97385 16.5481C3.96782 16.5481 3.96178 16.5481 3.95575 16.5481C3.94971 16.5481 3.94367 16.5481 3.93763 16.5481C3.93159 16.5481 3.92555 16.5481 3.9195 16.5481V17.5481C3.92555 17.5481 3.93159 17.5481 3.93763 17.5481C3.94367 17.5481 3.94971 17.5481 3.95575 17.5481C3.96178 17.5481 3.96782 17.5481 3.97385 17.5481C3.97988 17.5481 3.9859 17.5481 3.99193 17.5481C3.99795 17.5481 4.00397 17.5481 4.00999 17.5481C4.01601 17.5481 4.02202 17.5481 4.02804 17.5481C4.03405 17.5481 4.04006 17.5481 4.04606 17.5481C4.05207 17.5481 4.05807 17.5481 4.06407 17.5481C4.07007 17.5481 4.07607 17.5481 4.08207 17.5481C4.08806 17.5481 4.09405 17.5481 4.10004 17.5481C4.10603 17.5481 4.11201 17.5481 4.118 17.5481C4.12398 17.5481 4.12996 17.5481 4.13594 17.5481C4.14191 17.5481 4.14789 17.5481 4.15386 17.5481C4.15983 17.5481 4.1658 17.5481 4.17176 17.5481C4.17773 17.5481 4.18369 17.5481 4.18965 17.5481C4.19561 17.5481 4.20156 17.5481 4.20752 17.5481C4.21347 17.5481 4.21942 17.5481 4.22537 17.5481C4.23131 17.5481 4.23726 17.5481 4.2432 17.5481C4.24914 17.5481 4.25508 17.5481 4.26101 17.5481C4.26695 17.5481 4.27288 17.5481 4.27881 17.5481C4.28474 17.5481 4.29067 17.5481 4.29659 17.5481C4.30251 17.5481 4.30843 17.5481 4.31435 17.5481C4.32027 17.5481 4.32618 17.5481 4.3321 17.5481C4.33801 17.5481 4.34392 17.5481 4.34982 17.5481C4.35573 17.5481 4.36163 17.5481 4.36753 17.5481C4.37343 17.5481 4.37933 17.5481 4.38522 17.5481C4.39112 17.5481 4.39701 17.5481 4.4029 17.5481C4.40878 17.5481 4.41467 17.5481 4.42055 17.5481C4.42643 17.5481 4.43231 17.5481 4.43819 17.5481C4.44407 17.5481 4.44994 17.5481 4.45581 17.5481C4.46168 17.5481 4.46755 17.5481 4.47341 17.5481C4.47928 17.5481 4.48514 17.5481 4.491 17.5481C4.49685 17.5481 4.50271 17.5481 4.50856 17.5481C4.51442 17.5481 4.52027 17.5481 4.52611 17.5481C4.53196 17.5481 4.5378 17.5481 4.54364 17.5481C4.54948 17.5481 4.55532 17.5481 4.56116 17.5481C4.56699 17.5481 4.57282 17.5481 4.57865 17.5481C4.58448 17.5481 4.59031 17.5481 4.59613 17.5481C4.60195 17.5481 4.60778 17.5481 4.61359 17.5481C4.61941 17.5481 4.62522 17.5481 4.63104 17.5481C4.63685 17.5481 4.64266 17.5481 4.64846 17.5481C4.65427 17.5481 4.66007 17.5481 4.66587 17.5481C4.67167 17.5481 4.67746 17.5481 4.68326 17.5481C4.68905 17.5481 4.69484 17.5481 4.70063 17.5481C4.70642 17.5481 4.7122 17.5481 4.71798 17.5481C4.72377 17.5481 4.72954 17.5481 4.73532 17.5481C4.7411 17.5481 4.74687 17.5481 4.75264 17.5481C4.75841 17.5481 4.76418 17.5481 4.76994 17.5481C4.77571 17.5481 4.78147 17.5481 4.78722 17.5481C4.79298 17.5481 4.79874 17.5481 4.80449 17.5481C4.81024 17.5481 4.81599 17.5481 4.82174 17.5481C4.82748 17.5481 4.83323 17.5481 4.83897 17.5481C4.84471 17.5481 4.85045 17.5481 4.85618 17.5481C4.86192 17.5481 4.86765 17.5481 4.87338 17.5481C4.8791 17.5481 4.88483 17.5481 4.89055 17.5481C4.89628 17.5481 4.902 17.5481 4.90771 17.5481C4.91343 17.5481 4.91914 17.5481 4.92485 17.5481C4.93057 17.5481 4.93627 17.5481 4.94198 17.5481C4.94768 17.5481 4.95339 17.5481 4.95908 17.5481C4.96478 17.5481 4.97048 17.5481 4.97617 17.5481C4.98187 17.5481 4.98756 17.5481 4.99324 17.5481C4.99893 17.5481 5.00462 17.5481 5.0103 17.5481C5.01598 17.5481 5.02166 17.5481 5.02733 17.5481C5.03301 17.5481 5.03868 17.5481 5.04435 17.5481C5.05002 17.5481 5.05569 17.5481 5.06135 17.5481C5.06701 17.5481 5.07267 17.5481 5.07833 17.5481C5.08399 17.5481 5.08965 17.5481 5.0953 17.5481C5.10095 17.5481 5.1066 17.5481 5.11224 17.5481C5.11789 17.5481 5.12353 17.5481 5.12917 17.5481C5.13481 17.5481 5.14045 17.5481 5.14608 17.5481C5.15172 17.5481 5.15735 17.5481 5.16298 17.5481C5.16861 17.5481 5.17423 17.5481 5.17985 17.5481C5.18548 17.5481 5.1911 17.5481 5.19671 17.5481C5.20233 17.5481 5.20794 17.5481 5.21355 17.5481C5.21916 17.5481 5.22477 17.5481 5.23038 17.5481C5.23598 17.5481 5.24158 17.5481 5.24718 17.5481C5.25278 17.5481 5.25838 17.5481 5.26397 17.5481C5.26956 17.5481 5.27515 17.5481 5.28074 17.5481C5.28632 17.5481 5.29191 17.5481 5.29749 17.5481C5.30307 17.5481 5.30865 17.5481 5.31422 17.5481C5.3198 17.5481 5.32537 17.5481 5.33094 17.5481C5.33651 17.5481 5.34208 17.5481 5.34764 17.5481C5.3532 17.5481 5.35876 17.5481 5.36432 17.5481C5.36988 17.5481 5.37543 17.5481 5.38098 17.5481C5.38654 17.5481 5.39208 17.5481 5.39763 17.5481C5.40317 17.5481 5.40872 17.5481 5.41426 17.5481C5.4198 17.5481 5.42533 17.5481 5.43087 17.5481C5.4364 17.5481 5.44193 17.5481 5.44746 17.5481C5.45299 17.5481 5.45851 17.5481 5.46403 17.5481C5.46956 17.5481 5.47508 17.5481 5.48059 17.5481C5.48611 17.5481 5.49162 17.5481 5.49713 17.5481C5.50264 17.5481 5.50815 17.5481 5.51365 17.5481C5.51916 17.5481 5.52466 17.5481 5.53016 17.5481C5.53565 17.5481 5.54115 17.5481 5.54664 17.5481C5.55213 17.5481 5.55762 17.5481 5.56311 17.5481C5.5686 17.5481 5.57408 17.5481 5.57956 17.5481C5.58504 17.5481 5.59052 17.5481 5.59599 17.5481C5.60147 17.5481 5.60694 17.5481 5.61241 17.5481C5.61788 17.5481 5.62334 17.5481 5.62881 17.5481C5.63427 17.5481 5.63973 17.5481 5.64519 17.5481C5.65064 17.5481 5.6561 17.5481 5.66155 17.5481C5.667 17.5481 5.67245 17.5481 5.67789 17.5481C5.68334 17.5481 5.68878 17.5481 5.69422 17.5481C5.69966 17.5481 5.7051 17.5481 5.71053 17.5481C5.71596 17.5481 5.72139 17.5481 5.72682 17.5481C5.73225 17.5481 5.73767 17.5481 5.74309 17.5481C5.74852 17.5481 5.75393 17.5481 5.75935 17.5481C5.76477 17.5481 5.77018 17.5481 5.77559 17.5481C5.781 17.5481 5.78641 17.5481 5.79181 17.5481C5.79721 17.5481 5.80261 17.5481 5.80801 17.5481C5.81341 17.5481 5.8188 17.5481 5.8242 17.5481C5.82959 17.5481 5.83498 17.5481 5.84036 17.5481C5.84575 17.5481 5.85113 17.5481 5.85651 17.5481C5.86189 17.5481 5.86727 17.5481 5.87265 17.5481C5.87802 17.5481 5.88339 17.5481 5.88876 17.5481C5.89413 17.5481 5.89949 17.5481 5.90486 17.5481C5.91022 17.5481 5.91558 17.5481 5.92093 17.5481C5.92629 17.5481 5.93164 17.5481 5.937 17.5481C5.94235 17.5481 5.94769 17.5481 5.95304 17.5481C5.95838 17.5481 5.96373 17.5481 5.96906 17.5481C5.9744 17.5481 5.97974 17.5481 5.98507 17.5481C5.99041 17.5481 5.99574 17.5481 6.00106 17.5481C6.00639 17.5481 6.01171 17.5481 6.01703 17.5481C6.02236 17.5481 6.02767 17.5481 6.03299 17.5481C6.0383 17.5481 6.04362 17.5481 6.04893 17.5481C6.05424 17.5481 6.05954 17.5481 6.06485 17.5481C6.07015 17.5481 6.07545 17.5481 6.08075 17.5481C6.08604 17.5481 6.09134 17.5481 6.09663 17.5481C6.10192 17.5481 6.10721 17.5481 6.1125 17.5481C6.11778 17.5481 6.12306 17.5481 6.12835 17.5481C6.13362 17.5481 6.1389 17.5481 6.14418 17.5481C6.14945 17.5481 6.15472 17.5481 6.15999 17.5481C6.16526 17.5481 6.17052 17.5481 6.17578 17.5481C6.18105 17.5481 6.18631 17.5481 6.19156 17.5481C6.19682 17.5481 6.20207 17.5481 6.20732 17.5481C6.21257 17.5481 6.21782 17.5481 6.22306 17.5481C6.22831 17.5481 6.23355 17.5481 6.23879 17.5481C6.24403 17.5481 6.24926 17.5481 6.25449 17.5481C6.25973 17.5481 6.26496 17.5481 6.27018 17.5481C6.27541 17.5481 6.28063 17.5481 6.28585 17.5481C6.29107 17.5481 6.29629 17.5481 6.30151 17.5481C6.30672 17.5481 6.31193 17.5481 6.31714 17.5481C6.32235 17.5481 6.32756 17.5481 6.33276 17.5481C6.33796 17.5481 6.34316 17.5481 6.34836 17.5481C6.35356 17.5481 6.35875 17.5481 6.36394 17.5481C6.36914 17.5481 6.37432 17.5481 6.37951 17.5481C6.38469 17.5481 6.38988 17.5481 6.39506 17.5481C6.40024 17.5481 6.40541 17.5481 6.41059 17.5481C6.41576 17.5481 6.42093 17.5481 6.4261 17.5481C6.43126 17.5481 6.43643 17.5481 6.44159 17.5481C6.44675 17.5481 6.45191 17.5481 6.45707 17.5481C6.46222 17.5481 6.46738 17.5481 6.47253 17.5481C6.47768 17.5481 6.48282 17.5481 6.48797 17.5481C6.49311 17.5481 6.49825 17.5481 6.50339 17.5481C6.50853 17.5481 6.51366 17.5481 6.5188 17.5481C6.52393 17.5481 6.52906 17.5481 6.53418 17.5481C6.53931 17.5481 6.54443 17.5481 6.54955 17.5481C6.55467 17.5481 6.55979 17.5481 6.56491 17.5481C6.57002 17.5481 6.57513 17.5481 6.58024 17.5481C6.58535 17.5481 6.59045 17.5481 6.59556 17.5481C6.60066 17.5481 6.60576 17.5481 6.61086 17.5481C6.61595 17.5481 6.62105 17.5481 6.62614 17.5481C6.63123 17.5481 6.63632 17.5481 6.6414 17.5481C6.64649 17.5481 6.65157 17.5481 6.65665 17.5481C6.66173 17.5481 6.6668 17.5481 6.67188 17.5481C6.67695 17.5481 6.68202 17.5481 6.68709 17.5481C6.69215 17.5481 6.69722 17.5481 6.70228 17.5481C6.70734 17.5481 6.7124 17.5481 6.71745 17.5481C6.72251 17.5481 6.72756 17.5481 6.73261 17.5481C6.73766 17.5481 6.74271 17.5481 6.74775 17.5481C6.75279 17.5481 6.75783 17.5481 6.76287 17.5481C6.76791 17.5481 6.77294 17.5481 6.77798 17.5481C6.78301 17.5481 6.78804 17.5481 6.79306 17.5481C6.79809 17.5481 6.80311 17.5481 6.80813 17.5481C6.81315 17.5481 6.81817 17.5481 6.82318 17.5481C6.8282 17.5481 6.83321 17.5481 6.83822 17.5481C6.84322 17.5481 6.84823 17.5481 6.85323 17.5481C6.85823 17.5481 6.86323 17.5481 6.86823 17.5481C6.87323 17.5481 6.87822 17.5481 6.88321 17.5481C6.8882 17.5481 6.89319 17.5481 6.89817 17.5481C6.90316 17.5481 6.90814 17.5481 6.91312 17.5481C6.9181 17.5481 6.92307 17.5481 6.92804 17.5481C6.93302 17.5481 6.93799 17.5481 6.94295 17.5481C6.94792 17.5481 6.95288 17.5481 6.95784 17.5481C6.96281 17.5481 6.96776 17.5481 6.97272 17.5481C6.97767 17.5481 6.98263 17.5481 6.98758 17.5481C6.99252 17.5481 6.99747 17.5481 7.00241 17.5481C7.00736 17.5481 7.0123 17.5481 7.01723 17.5481C7.02217 17.5481 7.02711 17.5481 7.03204 17.5481C7.03697 17.5481 7.0419 17.5481 7.04682 17.5481C7.05175 17.5481 7.05667 17.5481 7.06159 17.5481C7.06651 17.5481 7.07143 17.5481 7.07634 17.5481C7.08125 17.5481 7.08616 17.5481 7.09107 17.5481C7.09598 17.5481 7.10088 17.5481 7.10579 17.5481C7.11069 17.5481 7.11559 17.5481 7.12048 17.5481C7.12538 17.5481 7.13027 17.5481 7.13516 17.5481C7.14005 17.5481 7.14494 17.5481 7.14982 17.5481C7.15471 17.5481 7.15959 17.5481 7.16447 17.5481C7.16934 17.5481 7.17422 17.5481 7.17909 17.5481C7.18397 17.5481 7.18883 17.5481 7.1937 17.5481C7.19857 17.5481 7.20343 17.5481 7.20829 17.5481C7.21315 17.5481 7.21801 17.5481 7.22286 17.5481C7.22772 17.5481 7.23257 17.5481 7.23742 17.5481C7.24227 17.5481 7.24711 17.5481 7.25196 17.5481C7.2568 17.5481 7.26164 17.5481 7.26648 17.5481C7.27131 17.5481 7.27615 17.5481 7.28098 17.5481C7.28581 17.5481 7.29064 17.5481 7.29546 17.5481C7.30029 17.5481 7.30511 17.5481 7.30993 17.5481C7.31475 17.5481 7.31956 17.5481 7.32438 17.5481C7.32919 17.5481 7.334 17.5481 7.33881 17.5481C7.34361 17.5481 7.34842 17.5481 7.35322 17.5481C7.35802 17.5481 7.36282 17.5481 7.36762 17.5481C7.37241 17.5481 7.3772 17.5481 7.38199 17.5481C7.38678 17.5481 7.39157 17.5481 7.39635 17.5481C7.40114 17.5481 7.40592 17.5481 7.4107 17.5481C7.41547 17.5481 7.42025 17.5481 7.42502 17.5481C7.42979 17.5481 7.43456 17.5481 7.43933 17.5481C7.44409 17.5481 7.44886 17.5481 7.45362 17.5481C7.45838 17.5481 7.46313 17.5481 7.46789 17.5481C7.47264 17.5481 7.47739 17.5481 7.48214 17.5481C7.48689 17.5481 7.49164 17.5481 7.49638 17.5481C7.50112 17.5481 7.50586 17.5481 7.5106 17.5481C7.51533 17.5481 7.52007 17.5481 7.5248 17.5481C7.52953 17.5481 7.53426 17.5481 7.53898 17.5481C7.5437 17.5481 7.54843 17.5481 7.55315 17.5481C7.55786 17.5481 7.56258 17.5481 7.56729 17.5481C7.57201 17.5481 7.57672 17.5481 7.58142 17.5481C7.58613 17.5481 7.59083 17.5481 7.59553 17.5481C7.60024 17.5481 7.60493 17.5481 7.60963 17.5481C7.61432 17.5481 7.61902 17.5481 7.62371 17.5481C7.62839 17.5481 7.63308 17.5481 7.63776 17.5481C7.64245 17.5481 7.64713 17.5481 7.65181 17.5481C7.65648 17.5481 7.66116 17.5481 7.66583 17.5481C7.6705 17.5481 7.67517 17.5481 7.67983 17.5481C7.6845 17.5481 7.68916 17.5481 7.69382 17.5481C7.69848 17.5481 7.70314 17.5481 7.70779 17.5481C7.71245 17.5481 7.7171 17.5481 7.72175 17.5481C7.72639 17.5481 7.73104 17.5481 7.73568 17.5481C7.74032 17.5481 7.74496 17.5481 7.7496 17.5481C7.75423 17.5481 7.75887 17.5481 7.7635 17.5481C7.76813 17.5481 7.77275 17.5481 7.77738 17.5481C7.782 17.5481 7.78662 17.5481 7.79124 17.5481C7.79586 17.5481 7.80048 17.5481 7.80509 17.5481C7.8097 17.5481 7.81431 17.5481 7.81892 17.5481C7.82352 17.5481 7.82813 17.5481 7.83273 17.5481C7.83733 17.5481 7.84193 17.5481 7.84652 17.5481C7.85112 17.5481 7.85571 17.5481 7.8603 17.5481C7.86489 17.5481 7.86947 17.5481 7.87405 17.5481C7.87864 17.5481 7.88322 17.5481 7.88779 17.5481C7.89237 17.5481 7.89695 17.5481 7.90152 17.5481C7.90609 17.5481 7.91066 17.5481 7.91522 17.5481C7.91979 17.5481 7.92435 17.5481 7.92891 17.5481C7.93347 17.5481 7.93802 17.5481 7.94258 17.5481C7.94713 17.5481 7.95168 17.5481 7.95623 17.5481C7.96078 17.5481 7.96532 17.5481 7.96986 17.5481C7.9744 17.5481 7.97894 17.5481 7.98348 17.5481C7.98801 17.5481 7.99255 17.5481 7.99708 17.5481C8.00161 17.5481 8.00613 17.5481 8.01066 17.5481C8.01518 17.5481 8.0197 17.5481 8.02422 17.5481C8.02874 17.5481 8.03325 17.5481 8.03776 17.5481C8.04228 17.5481 8.04679 17.5481 8.05129 17.5481C8.0558 17.5481 8.0603 17.5481 8.0648 17.5481C8.0693 17.5481 8.0738 17.5481 8.07829 17.5481C8.08279 17.5481 8.08728 17.5481 8.09177 17.5481C8.09626 17.5481 8.10074 17.5481 8.10522 17.5481C8.10971 17.5481 8.11419 17.5481 8.11866 17.5481C8.12314 17.5481 8.12761 17.5481 8.13208 17.5481C8.13655 17.5481 8.14102 17.5481 8.14549 17.5481C8.14995 17.5481 8.15441 17.5481 8.15887 17.5481C8.16333 17.5481 8.16779 17.5481 8.17224 17.5481C8.17669 17.5481 8.18114 17.5481 8.18559 17.5481C8.19004 17.5481 8.19448 17.5481 8.19892 17.5481C8.20336 17.5481 8.2078 17.5481 8.21224 17.5481C8.21667 17.5481 8.22111 17.5481 8.22553 17.5481C8.22996 17.5481 8.23439 17.5481 8.23881 17.5481C8.24324 17.5481 8.24766 17.5481 8.25208 17.5481C8.25649 17.5481 8.26091 17.5481 8.26532 17.5481C8.26973 17.5481 8.27414 17.5481 8.27855 17.5481C8.28295 17.5481 8.28735 17.5481 8.29175 17.5481C8.29615 17.5481 8.30055 17.5481 8.30494 17.5481C8.30934 17.5481 8.31373 17.5481 8.31812 17.5481C8.32251 17.5481 8.32689 17.5481 8.33127 17.5481C8.33566 17.5481 8.34003 17.5481 8.34441 17.5481C8.34879 17.5481 8.35316 17.5481 8.35753 17.5481C8.3619 17.5481 8.36627 17.5481 8.37063 17.5481C8.375 17.5481 8.37936 17.5481 8.38372 17.5481C8.38808 17.5481 8.39243 17.5481 8.39678 17.5481C8.40114 17.5481 8.40549 17.5481 8.40983 17.5481C8.41418 17.5481 8.41852 17.5481 8.42286 17.5481C8.42721 17.5481 8.43154 17.5481 8.43588 17.5481C8.44021 17.5481 8.44454 17.5481 8.44887 17.5481C8.4532 17.5481 8.45753 17.5481 8.46185 17.5481C8.46617 17.5481 8.47049 17.5481 8.47481 17.5481C8.47913 17.5481 8.48344 17.5481 8.48775 17.5481C8.49207 17.5481 8.49637 17.5481 8.50068 17.5481C8.50498 17.5481 8.50929 17.5481 8.51359 17.5481C8.51789 17.5481 8.52218 17.5481 8.52648 17.5481C8.53077 17.5481 8.53506 17.5481 8.53935 17.5481C8.54364 17.5481 8.54792 17.5481 8.5522 17.5481C8.55648 17.5481 8.56076 17.5481 8.56504 17.5481C8.56931 17.5481 8.57359 17.5481 8.57786 17.5481C8.58213 17.5481 8.58639 17.5481 8.59066 17.5481C8.59492 17.5481 8.59918 17.5481 8.60344 17.5481C8.6077 17.5481 8.61195 17.5481 8.61621 17.5481C8.62046 17.5481 8.62471 17.5481 8.62895 17.5481C8.6332 17.5481 8.63744 17.5481 8.64168 17.5481C8.64593 17.5481 8.65016 17.5481 8.6544 17.5481C8.65863 17.5481 8.66286 17.5481 8.66709 17.5481C8.67132 17.5481 8.67555 17.5481 8.67977 17.5481C8.68399 17.5481 8.68821 17.5481 8.69243 17.5481C8.69664 17.5481 8.70086 17.5481 8.70507 17.5481C8.70928 17.5481 8.71349 17.5481 8.71769 17.5481C8.7219 17.5481 8.7261 17.5481 8.7303 17.5481C8.7345 17.5481 8.73869 17.5481 8.74289 17.5481C8.74708 17.5481 8.75127 17.5481 8.75546 17.5481C8.75964 17.5481 8.76383 17.5481 8.76801 17.5481C8.77219 17.5481 8.77637 17.5481 8.78055 17.5481C8.78472 17.5481 8.78889 17.5481 8.79306 17.5481C8.79723 17.5481 8.8014 17.5481 8.80556 17.5481C8.80973 17.5481 8.81389 17.5481 8.81805 17.5481C8.8222 17.5481 8.82636 17.5481 8.83051 17.5481C8.83466 17.5481 8.83881 17.5481 8.84296 17.5481C8.8471 17.5481 8.85124 17.5481 8.85538 17.5481C8.85952 17.5481 8.86366 17.5481 8.8678 17.5481C8.87193 17.5481 8.87606 17.5481 8.88019 17.5481C8.88432 17.5481 8.88844 17.5481 8.89257 17.5481C8.89669 17.5481 8.90081 17.5481 8.90492 17.5481C8.90904 17.5481 8.91315 17.5481 8.91726 17.5481C8.92137 17.5481 8.92548 17.5481 8.92959 17.5481C8.93369 17.5481 8.93779 17.5481 8.94189 17.5481C8.94599 17.5481 8.95009 17.5481 8.95418 17.5481C8.95827 17.5481 8.96236 17.5481 8.96645 17.5481C8.97053 17.5481 8.97462 17.5481 8.9787 17.5481C8.98278 17.5481 8.98686 17.5481 8.99093 17.5481C8.99501 17.5481 8.99908 17.5481 9.00315 17.5481C9.00722 17.5481 9.01128 17.5481 9.01535 17.5481C9.01941 17.5481 9.02347 17.5481 9.02753 17.5481C9.03159 17.5481 9.03564 17.5481 9.03969 17.5481C9.04374 17.5481 9.04779 17.5481 9.05184 17.5481C9.05588 17.5481 9.05993 17.5481 9.06396 17.5481C9.068 17.5481 9.07204 17.5481 9.07607 17.5481C9.08011 17.5481 9.08414 17.5481 9.08817 17.5481C9.09219 17.5481 9.09622 17.5481 9.10024 17.5481C9.10426 17.5481 9.10828 17.5481 9.1123 17.5481C9.11631 17.5481 9.12033 17.5481 9.12434 17.5481C9.12835 17.5481 9.13235 17.5481 9.13636 17.5481C9.14036 17.5481 9.14436 17.5481 9.14836 17.5481C9.15236 17.5481 9.15636 17.5481 9.16035 17.5481C9.16434 17.5481 9.16833 17.5481 9.17232 17.5481C9.1763 17.5481 9.18029 17.5481 9.18427 17.5481C9.18825 17.5481 9.19222 17.5481 9.1962 17.5481C9.20017 17.5481 9.20415 17.5481 9.20811 17.5481C9.21208 17.5481 9.21605 17.5481 9.22001 17.5481C9.22397 17.5481 9.22793 17.5481 9.23189 17.5481C9.23585 17.5481 9.2398 17.5481 9.24375 17.5481C9.2477 17.5481 9.25165 17.5481 9.2556 17.5481C9.25954 17.5481 9.26348 17.5481 9.26742 17.5481C9.27136 17.5481 9.2753 17.5481 9.27923 17.5481C9.28317 17.5481 9.2871 17.5481 9.29102 17.5481C9.29495 17.5481 9.29888 17.5481 9.3028 17.5481C9.30672 17.5481 9.31064 17.5481 9.31455 17.5481C9.31847 17.5481 9.32238 17.5481 9.32629 17.5481C9.3302 17.5481 9.33411 17.5481 9.33801 17.5481C9.34191 17.5481 9.34582 17.5481 9.34971 17.5481C9.35361 17.5481 9.35751 17.5481 9.3614 17.5481C9.36529 17.5481 9.36918 17.5481 9.37306 17.5481C9.37695 17.5481 9.38083 17.5481 9.38471 17.5481C9.38859 17.5481 9.39247 17.5481 9.39635 17.5481C9.40022 17.5481 9.40409 17.5481 9.40796 17.5481C9.41183 17.5481 9.41569 17.5481 9.41956 17.5481C9.42342 17.5481 9.42728 17.5481 9.43113 17.5481C9.43499 17.5481 9.43884 17.5481 9.44269 17.5481C9.44655 17.5481 9.45039 17.5481 9.45424 17.5481C9.45808 17.5481 9.46192 17.5481 9.46576 17.5481C9.4696 17.5481 9.47344 17.5481 9.47727 17.5481C9.4811 17.5481 9.48493 17.5481 9.48876 17.5481C9.49259 17.5481 9.49641 17.5481 9.50023 17.5481C9.50405 17.5481 9.50787 17.5481 9.51169 17.5481C9.5155 17.5481 9.51931 17.5481 9.52312 17.5481C9.52693 17.5481 9.53074 17.5481 9.53454 17.5481C9.53835 17.5481 9.54215 17.5481 9.54594 17.5481C9.54974 17.5481 9.55354 17.5481 9.55733 17.5481C9.56112 17.5481 9.56491 17.5481 9.56869 17.5481C9.57248 17.5481 9.57626 17.5481 9.58004 17.5481C9.58382 17.5481 9.5876 17.5481 9.59137 17.5481C9.59515 17.5481 9.59892 17.5481 9.60268 17.5481C9.60645 17.5481 9.61022 17.5481 9.61398 17.5481C9.61774 17.5481 9.6215 17.5481 9.62526 17.5481C9.62901 17.5481 9.63277 17.5481 9.63652 17.5481C9.64027 17.5481 9.64401 17.5481 9.64776 17.5481C9.6515 17.5481 9.65524 17.5481 9.65898 17.5481C9.66272 17.5481 9.66646 17.5481 9.67019 17.5481C9.67392 17.5481 9.67765 17.5481 9.68138 17.5481C9.6851 17.5481 9.68883 17.5481 9.69255 17.5481C9.69627 17.5481 9.69999 17.5481 9.7037 17.5481C9.70742 17.5481 9.71113 17.5481 9.71484 17.5481C9.71854 17.5481 9.72225 17.5481 9.72595 17.5481C9.72966 17.5481 9.73336 17.5481 9.73705 17.5481C9.74075 17.5481 9.74444 17.5481 9.74814 17.5481C9.75183 17.5481 9.75552 17.5481 9.7592 17.5481C9.76289 17.5481 9.76657 17.5481 9.77025 17.5481C9.77393 17.5481 9.7776 17.5481 9.78128 17.5481C9.78495 17.5481 9.78862 17.5481 9.79229 17.5481C9.79596 17.5481 9.79962 17.5481 9.80328 17.5481C9.80694 17.5481 9.8106 17.5481 9.81426 17.5481C9.81791 17.5481 9.82157 17.5481 9.82522 17.5481C9.82887 17.5481 9.83251 17.5481 9.83616 17.5481C9.8398 17.5481 9.84344 17.5481 9.84708 17.5481C9.85072 17.5481 9.85435 17.5481 9.85799 17.5481C9.86162 17.5481 9.86525 17.5481 9.86887 17.5481C9.8725 17.5481 9.87612 17.5481 9.87974 17.5481C9.88336 17.5481 9.88698 17.5481 9.89059 17.5481C9.89421 17.5481 9.89782 17.5481 9.90143 17.5481C9.90504 17.5481 9.90864 17.5481 9.91224 17.5481C9.91585 17.5481 9.91945 17.5481 9.92304 17.5481C9.92664 17.5481 9.93023 17.5481 9.93383 17.5481C9.93742 17.5481 9.941 17.5481 9.94459 17.5481C9.94817 17.5481 9.95176 17.5481 9.95533 17.5481C9.95891 17.5481 9.96249 17.5481 9.96606 17.5481C9.96964 17.5481 9.97321 17.5481 9.97677 17.5481C9.98034 17.5481 9.9839 17.5481 9.98746 17.5481C9.99103 17.5481 9.99458 17.5481 9.99814 17.5481C10.0017 17.5481 10.0052 17.5481 10.0088 17.5481C10.0123 17.5481 10.0159 17.5481 10.0194 17.5481C10.023 17.5481 10.0265 17.5481 10.0301 17.5481C10.0336 17.5481 10.0371 17.5481 10.0407 17.5481C10.0442 17.5481 10.0477 17.5481 10.0512 17.5481C10.0548 17.5481 10.0583 17.5481 10.0618 17.5481C10.0653 17.5481 10.0689 17.5481 10.0724 17.5481C10.0759 17.5481 10.0794 17.5481 10.0829 17.5481C10.0864 17.5481 10.0899 17.5481 10.0934 17.5481C10.0969 17.5481 10.1004 17.5481 10.1039 17.5481C10.1074 17.5481 10.1109 17.5481 10.1144 17.5481C10.1179 17.5481 10.1214 17.5481 10.1249 17.5481C10.1283 17.5481 10.1318 17.5481 10.1353 17.5481C10.1388 17.5481 10.1423 17.5481 10.1457 17.5481C10.1492 17.5481 10.1527 17.5481 10.1561 17.5481C10.1596 17.5481 10.1631 17.5481 10.1665 17.5481C10.17 17.5481 10.1734 17.5481 10.1769 17.5481C10.1804 17.5481 10.1838 17.5481 10.1873 17.5481C10.1907 17.5481 10.1942 17.5481 10.1976 17.5481C10.201 17.5481 10.2045 17.5481 10.2079 17.5481C10.2114 17.5481 10.2148 17.5481 10.2182 17.5481C10.2216 17.5481 10.2251 17.5481 10.2285 17.5481C10.2319 17.5481 10.2354 17.5481 10.2388 17.5481C10.2422 17.5481 10.2456 17.5481 10.249 17.5481C10.2524 17.5481 10.2558 17.5481 10.2593 17.5481C10.2627 17.5481 10.2661 17.5481 10.2695 17.5481C10.2729 17.5481 10.2763 17.5481 10.2797 17.5481C10.2831 17.5481 10.2865 17.5481 10.2898 17.5481C10.2932 17.5481 10.2966 17.5481 10.3 17.5481C10.3034 17.5481 10.3068 17.5481 10.3101 17.5481C10.3135 17.5481 10.3169 17.5481 10.3203 17.5481C10.3236 17.5481 10.327 17.5481 10.3304 17.5481C10.3337 17.5481 10.3371 17.5481 10.3405 17.5481C10.3438 17.5481 10.3472 17.5481 10.3505 17.5481C10.3539 17.5481 10.3572 17.5481 10.3606 17.5481C10.3639 17.5481 10.3673 17.5481 10.3706 17.5481C10.374 17.5481 10.3773 17.5481 10.3807 17.5481C10.384 17.5481 10.3873 17.5481 10.3907 17.5481C10.394 17.5481 10.3973 17.5481 10.4006 17.5481C10.404 17.5481 10.4073 17.5481 10.4106 17.5481C10.4139 17.5481 10.4172 17.5481 10.4206 17.5481C10.4239 17.5481 10.4272 17.5481 10.4305 17.5481C10.4338 17.5481 10.4371 17.5481 10.4404 17.5481C10.4437 17.5481 10.447 17.5481 10.4503 17.5481C10.4536 17.5481 10.4569 17.5481 10.4602 17.5481C10.4635 17.5481 10.4667 17.5481 10.47 17.5481C10.4733 17.5481 10.4766 17.5481 10.4799 17.5481C10.4831 17.5481 10.4864 17.5481 10.4897 17.5481C10.493 17.5481 10.4962 17.5481 10.4995 17.5481C10.5028 17.5481 10.506 17.5481 10.5093 17.5481C10.5126 17.5481 10.5158 17.5481 10.5191 17.5481C10.5223 17.5481 10.5256 17.5481 10.5288 17.5481C10.5321 17.5481 10.5353 17.5481 10.5386 17.5481C10.5418 17.5481 10.545 17.5481 10.5483 17.5481C10.5515 17.5481 10.5547 17.5481 10.558 17.5481C10.5612 17.5481 10.5644 17.5481 10.5677 17.5481C10.5709 17.5481 10.5741 17.5481 10.5773 17.5481C10.5805 17.5481 10.5838 17.5481 10.587 17.5481C10.5902 17.5481 10.5934 17.5481 10.5966 17.5481C10.5998 17.5481 10.603 17.5481 10.6062 17.5481C10.6094 17.5481 10.6126 17.5481 10.6158 17.5481C10.619 17.5481 10.6222 17.5481 10.6254 17.5481C10.6286 17.5481 10.6318 17.5481 10.6349 17.5481C10.6381 17.5481 10.6413 17.5481 10.6445 17.5481C10.6477 17.5481 10.6508 17.5481 10.654 17.5481C10.6572 17.5481 10.6603 17.5481 10.6635 17.5481C10.6667 17.5481 10.6698 17.5481 10.673 17.5481C10.6762 17.5481 10.6793 17.5481 10.6825 17.5481C10.6856 17.5481 10.6888 17.5481 10.6919 17.5481C10.6951 17.5481 10.6982 17.5481 10.7013 17.5481C10.7045 17.5481 10.7076 17.5481 10.7108 17.5481C10.7139 17.5481 10.717 17.5481 10.7202 17.5481C10.7233 17.5481 10.7264 17.5481 10.7295 17.5481C10.7327 17.5481 10.7358 17.5481 10.7389 17.5481C10.742 17.5481 10.7451 17.5481 10.7483 17.5481C10.7514 17.5481 10.7545 17.5481 10.7576 17.5481C10.7607 17.5481 10.7638 17.5481 10.7669 17.5481C10.77 17.5481 10.7731 17.5481 10.7762 17.5481C10.7793 17.5481 10.7824 17.5481 10.7855 17.5481C10.7886 17.5481 10.7916 17.5481 10.7947 17.5481C10.7978 17.5481 10.8009 17.5481 10.804 17.5481C10.807 17.5481 10.8101 17.5481 10.8132 17.5481C10.8163 17.5481 10.8193 17.5481 10.8224 17.5481C10.8255 17.5481 10.8285 17.5481 10.8316 17.5481C10.8346 17.5481 10.8377 17.5481 10.8407 17.5481C10.8438 17.5481 10.8468 17.5481 10.8499 17.5481C10.8529 17.5481 10.856 17.5481 10.859 17.5481C10.8621 17.5481 10.8651 17.5481 10.8681 17.5481C10.8712 17.5481 10.8742 17.5481 10.8772 17.5481C10.8803 17.5481 10.8833 17.5481 10.8863 17.5481V16.5481ZM3.9195 16.5481C3.72697 16.5481 3.5 16.3647 3.5 16.0469H2.5C2.5 16.8352 3.09624 17.5481 3.9195 17.5481V16.5481ZM3.5 16.0469V8.07336H2.5V16.0469H3.5ZM3.80587 0.548126C2.82216 0.548126 2.01748 1.28256 1.79898 2.24887L2.77435 2.46942C2.90433 1.89461 3.35236 1.54813 3.80587 1.54813V0.548126ZM1.79898 2.24885L0.512317 7.93783L1.48768 8.15842L2.77435 2.46944L1.79898 2.24885ZM1 8.54813H20V7.54813H1V8.54813ZM20.4877 7.93781L19.2008 2.24883L18.2254 2.46946L19.5123 8.15844L20.4877 7.93781ZM19.2008 2.24887C18.9823 1.28256 18.1776 0.548126 17.1939 0.548126V1.54813C17.6474 1.54813 18.0954 1.89461 18.2254 2.46942L19.2008 2.24887ZM17.1939 0.548126H3.80587V1.54813H17.1939V0.548126ZM19.5 15.5487C19.5 17.7578 17.7091 19.5487 15.5 19.5487V20.5487C18.2614 20.5487 20.5 18.3101 20.5 15.5487H19.5ZM15.5 19.5487C13.2909 19.5487 11.5 17.7578 11.5 15.5487H10.5C10.5 18.3101 12.7386 20.5487 15.5 20.5487V19.5487ZM11.5 15.5487C11.5 13.3395 13.2909 11.5487 15.5 11.5487V10.5487C12.7386 10.5487 10.5 12.7872 10.5 15.5487H11.5ZM15.5 11.5487C17.7091 11.5487 19.5 13.3395 19.5 15.5487H20.5C20.5 12.7872 18.2614 10.5487 15.5 10.5487V11.5487ZM16.0034 18.201V17.2565H15.0034V18.201H16.0034ZM16.2553 14.1035C16.5468 13.6973 16.5466 13.6972 16.5464 13.6971C16.5464 13.697 16.5462 13.6969 16.546 13.6968C16.5458 13.6966 16.5455 13.6964 16.5452 13.6962C16.5447 13.6958 16.5441 13.6954 16.5435 13.695C16.5423 13.6941 16.541 13.6932 16.5397 13.6923C16.5371 13.6905 16.5341 13.6884 16.5309 13.6863C16.5244 13.6819 16.5167 13.6769 16.5079 13.6714C16.4903 13.6604 16.4681 13.6473 16.4411 13.633C16.3871 13.6042 16.3143 13.5704 16.2225 13.5381C16.038 13.4732 15.7807 13.4161 15.4499 13.4161V14.4161C15.6634 14.4161 15.8088 14.4527 15.8909 14.4815C15.9324 14.4961 15.9589 14.5091 15.9709 14.5155C15.9769 14.5187 15.9793 14.5203 15.9781 14.5195C15.9775 14.5191 15.976 14.5182 15.9736 14.5166C15.9724 14.5158 15.9709 14.5148 15.9693 14.5137C15.9685 14.5131 15.9676 14.5125 15.9667 14.5118C15.9662 14.5115 15.9657 14.5112 15.9652 14.5108C15.965 14.5106 15.9647 14.5105 15.9645 14.5103C15.9644 14.5102 15.9642 14.51 15.9641 14.51C15.9639 14.5099 15.9637 14.5097 16.2553 14.1035ZM15.4499 13.4161C14.86 13.4161 14.047 13.8226 14.047 14.7178H15.047C15.047 14.6301 15.0811 14.5681 15.1473 14.5158C15.2238 14.4553 15.338 14.4161 15.4499 14.4161V13.4161ZM14.047 14.7178C14.047 15.2629 14.4754 15.5841 14.7226 15.7338C14.8654 15.8203 15.0094 15.8868 15.1214 15.9351C15.1772 15.9592 15.2293 15.9805 15.2669 15.9961C15.2866 16.0042 15.3018 16.0106 15.314 16.0159C15.32 16.0185 15.3244 16.0205 15.3277 16.0219C15.331 16.0235 15.3322 16.0241 15.3317 16.0238L15.7771 15.1285C15.7171 15.0986 15.5839 15.0455 15.5173 15.0168C15.4231 14.9762 15.3268 14.9306 15.2407 14.8785C15.0303 14.751 15.047 14.6888 15.047 14.7178H14.047ZM15.3319 16.0239C15.3744 16.045 15.4236 16.0655 15.4595 16.0804C15.5012 16.0977 15.5406 16.1138 15.5839 16.1326C15.67 16.1702 15.7526 16.2106 15.8242 16.2569C15.979 16.3569 15.9891 16.4186 15.9891 16.4476H16.9891C16.9891 15.9122 16.6303 15.5871 16.367 15.417C16.2296 15.3282 16.0908 15.2627 15.9832 15.2158C15.8458 15.156 15.8148 15.1472 15.777 15.1284L15.3319 16.0239ZM15.9891 16.4476C15.9891 16.5585 15.9536 16.6067 15.8993 16.6453C15.823 16.6996 15.667 16.7565 15.4053 16.7565V17.7565C15.7886 17.7565 16.1745 17.6767 16.4788 17.4603C16.8051 17.2283 16.9891 16.872 16.9891 16.4476H15.9891ZM15.4053 16.7565C15.3157 16.7565 15.1626 16.7193 14.995 16.6589C14.9191 16.6315 14.8524 16.6039 14.8048 16.5832C14.7812 16.5729 14.7628 16.5645 14.7508 16.559C14.7448 16.5562 14.7404 16.5542 14.7379 16.553C14.7366 16.5524 14.7358 16.552 14.7355 16.5518C14.7353 16.5518 14.7353 16.5517 14.7354 16.5518C14.7354 16.5518 14.7355 16.5518 14.7356 16.5519C14.7356 16.5519 14.7357 16.5519 14.7357 16.5519C14.7358 16.552 14.7358 16.552 14.7358 16.552C14.7359 16.552 14.7359 16.5521 14.5177 17.0019C14.2994 17.4517 14.2995 17.4518 14.2995 17.4518C14.2996 17.4518 14.2996 17.4518 14.2997 17.4519C14.2998 17.4519 14.2999 17.452 14.3 17.452C14.3002 17.4521 14.3005 17.4523 14.3008 17.4524C14.3013 17.4527 14.302 17.453 14.3029 17.4534C14.3045 17.4542 14.3067 17.4553 14.3094 17.4565C14.3147 17.459 14.322 17.4625 14.3311 17.4667C14.3492 17.4751 14.3746 17.4866 14.4059 17.5002C14.468 17.5272 14.5552 17.5633 14.6558 17.5996C14.8414 17.6665 15.1321 17.7565 15.4053 17.7565V16.7565ZM16.0034 13.9161V12.9716H15.0034V13.9161H16.0034ZM6 17.0487V12.0487H5V17.0487H6ZM5.5 12.5487H9V11.5487H5.5V12.5487ZM8.5 12.0487V17.0487H9.5V12.0487H8.5Z" fill="#0F315C"/>
</svg>
