<svg width="33" height="32" viewBox="0 0 33 32" fill="none" xmlns="http://www.w3.org/2000/svg">
<path d="M0.5 4C0.5 1.79086 2.29086 0 4.5 0H28.5C30.7091 0 32.5 1.79086 32.5 4V28C32.5 30.2091 30.7091 32 28.5 32H4.5C2.29086 32 0.5 30.2091 0.5 28V4Z" fill="#F2994A"/>
<path d="M10.637 20.224H14.317V22H8.39697V10.832H10.637V20.224Z" fill="#F0F0F0"/>
<path d="M19.6447 10.832C20.8181 10.832 21.8474 11.0613 22.7327 11.52C23.6287 11.9787 24.3167 12.6347 24.7967 13.488C25.2874 14.3307 25.5327 15.312 25.5327 16.432C25.5327 17.552 25.2874 18.5333 24.7967 19.376C24.3167 20.208 23.6287 20.8533 22.7327 21.312C21.8474 21.7707 20.8181 22 19.6447 22H15.7407V10.832H19.6447ZM19.5647 20.096C20.7381 20.096 21.6447 19.776 22.2847 19.136C22.9247 18.496 23.2447 17.5947 23.2447 16.432C23.2447 15.2693 22.9247 14.3627 22.2847 13.712C21.6447 13.0507 20.7381 12.72 19.5647 12.72H17.9807V20.096H19.5647Z" fill="#F0F0F0"/>
</svg>
