<svg width="24" height="24" viewBox="0 0 24 24" fill="none" xmlns="http://www.w3.org/2000/svg">
<path fill-rule="evenodd" clip-rule="evenodd" d="M19.7838 2.08861C19.5889 1.95358 19.3196 1.97287 19.146 2.14648C18.9507 2.3418 18.9507 2.6582 19.146 2.85352L20.2925 4H16.4995L16.4096 4.00805C16.1762 4.05035 15.9995 4.25434 15.9995 4.5C15.9995 4.77637 16.2231 5 16.4995 5H20.2925L19.146 6.14648L19.0881 6.21574C18.9531 6.41061 18.9724 6.6799 19.146 6.85352C19.2437 6.95117 19.3716 7 19.4995 7C19.6274 7 19.7554 6.95117 19.853 6.85352L21.8524 4.85413L21.8955 4.80492C21.9221 4.77024 21.9441 4.73193 21.9611 4.69092C22.0116 4.56873 22.0116 4.43127 21.9611 4.30908C21.9356 4.24756 21.8988 4.19214 21.8524 4.14587L19.853 2.14648L19.7838 2.08861ZM11.595 4.94727C11.8407 4.94727 12.0447 5.12396 12.087 5.35733L12.095 5.44727V7.01581C12.8017 7.06089 13.4605 7.2307 13.9744 7.40562L14.2646 7.51022L14.5154 7.6103L14.8802 7.77394L15.0315 7.85059C15.2737 7.98242 15.3626 8.28516 15.2307 8.52734C15.1144 8.74262 14.8631 8.83907 14.6365 8.76457L14.5431 8.72314L14.4206 8.66183L14.1738 8.54978L13.9497 8.45773C13.9087 8.44168 13.8661 8.42537 13.8219 8.40894L13.5383 8.30986C13.0368 8.14581 12.3996 7.99609 11.7444 7.99609C10.6253 7.99609 9.43485 8.47363 9.43485 9.35742C9.43485 10.1225 10.1442 10.5866 11.2994 11.0547L11.7006 11.2113L12.3597 11.4521L12.9101 11.6508L13.2723 11.7879C14.5867 12.3009 15.722 12.9428 15.722 14.2207C15.722 15.6933 14.4607 16.6024 12.3348 16.7074L12.095 16.7157V18.2617C12.095 18.5381 11.8714 18.7617 11.595 18.7617C11.3493 18.7617 11.1454 18.585 11.1031 18.3517L11.095 18.2617V16.6823C9.97844 16.5645 9.23313 16.2256 8.81976 15.9774L8.6524 15.8704L8.53132 15.7831L8.45567 15.7223L8.42509 15.6953C8.22391 15.5068 8.21317 15.1904 8.40165 14.9883C8.57005 14.8112 8.83799 14.7815 9.03743 14.9094L9.15478 15.0014L9.2413 15.0621L9.37359 15.1438C9.76231 15.3684 10.5891 15.7246 11.9212 15.7246L12.1339 15.7215L12.3778 15.7103L12.6446 15.6881L12.9259 15.652C13.783 15.5198 14.722 15.1605 14.722 14.2207C14.722 13.6713 14.1912 13.2821 13.4474 12.9439L13.1165 12.8017L12.765 12.6639L11.2945 12.1287L10.9317 11.9871C10.8717 11.9629 10.812 11.9382 10.7527 11.9131L10.4023 11.7572C9.3126 11.2453 8.43485 10.5489 8.43485 9.35742C8.43485 8.19986 9.43252 7.31316 10.9009 7.06702L11.095 7.03857V5.44727C11.095 5.1709 11.3186 4.94727 11.595 4.94727ZM4.14594 17.1465C4.34125 16.9512 4.65765 16.9512 4.85297 17.1465C5.02658 17.3201 5.04587 17.5894 4.91084 17.7843L4.85297 17.8535L3.70648 19H7.49945C7.77582 19 7.99945 19.2236 7.99945 19.5C7.99945 19.7457 7.82275 19.9497 7.58939 19.992L7.49945 20H3.70648L4.85297 21.1465C5.04828 21.3418 5.04828 21.6582 4.85297 21.8535C4.75531 21.9512 4.62738 22 4.49945 22C4.4035 22 4.30756 21.9725 4.22438 21.9176L4.14594 21.8535L2.14655 19.8541C2.10016 19.8079 2.06335 19.7524 2.0379 19.6909C1.98737 19.5687 1.98737 19.4313 2.0379 19.3091C2.05487 19.2681 2.07688 19.2298 2.10342 19.1951L2.14655 19.1459L4.14594 17.1465Z" fill="#104F98"/>
</svg>
