<svg width="24" height="24" viewBox="0 0 24 24" fill="none" xmlns="http://www.w3.org/2000/svg">
<path fill-rule="evenodd" clip-rule="evenodd" d="M20.5985 4.5C21.6065 4.5 22.4034 5.36551 22.4738 6.43632L22.4788 6.59062V15.3771C22.4788 16.466 21.7277 17.381 20.741 17.4619L20.5985 17.4677L20.495 17.467L20.4952 18.4048C20.4952 19.4933 19.7468 20.4087 18.7626 20.4896L18.6204 20.4954H4.37478C3.36921 20.4954 2.57515 19.6296 2.50504 18.5591L2.5 18.4048V9.56427C2.5 8.47576 3.24836 7.56043 4.23262 7.47947L4.37478 7.47365L4.483 7.473L4.48366 6.59062C4.48366 5.50175 5.23478 4.58675 6.22153 4.50582L6.36405 4.5H20.5985ZM4.48324 8.47302L4.37503 8.47367C3.94218 8.47367 3.55891 8.88134 3.50637 9.43424L3.50024 9.56429V18.4048C3.50024 18.9785 3.85259 19.4272 4.27615 19.4883L4.37503 19.4955H18.6206C19.0535 19.4955 19.4368 19.0878 19.4893 18.5349L19.4954 18.4048L19.4952 17.467L6.36429 17.4678C5.35626 17.4678 4.55932 16.6023 4.48896 15.5314L4.48391 15.3771L4.48324 8.47302ZM5.48328 14.484H21.4783L21.4791 15.3771L21.473 15.5071C21.4202 16.0598 21.0349 16.4677 20.5987 16.4677H6.36432L6.26469 16.4606C5.838 16.3994 5.48394 15.9505 5.48394 15.3771L5.48328 14.484ZM21.4783 12.494H5.48328V13.484H21.4783V12.494ZM6.36432 5.49998H20.5987L20.6984 5.50711C21.1251 5.56832 21.4791 6.01726 21.4791 6.59061L21.4783 11.494H5.48328L5.48394 6.59061L5.49009 6.46062C5.5429 5.90797 5.92812 5.49998 6.36432 5.49998Z" fill="#104F98"/>
</svg>
