<svg width="64" height="36" viewBox="0 0 64 36" fill="none" xmlns="http://www.w3.org/2000/svg">
<path d="M12.6712 6.3614L30.2655 24.3043L28.5583 29.4244L15.1445 15.7823L9.63356 32.3135L4.56038 32.2698L12.6712 6.3614ZM11.1407 1.19222e-06L0 35.5904L12.0505 35.6967L16.5984 22.0546L30.0122 35.6967L34.1052 23.4195L11.1407 1.19222e-06Z" fill="#307FE2"/>
<path d="M53.4942 3.38316L58.5674 3.42693L50.4581 29.3337L32.8638 11.3908L34.571 6.27073L47.9849 19.9128L53.4942 3.38316ZM51.0788 0L46.5309 13.6421L33.1171 0L29.0242 12.2772L51.9871 35.6951L63.1278 0.10631L51.0788 0Z" fill="#F2B025"/>
</svg>
