<svg width="24" height="24" viewBox="0 0 24 24" fill="none" xmlns="http://www.w3.org/2000/svg">
<path fill-rule="evenodd" clip-rule="evenodd" d="M21.9849 8.42493V5.77295C21.9849 4.77686 21.1743 3.96631 20.1782 3.96631H17.9897V2.50146C17.9897 2.2251 17.7661 2.00146 17.4897 2.00146C17.2134 2.00146 16.9897 2.2251 16.9897 2.50146V3.96631H7.01025V2.50146C7.01025 2.2251 6.78662 2.00146 6.51025 2.00146C6.23389 2.00146 6.01025 2.2251 6.01025 2.50146V3.96631H3.81348C2.81738 3.96631 2.00684 4.77686 2.00684 5.77295V8.46606C2.00644 8.47154 2.00495 8.47664 2.00346 8.48174C2.00173 8.48764 2 8.49354 2 8.5C2 8.50646 2.00173 8.51236 2.00346 8.51826C2.00495 8.52336 2.00644 8.52846 2.00684 8.53394V20.1836C2.00684 21.1797 2.81738 21.9902 3.81348 21.9902H20.1782C21.1743 21.9902 21.9849 21.1797 21.9849 20.1836V8.57507C21.9864 8.5651 21.9891 8.55552 21.9918 8.54596C21.9959 8.53108 22 8.51624 22 8.5C22 8.48376 21.9959 8.46892 21.9918 8.45404L21.9917 8.45402C21.9891 8.44447 21.9864 8.4349 21.9849 8.42493ZM3.81323 4.96632H6.01001V6.50002C6.01001 6.77638 6.23364 7.00002 6.51001 7.00002C6.78638 7.00002 7.01001 6.77638 7.01001 6.50002V4.96632H16.9895V6.50002C16.9895 6.77638 17.2131 7.00002 17.4895 7.00002C17.7659 7.00002 17.9895 6.77638 17.9895 6.50002V4.96632H20.178C20.6228 4.96632 20.9846 5.32814 20.9846 5.77296V8.00002H3.00659V5.77296C3.00659 5.32814 3.36841 4.96632 3.81323 4.96632ZM3.81323 20.9902H20.178C20.6228 20.9902 20.9846 20.6284 20.9846 20.1836V9H3.00659V20.1836C3.00659 20.6284 3.36841 20.9902 3.81323 20.9902Z" fill="#104F98"/>
</svg>
