<svg width="122" height="34" viewBox="0 0 122 34" fill="none" xmlns="http://www.w3.org/2000/svg">
<path d="M0.5 5C0.5 2.79086 2.29086 1 4.5 1H28.5C30.7091 1 32.5 2.79086 32.5 5V29C32.5 31.2091 30.7091 33 28.5 33H4.5C2.29086 33 0.5 31.2091 0.5 29V5Z" fill="#F2994A"/>
<path d="M10.637 21.224H14.317V23H8.39697V11.832H10.637V21.224Z" fill="#F0F0F0"/>
<path d="M19.6447 11.832C20.8181 11.832 21.8474 12.0613 22.7327 12.52C23.6287 12.9787 24.3167 13.6347 24.7967 14.488C25.2874 15.3307 25.5327 16.312 25.5327 17.432C25.5327 18.552 25.2874 19.5333 24.7967 20.376C24.3167 21.208 23.6287 21.8533 22.7327 22.312C21.8474 22.7707 20.8181 23 19.6447 23H15.7407V11.832H19.6447ZM19.5647 21.096C20.7381 21.096 21.6447 20.776 22.2847 20.136C22.9247 19.496 23.2447 18.5947 23.2447 17.432C23.2447 16.2693 22.9247 15.3627 22.2847 14.712C21.6447 14.0507 20.7381 13.72 19.5647 13.72H17.9807V21.096H19.5647Z" fill="#F0F0F0"/>
<path d="M44.636 13.228C43.972 13.228 43.396 13.104 42.908 12.856C42.428 12.6 42.056 12.232 41.792 11.752C41.536 11.272 41.408 10.688 41.408 10V9.556H43.352V10.108C43.352 10.492 43.464 10.804 43.688 11.044C43.92 11.276 44.236 11.392 44.636 11.392C45.028 11.392 45.336 11.276 45.56 11.044C45.792 10.804 45.908 10.492 45.908 10.108V5.716H47.876V10C47.876 10.688 47.744 11.272 47.48 11.752C47.224 12.232 46.852 12.6 46.364 12.856C45.884 13.104 45.308 13.228 44.636 13.228ZM42.428 5.956V4.24H47.876V5.956H42.428ZM52.7909 13.228C52.2149 13.228 51.7029 13.14 51.2549 12.964C50.8069 12.78 50.4269 12.532 50.1149 12.22C49.8109 11.908 49.5789 11.552 49.4189 11.152C49.2589 10.744 49.1789 10.316 49.1789 9.868V9.592C49.1789 9.136 49.2589 8.704 49.4189 8.296C49.5869 7.88 49.8269 7.516 50.1389 7.204C50.4589 6.892 50.8429 6.648 51.2909 6.472C51.7389 6.288 52.2389 6.196 52.7909 6.196C53.3589 6.196 53.8629 6.288 54.3029 6.472C54.7509 6.648 55.1309 6.892 55.4429 7.204C55.7549 7.516 55.9949 7.88 56.1629 8.296C56.3309 8.704 56.4149 9.136 56.4149 9.592V9.868C56.4149 10.316 56.3349 10.744 56.1749 11.152C56.0149 11.552 55.7789 11.908 55.4669 12.22C55.1629 12.532 54.7869 12.78 54.3389 12.964C53.8909 13.14 53.3749 13.228 52.7909 13.228ZM52.7909 11.608C53.1669 11.608 53.4789 11.528 53.7269 11.368C53.9749 11.208 54.1629 10.984 54.2909 10.696C54.4269 10.408 54.4949 10.088 54.4949 9.736C54.4949 9.36 54.4269 9.032 54.2909 8.752C54.1549 8.464 53.9589 8.236 53.7029 8.068C53.4549 7.9 53.1509 7.816 52.7909 7.816C52.4389 7.816 52.1349 7.9 51.8789 8.068C51.6229 8.236 51.4269 8.464 51.2909 8.752C51.1629 9.032 51.0989 9.36 51.0989 9.736C51.0989 10.088 51.1629 10.408 51.2909 10.696C51.4189 10.984 51.6109 11.208 51.8669 11.368C52.1229 11.528 52.4309 11.608 52.7909 11.608ZM57.7549 13V4.24H59.6749V9.292H59.3869C59.3869 8.628 59.4709 8.068 59.6389 7.612C59.8069 7.156 60.0549 6.812 60.3829 6.58C60.7109 6.34 61.1229 6.22 61.6189 6.22H61.7029C62.4309 6.22 62.9869 6.48 63.3709 7C63.7549 7.512 63.9469 8.264 63.9469 9.256V13H62.0269V9.136C62.0269 8.776 61.9189 8.488 61.7029 8.272C61.4949 8.048 61.2189 7.936 60.8749 7.936C60.5149 7.936 60.2229 8.052 59.9989 8.284C59.7829 8.516 59.6749 8.824 59.6749 9.208V13H57.7549ZM65.583 13V6.424H67.107V9.244H66.999C66.999 8.572 67.083 8.012 67.251 7.564C67.427 7.116 67.691 6.78 68.043 6.556C68.395 6.332 68.823 6.22 69.327 6.22H69.411C70.179 6.22 70.763 6.472 71.163 6.976C71.571 7.472 71.775 8.228 71.775 9.244V13H69.855V9.136C69.855 8.784 69.751 8.496 69.543 8.272C69.335 8.048 69.055 7.936 68.703 7.936C68.343 7.936 68.051 8.052 67.827 8.284C67.611 8.508 67.503 8.804 67.503 9.172V13H65.583ZM77.7667 13.048V11.212H79.3987C79.8067 11.212 80.1747 11.152 80.5027 11.032C80.8307 10.904 81.1107 10.728 81.3427 10.504C81.5747 10.272 81.7507 9.996 81.8707 9.676C81.9907 9.348 82.0507 8.988 82.0507 8.596C82.0507 8.188 81.9907 7.824 81.8707 7.504C81.7507 7.184 81.5747 6.912 81.3427 6.688C81.1107 6.464 80.8307 6.296 80.5027 6.184C80.1747 6.064 79.8067 6.004 79.3987 6.004H77.7667V4.168H79.2907C80.0827 4.168 80.7747 4.284 81.3667 4.516C81.9587 4.748 82.4547 5.064 82.8547 5.464C83.2547 5.864 83.5507 6.324 83.7427 6.844C83.9427 7.356 84.0427 7.896 84.0427 8.464V8.728C84.0427 9.256 83.9427 9.78 83.7427 10.3C83.5507 10.812 83.2547 11.276 82.8547 11.692C82.4547 12.1 81.9587 12.428 81.3667 12.676C80.7747 12.924 80.0827 13.048 79.2907 13.048H77.7667ZM76.0387 13.048V4.168H78.0067V13.048H76.0387ZM88.5097 13.228C87.9337 13.228 87.4217 13.14 86.9737 12.964C86.5257 12.78 86.1457 12.532 85.8337 12.22C85.5297 11.908 85.2977 11.552 85.1377 11.152C84.9777 10.744 84.8977 10.316 84.8977 9.868V9.592C84.8977 9.136 84.9777 8.704 85.1377 8.296C85.3057 7.88 85.5457 7.516 85.8577 7.204C86.1777 6.892 86.5617 6.648 87.0097 6.472C87.4577 6.288 87.9577 6.196 88.5097 6.196C89.0777 6.196 89.5817 6.288 90.0217 6.472C90.4697 6.648 90.8497 6.892 91.1617 7.204C91.4737 7.516 91.7137 7.88 91.8817 8.296C92.0497 8.704 92.1337 9.136 92.1337 9.592V9.868C92.1337 10.316 92.0537 10.744 91.8937 11.152C91.7337 11.552 91.4977 11.908 91.1857 12.22C90.8817 12.532 90.5057 12.78 90.0577 12.964C89.6097 13.14 89.0937 13.228 88.5097 13.228ZM88.5097 11.608C88.8857 11.608 89.1977 11.528 89.4457 11.368C89.6937 11.208 89.8817 10.984 90.0097 10.696C90.1457 10.408 90.2137 10.088 90.2137 9.736C90.2137 9.36 90.1457 9.032 90.0097 8.752C89.8737 8.464 89.6777 8.236 89.4217 8.068C89.1737 7.9 88.8697 7.816 88.5097 7.816C88.1577 7.816 87.8537 7.9 87.5977 8.068C87.3417 8.236 87.1457 8.464 87.0097 8.752C86.8817 9.032 86.8177 9.36 86.8177 9.736C86.8177 10.088 86.8817 10.408 87.0097 10.696C87.1377 10.984 87.3297 11.208 87.5857 11.368C87.8417 11.528 88.1497 11.608 88.5097 11.608ZM96.4857 13.228C95.9257 13.228 95.4297 13.132 94.9977 12.94C94.5737 12.748 94.2177 12.492 93.9297 12.172C93.6497 11.844 93.4337 11.48 93.2817 11.08C93.1377 10.672 93.0657 10.256 93.0657 9.832V9.592C93.0657 9.152 93.1377 8.732 93.2817 8.332C93.4337 7.924 93.6497 7.56 93.9297 7.24C94.2097 6.92 94.5577 6.668 94.9737 6.484C95.3977 6.292 95.8777 6.196 96.4137 6.196C97.1177 6.196 97.7097 6.356 98.1897 6.676C98.6777 6.988 99.0497 7.4 99.3057 7.912C99.5617 8.416 99.6897 8.968 99.6897 9.568V10.216H93.8697V9.124H98.5257L97.9017 9.628C97.9017 9.236 97.8457 8.9 97.7337 8.62C97.6217 8.34 97.4537 8.128 97.2297 7.984C97.0137 7.832 96.7417 7.756 96.4137 7.756C96.0777 7.756 95.7937 7.832 95.5617 7.984C95.3297 8.136 95.1537 8.36 95.0337 8.656C94.9137 8.944 94.8537 9.3 94.8537 9.724C94.8537 10.116 94.9097 10.46 95.0217 10.756C95.1337 11.044 95.3097 11.268 95.5497 11.428C95.7897 11.588 96.1017 11.668 96.4857 11.668C96.8377 11.668 97.1257 11.6 97.3497 11.464C97.5737 11.328 97.7257 11.16 97.8057 10.96H99.5697C99.4737 11.4 99.2857 11.792 99.0057 12.136C98.7257 12.48 98.3737 12.748 97.9497 12.94C97.5257 13.132 97.0377 13.228 96.4857 13.228Z" fill="#262626"/>
<path d="M41.336 30L44.492 21.24H46.484L49.736 30H48.524L45.584 22.008L46.16 22.296H44.744L45.356 22.008L42.512 30H41.336ZM43.22 27.384L43.616 26.328H47.396L47.792 27.384H43.22ZM53.528 32.496C53.232 32.496 52.932 32.484 52.628 32.46C52.332 32.436 52.048 32.404 51.776 32.364V31.392C52.064 31.432 52.364 31.464 52.676 31.488C52.996 31.52 53.296 31.536 53.576 31.536C54.16 31.536 54.624 31.456 54.968 31.296C55.32 31.144 55.572 30.9 55.724 30.564C55.884 30.236 55.964 29.812 55.964 29.292V28.068L56.348 27.156C56.324 27.804 56.188 28.344 55.94 28.776C55.692 29.2 55.368 29.52 54.968 29.736C54.576 29.944 54.14 30.048 53.66 30.048C53.212 30.048 52.8 29.964 52.424 29.796C52.056 29.62 51.736 29.38 51.464 29.076C51.2 28.772 50.992 28.424 50.84 28.032C50.696 27.632 50.624 27.212 50.624 26.772V26.556C50.624 26.108 50.7 25.692 50.852 25.308C51.004 24.916 51.216 24.576 51.488 24.288C51.76 24 52.084 23.776 52.46 23.616C52.844 23.456 53.264 23.376 53.72 23.376C54.256 23.376 54.728 23.492 55.136 23.724C55.544 23.948 55.864 24.28 56.096 24.72C56.336 25.152 56.468 25.684 56.492 26.316L56.156 26.328V23.592H57.068V29.244C57.068 30.012 56.948 30.632 56.708 31.104C56.476 31.584 56.1 31.936 55.58 32.16C55.068 32.384 54.384 32.496 53.528 32.496ZM53.876 28.992C54.26 28.992 54.608 28.908 54.92 28.74C55.24 28.572 55.492 28.332 55.676 28.02C55.868 27.7 55.964 27.32 55.964 26.88V26.328C55.964 25.896 55.864 25.532 55.664 25.236C55.472 24.94 55.22 24.716 54.908 24.564C54.596 24.412 54.256 24.336 53.888 24.336C53.472 24.336 53.104 24.432 52.784 24.624C52.464 24.816 52.216 25.088 52.04 25.44C51.864 25.784 51.776 26.192 51.776 26.664C51.776 27.136 51.864 27.548 52.04 27.9C52.224 28.252 52.472 28.524 52.784 28.716C53.104 28.9 53.468 28.992 53.876 28.992ZM61.9257 30.216C61.3657 30.216 60.8817 30.12 60.4737 29.928C60.0657 29.736 59.7337 29.484 59.4777 29.172C59.2217 28.852 59.0297 28.496 58.9017 28.104C58.7817 27.712 58.7217 27.312 58.7217 26.904V26.688C58.7217 26.272 58.7817 25.868 58.9017 25.476C59.0297 25.084 59.2217 24.732 59.4777 24.42C59.7337 24.1 60.0577 23.848 60.4497 23.664C60.8497 23.472 61.3177 23.376 61.8537 23.376C62.5497 23.376 63.1217 23.528 63.5697 23.832C64.0257 24.128 64.3617 24.512 64.5777 24.984C64.8017 25.456 64.9137 25.96 64.9137 26.496V27.012H59.2257V26.148H64.0737L63.8097 26.616C63.8097 26.16 63.7377 25.768 63.5937 25.44C63.4497 25.104 63.2337 24.844 62.9457 24.66C62.6577 24.476 62.2937 24.384 61.8537 24.384C61.3977 24.384 61.0177 24.488 60.7137 24.696C60.4177 24.904 60.1937 25.188 60.0417 25.548C59.8977 25.908 59.8257 26.324 59.8257 26.796C59.8257 27.252 59.8977 27.664 60.0417 28.032C60.1937 28.392 60.4257 28.68 60.7377 28.896C61.0497 29.104 61.4457 29.208 61.9257 29.208C62.4297 29.208 62.8377 29.096 63.1497 28.872C63.4697 28.648 63.6617 28.388 63.7257 28.092H64.8057C64.7177 28.532 64.5417 28.912 64.2777 29.232C64.0137 29.552 63.6817 29.796 63.2817 29.964C62.8817 30.132 62.4297 30.216 61.9257 30.216ZM59.8857 22.656L61.2057 20.28H62.5017L63.7977 22.656H62.8617L61.9017 20.856H61.8057L60.8217 22.656H59.8857ZM66.5493 30V23.592H67.4613V26.34H67.3173C67.3173 25.708 67.4013 25.176 67.5693 24.744C67.7453 24.304 68.0093 23.972 68.3613 23.748C68.7133 23.516 69.1573 23.4 69.6933 23.4H69.7413C70.5493 23.4 71.1453 23.652 71.5293 24.156C71.9213 24.66 72.1173 25.388 72.1173 26.34V30H70.9653V26.1C70.9653 25.604 70.8253 25.208 70.5453 24.912C70.2653 24.608 69.8813 24.456 69.3933 24.456C68.8893 24.456 68.4813 24.612 68.1693 24.924C67.8573 25.236 67.7013 25.652 67.7013 26.172V30H66.5493ZM76.9731 30.216C76.4211 30.216 75.9411 30.12 75.5331 29.928C75.1331 29.736 74.8011 29.48 74.5371 29.16C74.2731 28.832 74.0731 28.472 73.9371 28.08C73.8091 27.688 73.7451 27.296 73.7451 26.904V26.688C73.7451 26.28 73.8091 25.88 73.9371 25.488C74.0731 25.096 74.2731 24.744 74.5371 24.432C74.8091 24.112 75.1451 23.856 75.5451 23.664C75.9451 23.472 76.4131 23.376 76.9491 23.376C77.4851 23.376 77.9651 23.476 78.3891 23.676C78.8211 23.876 79.1651 24.16 79.4211 24.528C79.6851 24.888 79.8331 25.316 79.8651 25.812H78.7611C78.7051 25.412 78.5211 25.08 78.2091 24.816C77.8971 24.544 77.4771 24.408 76.9491 24.408C76.4931 24.408 76.1131 24.512 75.8091 24.72C75.5051 24.928 75.2771 25.212 75.1251 25.572C74.9731 25.932 74.8971 26.34 74.8971 26.796C74.8971 27.236 74.9731 27.64 75.1251 28.008C75.2771 28.368 75.5051 28.656 75.8091 28.872C76.1211 29.08 76.5091 29.184 76.9731 29.184C77.3331 29.184 77.6451 29.12 77.9091 28.992C78.1731 28.864 78.3851 28.692 78.5451 28.476C78.7051 28.26 78.8011 28.016 78.8331 27.744H79.9371C79.9131 28.248 79.7651 28.684 79.4931 29.052C79.2291 29.42 78.8771 29.708 78.4371 29.916C78.0051 30.116 77.5171 30.216 76.9731 30.216ZM81.8144 30V23.592H82.9664V30H81.8144ZM80.8304 24.504V23.592H82.9664V24.504H80.8304ZM82.1384 22.56C81.8824 22.56 81.6904 22.492 81.5624 22.356C81.4424 22.22 81.3824 22.048 81.3824 21.84C81.3824 21.632 81.4424 21.46 81.5624 21.324C81.6904 21.188 81.8824 21.12 82.1384 21.12C82.3944 21.12 82.5824 21.188 82.7024 21.324C82.8304 21.46 82.8944 21.632 82.8944 21.84C82.8944 22.048 82.8304 22.22 82.7024 22.356C82.5824 22.492 82.3944 22.56 82.1384 22.56ZM89.0698 30V28.08H88.8778V25.86C88.8778 25.42 88.7618 25.088 88.5298 24.864C88.3058 24.64 87.9738 24.528 87.5338 24.528C87.2858 24.528 87.0298 24.532 86.7658 24.54C86.5018 24.548 86.2498 24.556 86.0098 24.564C85.7698 24.572 85.5618 24.584 85.3858 24.6V23.592C85.5618 23.576 85.7458 23.564 85.9378 23.556C86.1378 23.54 86.3418 23.532 86.5498 23.532C86.7578 23.524 86.9578 23.52 87.1498 23.52C87.8058 23.52 88.3418 23.6 88.7578 23.76C89.1738 23.912 89.4818 24.164 89.6818 24.516C89.8818 24.868 89.9818 25.344 89.9818 25.944V30H89.0698ZM86.9698 30.168C86.4898 30.168 86.0738 30.088 85.7218 29.928C85.3778 29.76 85.1098 29.52 84.9178 29.208C84.7338 28.896 84.6418 28.52 84.6418 28.08C84.6418 27.624 84.7418 27.244 84.9418 26.94C85.1498 26.636 85.4498 26.408 85.8418 26.256C86.2338 26.096 86.7058 26.016 87.2578 26.016H88.9978V26.88H87.2098C86.7458 26.88 86.3898 26.992 86.1418 27.216C85.8938 27.44 85.7698 27.728 85.7698 28.08C85.7698 28.432 85.8938 28.716 86.1418 28.932C86.3898 29.148 86.7458 29.256 87.2098 29.256C87.4818 29.256 87.7418 29.208 87.9898 29.112C88.2378 29.008 88.4418 28.84 88.6018 28.608C88.7698 28.368 88.8618 28.04 88.8778 27.624L89.1898 28.08C89.1498 28.536 89.0378 28.92 88.8538 29.232C88.6778 29.536 88.4298 29.768 88.1098 29.928C87.7978 30.088 87.4178 30.168 86.9698 30.168ZM96.4467 30L94.0827 21.24H95.2947L97.3467 29.232L96.7827 28.944H98.2107L97.5867 29.232L99.2547 21.6H100.359L98.4507 30H96.4467ZM101.715 30L99.6147 21.6H100.755L102.639 29.232L102.039 28.944H103.479L102.867 29.232L104.703 21.24H105.879L103.731 30H101.715ZM109.773 30.216C109.213 30.216 108.729 30.12 108.321 29.928C107.913 29.736 107.581 29.484 107.325 29.172C107.069 28.852 106.877 28.496 106.749 28.104C106.629 27.712 106.569 27.312 106.569 26.904V26.688C106.569 26.272 106.629 25.868 106.749 25.476C106.877 25.084 107.069 24.732 107.325 24.42C107.581 24.1 107.905 23.848 108.297 23.664C108.697 23.472 109.165 23.376 109.701 23.376C110.397 23.376 110.969 23.528 111.417 23.832C111.873 24.128 112.209 24.512 112.425 24.984C112.649 25.456 112.761 25.96 112.761 26.496V27.012H107.073V26.148H111.921L111.657 26.616C111.657 26.16 111.585 25.768 111.441 25.44C111.297 25.104 111.081 24.844 110.793 24.66C110.505 24.476 110.141 24.384 109.701 24.384C109.245 24.384 108.865 24.488 108.561 24.696C108.265 24.904 108.041 25.188 107.889 25.548C107.745 25.908 107.673 26.324 107.673 26.796C107.673 27.252 107.745 27.664 107.889 28.032C108.041 28.392 108.273 28.68 108.585 28.896C108.897 29.104 109.293 29.208 109.773 29.208C110.277 29.208 110.685 29.096 110.997 28.872C111.317 28.648 111.509 28.388 111.573 28.092H112.653C112.565 28.532 112.389 28.912 112.125 29.232C111.861 29.552 111.529 29.796 111.129 29.964C110.729 30.132 110.277 30.216 109.773 30.216ZM117.781 30.216C117.253 30.216 116.781 30.1 116.365 29.868C115.957 29.636 115.633 29.3 115.393 28.86C115.153 28.412 115.021 27.876 114.997 27.252H115.309V30H114.397V21.24H115.549V25.5L115.141 26.376C115.173 25.68 115.313 25.112 115.561 24.672C115.809 24.232 116.133 23.908 116.533 23.7C116.941 23.484 117.389 23.376 117.877 23.376C118.333 23.376 118.749 23.464 119.125 23.64C119.501 23.808 119.825 24.044 120.097 24.348C120.369 24.644 120.577 24.992 120.721 25.392C120.865 25.784 120.937 26.208 120.937 26.664V26.88C120.937 27.336 120.861 27.764 120.709 28.164C120.565 28.564 120.353 28.92 120.073 29.232C119.793 29.536 119.457 29.776 119.065 29.952C118.681 30.128 118.253 30.216 117.781 30.216ZM117.649 29.208C118.081 29.208 118.457 29.104 118.777 28.896C119.097 28.688 119.345 28.404 119.521 28.044C119.697 27.676 119.785 27.252 119.785 26.772C119.785 26.292 119.693 25.872 119.509 25.512C119.333 25.152 119.085 24.876 118.765 24.684C118.445 24.484 118.073 24.384 117.649 24.384C117.265 24.384 116.909 24.472 116.581 24.648C116.253 24.816 115.989 25.064 115.789 25.392C115.597 25.712 115.501 26.1 115.501 26.556V27.108C115.501 27.548 115.601 27.924 115.801 28.236C116.001 28.548 116.265 28.788 116.593 28.956C116.921 29.124 117.273 29.208 117.649 29.208Z" fill="#808080"/>
</svg>
